G04*
G04 #@! TF.GenerationSoftware,Altium Limited,Altium Designer,25.2.1 (25)*
G04*
G04 Layer_Color=16711935*
%FSLAX25Y25*%
%MOIN*%
G70*
G04*
G04 #@! TF.SameCoordinates,F9EB4FB7-7235-4222-B540-9B3DE50980C4*
G04*
G04*
G04 #@! TF.FilePolarity,Positive*
G04*
G01*
G75*
%ADD10C,0.00787*%
%ADD12C,0.00591*%
%ADD13C,0.00500*%
%ADD39C,0.00394*%
D10*
X76815Y138500D02*
X76028D01*
X76815D01*
X186874Y80000D02*
X186087D01*
X186874D01*
X235598Y101421D02*
X260402D01*
Y91579D02*
Y101421D01*
X235598Y91579D02*
X260402D01*
X235598D02*
Y101421D01*
X154303Y124484D02*
X164697D01*
X154303Y102516D02*
Y124484D01*
Y102516D02*
X164697D01*
Y124484D01*
X235598Y103579D02*
Y113421D01*
Y103579D02*
X260402D01*
Y113421D01*
X235598D02*
X260402D01*
X235598Y115579D02*
Y125421D01*
Y115579D02*
X260402D01*
Y125421D01*
X235598D02*
X260402D01*
X235783Y127579D02*
Y137421D01*
Y127579D02*
X260587D01*
Y137421D01*
X235783D02*
X260587D01*
X10579Y65374D02*
X20421D01*
X10579Y49626D02*
Y65374D01*
Y49626D02*
X20421D01*
Y65374D01*
X31579Y49626D02*
X41421D01*
Y65374D01*
X31579D02*
X41421D01*
X31579Y49626D02*
Y65374D01*
X10579Y11969D02*
X20421D01*
Y27717D01*
X10579D02*
X20421D01*
X10579Y11969D02*
Y27717D01*
X31803Y9016D02*
X42197D01*
Y30984D01*
X31803D02*
X42197D01*
X31803Y9016D02*
Y30984D01*
X9303Y138484D02*
X19697D01*
X9303Y116516D02*
Y138484D01*
Y116516D02*
X19697D01*
Y138484D01*
X119606Y4508D02*
X130394D01*
Y65492D01*
X119606D02*
X130394D01*
X119606Y4508D02*
Y65492D01*
X44803Y138484D02*
X55197D01*
X44803Y116516D02*
Y138484D01*
Y116516D02*
X55197D01*
Y138484D01*
D12*
X25827Y93000D02*
X25781Y93999D01*
X25642Y94989D01*
X25414Y95963D01*
X25096Y96911D01*
X24692Y97826D01*
X24205Y98700D01*
X23640Y99525D01*
X23001Y100294D01*
X22294Y101001D01*
X21525Y101640D01*
X20700Y102205D01*
X19826Y102692D01*
X18911Y103096D01*
X17963Y103413D01*
X16989Y103642D01*
X15999Y103781D01*
X15000Y103827D01*
X14001Y103781D01*
X13011Y103642D01*
X12037Y103413D01*
X11089Y103096D01*
X10174Y102692D01*
X9300Y102205D01*
X8475Y101640D01*
X7706Y101001D01*
X6999Y100294D01*
X6360Y99525D01*
X5795Y98700D01*
X5308Y97826D01*
X4904Y96911D01*
X4586Y95963D01*
X4358Y94989D01*
X4219Y93999D01*
X4173Y93000D01*
X4219Y92001D01*
X4358Y91011D01*
X4586Y90037D01*
X4904Y89089D01*
X5308Y88174D01*
X5795Y87300D01*
X6360Y86475D01*
X6999Y85706D01*
X7706Y84999D01*
X8475Y84360D01*
X9300Y83795D01*
X10174Y83308D01*
X11089Y82904D01*
X12037Y82586D01*
X13011Y82358D01*
X14001Y82219D01*
X15000Y82173D01*
X15999Y82219D01*
X16989Y82358D01*
X17963Y82586D01*
X18911Y82904D01*
X19826Y83308D01*
X20700Y83795D01*
X21525Y84360D01*
X22294Y84999D01*
X23001Y85706D01*
X23640Y86475D01*
X24205Y87300D01*
X24692Y88174D01*
X25096Y89089D01*
X25414Y90037D01*
X25642Y91011D01*
X25781Y92001D01*
X25827Y93000D01*
D13*
X82250Y141748D02*
X110750D01*
X82250Y5252D02*
X110750D01*
X82250D02*
Y141748D01*
X110750Y5252D02*
Y141748D01*
X269000Y5000D02*
Y85000D01*
X189000Y5000D02*
X269000D01*
X189000D02*
Y85000D01*
X269000D01*
D39*
X203193Y98028D02*
Y138972D01*
X185083Y98028D02*
X203193D01*
X185083D02*
Y138972D01*
X203193D01*
X195713Y98028D02*
Y138972D01*
M02*
