G04*
G04 #@! TF.GenerationSoftware,Altium Limited,Altium Designer,25.2.1 (25)*
G04*
G04 Layer_Physical_Order=2*
G04 Layer_Color=16711680*
%FSLAX25Y25*%
%MOIN*%
G70*
G04*
G04 #@! TF.SameCoordinates,F9EB4FB7-7235-4222-B540-9B3DE50980C4*
G04*
G04*
G04 #@! TF.FilePolarity,Positive*
G04*
G01*
G75*
%ADD15R,0.04921X0.04921*%
%ADD16C,0.04921*%
%ADD19C,0.06181*%
%ADD20R,0.06181X0.06181*%
%ADD25C,0.04724*%
%ADD26R,0.04724X0.04724*%
%ADD27R,0.04724X0.04724*%
%ADD31C,0.01500*%
%ADD32C,0.06299*%
G04:AMPARAMS|DCode=33|XSize=62.99mil|YSize=62.99mil|CornerRadius=15.75mil|HoleSize=0mil|Usage=FLASHONLY|Rotation=270.000|XOffset=0mil|YOffset=0mil|HoleType=Round|Shape=RoundedRectangle|*
%AMROUNDEDRECTD33*
21,1,0.06299,0.03150,0,0,270.0*
21,1,0.03150,0.06299,0,0,270.0*
1,1,0.03150,-0.01575,-0.01575*
1,1,0.03150,-0.01575,0.01575*
1,1,0.03150,0.01575,0.01575*
1,1,0.03150,0.01575,-0.01575*
%
%ADD33ROUNDEDRECTD33*%
%ADD34C,0.05150*%
%ADD35R,0.05150X0.05150*%
%ADD36C,0.07087*%
%ADD37R,0.07087X0.07087*%
G04:AMPARAMS|DCode=38|XSize=62.99mil|YSize=62.99mil|CornerRadius=15.75mil|HoleSize=0mil|Usage=FLASHONLY|Rotation=180.000|XOffset=0mil|YOffset=0mil|HoleType=Round|Shape=RoundedRectangle|*
%AMROUNDEDRECTD38*
21,1,0.06299,0.03150,0,0,180.0*
21,1,0.03150,0.06299,0,0,180.0*
1,1,0.03150,-0.01575,0.01575*
1,1,0.03150,0.01575,0.01575*
1,1,0.03150,0.01575,-0.01575*
1,1,0.03150,-0.01575,-0.01575*
%
%ADD38ROUNDEDRECTD38*%
D15*
X228315Y96500D02*
D03*
X81000Y138500D02*
D03*
X228315Y108500D02*
D03*
Y120500D02*
D03*
X228500Y132500D02*
D03*
D16*
X267685Y96500D02*
D03*
X81000Y128500D02*
D03*
Y118500D02*
D03*
Y108500D02*
D03*
Y98500D02*
D03*
Y88500D02*
D03*
Y78500D02*
D03*
Y68500D02*
D03*
Y58500D02*
D03*
Y48500D02*
D03*
Y38500D02*
D03*
Y28500D02*
D03*
Y18500D02*
D03*
Y8500D02*
D03*
X112000D02*
D03*
Y18500D02*
D03*
Y28500D02*
D03*
Y38500D02*
D03*
Y48500D02*
D03*
Y58500D02*
D03*
Y68500D02*
D03*
Y78500D02*
D03*
Y88500D02*
D03*
Y98500D02*
D03*
Y108500D02*
D03*
Y118500D02*
D03*
Y128500D02*
D03*
Y138500D02*
D03*
X267685Y108500D02*
D03*
Y120500D02*
D03*
X267870Y132500D02*
D03*
D19*
X159500Y108500D02*
D03*
X37000Y25000D02*
D03*
X14500Y122500D02*
D03*
X125000Y60000D02*
D03*
Y50000D02*
D03*
Y40000D02*
D03*
Y30000D02*
D03*
Y20000D02*
D03*
X50000Y122500D02*
D03*
D20*
X159500Y118500D02*
D03*
X37000Y15000D02*
D03*
X14500Y132500D02*
D03*
X125000Y10000D02*
D03*
X50000Y132500D02*
D03*
D25*
X15500Y47657D02*
D03*
X18937Y93000D02*
D03*
X36500Y67343D02*
D03*
X15500Y29685D02*
D03*
D26*
Y67343D02*
D03*
X36500Y47657D02*
D03*
X15500Y10000D02*
D03*
D27*
X11063Y93000D02*
D03*
D31*
X112000Y88500D02*
X118200D01*
X118700Y88000D01*
X125000D01*
X219815D01*
X228315Y96500D01*
X81000Y108500D02*
X106000Y133500D01*
X127700D01*
X133200Y139000D01*
X271300D01*
X272300Y138000D01*
Y87800D02*
Y138000D01*
X264500Y80000D02*
X272300Y87800D01*
X112000Y18500D02*
X115200Y15300D01*
X127400D01*
X129700Y17600D01*
Y22400D01*
X127459Y24641D02*
X129700Y22400D01*
X123600Y24641D02*
X127459D01*
X120300Y27941D02*
X123600Y24641D01*
X120300Y27941D02*
Y32700D01*
X122300Y34700D01*
X155800D01*
X159500Y31000D01*
X112000Y8500D02*
X116000Y4500D01*
X143000D01*
X159500Y21000D01*
X15500Y10000D02*
X30500Y25000D01*
X37000D01*
X50000Y38000D01*
Y43500D01*
X36500Y67343D02*
X45443Y58400D01*
X70900D01*
X81000Y68500D01*
X76900Y72600D02*
X81000Y68500D01*
X76900Y72600D02*
Y80600D01*
X79100Y82800D01*
X107700D01*
X112000Y78500D01*
X114500Y81000D01*
X159500D01*
X125000Y30000D02*
X128881D01*
X132881Y26000D01*
X187500D01*
X193500Y20000D01*
X264500D01*
X263585Y124600D02*
X267685Y120500D01*
X202600Y124600D02*
X263585D01*
X196500Y118500D02*
X202600Y124600D01*
X112000Y98500D02*
X118200D01*
X118700Y98000D01*
X125000D01*
X112000Y38500D02*
X117700D01*
X119200Y40000D01*
X125000D01*
X148500D01*
X159500Y51000D01*
X120500Y20000D02*
X125000D01*
X112000Y28500D02*
X120500Y20000D01*
X15500Y47657D02*
X36500D01*
X45300D01*
X46143Y48500D01*
X81000D01*
X18937Y93000D02*
X181000D01*
X196500Y108500D01*
X112000D02*
X118200D01*
X118700Y108000D01*
X125000D01*
X14500Y132500D02*
X19200Y137200D01*
X72300D01*
X81000Y128500D01*
X112000Y48500D02*
X117700D01*
X119200Y50000D01*
X125000D01*
X148500D01*
X159500Y61000D01*
X112000Y118500D02*
X118200D01*
X118700Y118000D01*
X125000D01*
X143400Y136400D01*
X224600D01*
X228500Y132500D01*
X14500Y122500D02*
X19200Y127200D01*
X72300D01*
X81000Y118500D01*
X36500Y100500D02*
X46500D01*
X56500D01*
X66500D01*
X81000Y78500D02*
X91000Y68500D01*
X112000D01*
X114500Y71000D01*
X159500D01*
X168500Y80000D01*
X193500D01*
D32*
X159500Y31000D02*
D03*
Y51000D02*
D03*
Y71000D02*
D03*
Y61000D02*
D03*
Y41000D02*
D03*
Y21000D02*
D03*
Y11000D02*
D03*
X50000Y63500D02*
D03*
Y53500D02*
D03*
Y43500D02*
D03*
X56500Y100500D02*
D03*
X46500D02*
D03*
X36500D02*
D03*
X125000Y98000D02*
D03*
Y108000D02*
D03*
Y118000D02*
D03*
D33*
X159500Y81000D02*
D03*
X50000Y73500D02*
D03*
X125000Y88000D02*
D03*
D34*
X193500Y50000D02*
D03*
Y40000D02*
D03*
X264500Y50000D02*
D03*
Y40000D02*
D03*
X193500Y30000D02*
D03*
Y60000D02*
D03*
X264500D02*
D03*
Y30000D02*
D03*
X193500Y70000D02*
D03*
X264500D02*
D03*
X193500Y20000D02*
D03*
X264500D02*
D03*
Y80000D02*
D03*
X193500Y10000D02*
D03*
X264500D02*
D03*
D35*
X193500Y80000D02*
D03*
D36*
X196500Y128500D02*
D03*
Y118500D02*
D03*
D37*
Y108500D02*
D03*
D38*
X66500Y100500D02*
D03*
M02*
