G04*
G04 #@! TF.GenerationSoftware,Altium Limited,Altium Designer,25.2.1 (25)*
G04*
G04 Layer_Color=0*
%FSLAX25Y25*%
%MOIN*%
G70*
G04*
G04 #@! TF.SameCoordinates,F9EB4FB7-7235-4222-B540-9B3DE50980C4*
G04*
G04*
G04 #@! TF.FilePolarity,Positive*
G04*
G01*
G75*
%ADD39C,0.00394*%
%ADD40C,0.00197*%
D39*
X246032Y96500D02*
X249969D01*
X248000Y94532D02*
Y98469D01*
X157532Y113500D02*
X161469D01*
X159500Y111532D02*
Y115469D01*
X248000Y106532D02*
Y110469D01*
X246032Y108500D02*
X249969D01*
X248000Y118532D02*
Y122469D01*
X246032Y120500D02*
X249969D01*
X248185Y130532D02*
Y134469D01*
X246217Y132500D02*
X250154D01*
X13532Y57500D02*
X17469D01*
X15500Y55532D02*
Y59469D01*
X15000Y91032D02*
Y94969D01*
X13032Y93000D02*
X16969D01*
X34532Y57500D02*
X38469D01*
X36500Y55532D02*
Y59469D01*
X13532Y19843D02*
X17469D01*
X15500Y17874D02*
Y21811D01*
X35032Y20000D02*
X38969D01*
X37000Y18032D02*
Y21969D01*
X12532Y127500D02*
X16469D01*
X14500Y125532D02*
Y129469D01*
X123032Y35000D02*
X126969D01*
X125000Y33032D02*
Y36969D01*
X48032Y127500D02*
X51969D01*
X50000Y125532D02*
Y129469D01*
D40*
X157532Y46000D02*
X161469D01*
X159500Y44032D02*
Y47969D01*
X48032Y58500D02*
X51969D01*
X50000Y56532D02*
Y60469D01*
X51500Y98532D02*
Y102469D01*
X49532Y100500D02*
X53469D01*
X123032Y103000D02*
X126969D01*
X125000Y101032D02*
Y104969D01*
M02*
