M48
;Layer_Color=9474304
;FILE_FORMAT=2:4
INCH,TZ
;TYPE=PLATED
T01F00S00C0.0276
T02F00S00C0.0295
T03F00S00C0.0315
T04F00S00C0.0327
T05F00S00C0.0402
T06F00S00C0.0433
T07F00S00C0.0472
%
T01
X1550Y1000
Y2968
Y4766
X3650
Y6734
X1550
X1894Y9300
X1106
T02
X22831Y9650
Y10850
Y12050
X22850Y13250
X26787
X26769Y12050
Y10850
Y9650
T03
X26450Y1000
Y2000
Y3000
Y4000
Y5000
Y6000
X19350
Y5000
Y4000
Y3000
Y2000
Y1000
Y7000
Y8000
X26450
Y7000
T04
X8100Y850
Y1850
Y2850
Y3850
Y4850
Y5850
X11200
Y4850
Y3850
Y2850
Y1850
Y850
Y6850
Y7850
Y8850
Y9850
Y10850
Y11850
Y12850
Y13850
X8100
Y12850
Y11850
Y10850
Y9850
Y8850
Y7850
Y6850
T05
X12500Y1000
Y2000
Y3000
Y4000
Y5000
Y6000
X3700Y2500
Y1500
X5000Y12250
Y13250
X1450
Y12250
X15950Y11850
Y10850
T06
X15950Y1100
Y2100
Y3100
Y4100
Y5100
Y6100
X5000Y6350
Y5350
Y4350
Y7350
X4650Y10050
X5650
X6650
X3650
X12500Y9800
Y8800
Y10800
Y11800
X15950Y8100
Y7100
T07
X19650Y10850
Y11850
Y12850
M30
