G04*
G04 #@! TF.GenerationSoftware,Altium Limited,Altium Designer,25.2.1 (25)*
G04*
G04 Layer_Color=16711935*
%FSLAX25Y25*%
%MOIN*%
G70*
G04*
G04 #@! TF.SameCoordinates,F9EB4FB7-7235-4222-B540-9B3DE50980C4*
G04*
G04*
G04 #@! TF.FilePolarity,Positive*
G04*
G01*
G75*
%ADD10C,0.00787*%
G36*
X251574Y95759D02*
X251265D01*
Y97728D01*
X251261Y97724D01*
X251243Y97710D01*
X251221Y97688D01*
X251185Y97663D01*
X251145Y97630D01*
X251094Y97593D01*
X251036Y97553D01*
X250970Y97513D01*
X250967D01*
X250963Y97510D01*
X250941Y97495D01*
X250905Y97477D01*
X250861Y97455D01*
X250810Y97430D01*
X250756Y97404D01*
X250701Y97379D01*
X250646Y97357D01*
Y97655D01*
X250650D01*
X250657Y97663D01*
X250672Y97666D01*
X250690Y97677D01*
X250712Y97688D01*
X250737Y97703D01*
X250799Y97739D01*
X250872Y97779D01*
X250945Y97830D01*
X251021Y97888D01*
X251098Y97950D01*
X251101Y97954D01*
X251105Y97957D01*
X251116Y97968D01*
X251130Y97979D01*
X251163Y98016D01*
X251207Y98059D01*
X251251Y98110D01*
X251298Y98169D01*
X251338Y98227D01*
X251374Y98289D01*
X251574D01*
Y95759D01*
D02*
G37*
G36*
X249198Y98274D02*
X249230D01*
X249307Y98270D01*
X249387Y98260D01*
X249474Y98249D01*
X249554Y98230D01*
X249594Y98220D01*
X249627Y98209D01*
X249631D01*
X249634Y98205D01*
X249656Y98194D01*
X249689Y98180D01*
X249729Y98154D01*
X249773Y98121D01*
X249820Y98078D01*
X249864Y98027D01*
X249907Y97968D01*
Y97965D01*
X249911Y97961D01*
X249926Y97939D01*
X249940Y97903D01*
X249962Y97856D01*
X249980Y97801D01*
X249998Y97735D01*
X250009Y97666D01*
X250013Y97590D01*
Y97586D01*
Y97579D01*
Y97564D01*
X250009Y97546D01*
Y97521D01*
X250006Y97495D01*
X249991Y97433D01*
X249969Y97360D01*
X249940Y97284D01*
X249896Y97208D01*
X249867Y97171D01*
X249838Y97135D01*
X249835Y97131D01*
X249831Y97127D01*
X249820Y97117D01*
X249805Y97106D01*
X249787Y97091D01*
X249765Y97077D01*
X249736Y97058D01*
X249707Y97036D01*
X249671Y97018D01*
X249631Y97000D01*
X249587Y96978D01*
X249540Y96960D01*
X249485Y96946D01*
X249430Y96927D01*
X249369Y96916D01*
X249303Y96905D01*
X249310Y96902D01*
X249325Y96895D01*
X249347Y96880D01*
X249376Y96865D01*
X249441Y96825D01*
X249474Y96800D01*
X249503Y96778D01*
X249511Y96771D01*
X249529Y96753D01*
X249558Y96724D01*
X249594Y96687D01*
X249634Y96636D01*
X249682Y96582D01*
X249729Y96516D01*
X249780Y96443D01*
X250213Y95759D01*
X249798D01*
X249467Y96283D01*
Y96287D01*
X249460Y96294D01*
X249452Y96305D01*
X249441Y96319D01*
X249416Y96359D01*
X249383Y96410D01*
X249343Y96465D01*
X249303Y96523D01*
X249263Y96578D01*
X249227Y96629D01*
X249223Y96632D01*
X249212Y96647D01*
X249194Y96669D01*
X249168Y96694D01*
X249114Y96749D01*
X249085Y96774D01*
X249056Y96796D01*
X249052Y96800D01*
X249045Y96804D01*
X249030Y96811D01*
X249008Y96822D01*
X248986Y96833D01*
X248961Y96844D01*
X248903Y96862D01*
X248899D01*
X248892Y96865D01*
X248877D01*
X248859Y96869D01*
X248834Y96873D01*
X248804D01*
X248764Y96876D01*
X248335D01*
Y95759D01*
X248000D01*
Y98278D01*
X249168D01*
X249198Y98274D01*
D02*
G37*
G36*
X160297Y113198D02*
X160293D01*
X160286D01*
X160272D01*
X160250Y113194D01*
X160228Y113191D01*
X160203D01*
X160141Y113180D01*
X160075Y113169D01*
X160010Y113147D01*
X159951Y113125D01*
X159926Y113110D01*
X159904Y113092D01*
X159900Y113089D01*
X159889Y113074D01*
X159871Y113052D01*
X159853Y113023D01*
X159831Y112983D01*
X159817Y112940D01*
X159802Y112885D01*
X159798Y112827D01*
Y112805D01*
X159802Y112783D01*
X159806Y112750D01*
X159813Y112717D01*
X159820Y112681D01*
X159835Y112645D01*
X159853Y112608D01*
X159857Y112605D01*
X159864Y112594D01*
X159879Y112579D01*
X159893Y112557D01*
X159919Y112539D01*
X159944Y112517D01*
X159973Y112499D01*
X160010Y112485D01*
X160013D01*
X160028Y112477D01*
X160053Y112474D01*
X160086Y112466D01*
X160130Y112459D01*
X160184Y112455D01*
X160250Y112448D01*
X160326D01*
X162063D01*
Y112113D01*
X160344D01*
X160341D01*
X160330D01*
X160315D01*
X160293D01*
X160264Y112117D01*
X160235D01*
X160166Y112124D01*
X160086Y112131D01*
X160002Y112146D01*
X159926Y112168D01*
X159853Y112193D01*
X159849D01*
X159846Y112197D01*
X159824Y112208D01*
X159795Y112226D01*
X159755Y112251D01*
X159715Y112288D01*
X159671Y112328D01*
X159627Y112379D01*
X159591Y112437D01*
X159587Y112444D01*
X159576Y112466D01*
X159562Y112499D01*
X159547Y112546D01*
X159529Y112605D01*
X159514Y112670D01*
X159504Y112743D01*
X159500Y112823D01*
Y112856D01*
X159504Y112878D01*
X159507Y112907D01*
X159511Y112936D01*
X159525Y113012D01*
X159547Y113092D01*
X159580Y113176D01*
X159602Y113220D01*
X159627Y113260D01*
X159657Y113296D01*
X159689Y113333D01*
X159693Y113336D01*
X159696Y113340D01*
X159711Y113347D01*
X159726Y113358D01*
X159744Y113373D01*
X159769Y113387D01*
X159798Y113402D01*
X159831Y113420D01*
X159868Y113435D01*
X159911Y113449D01*
X159955Y113464D01*
X160006Y113478D01*
X160061Y113486D01*
X160122Y113496D01*
X160184Y113500D01*
X160253D01*
X160297Y113198D01*
D02*
G37*
G36*
X160789Y111706D02*
X160839D01*
X160898Y111702D01*
X160967Y111695D01*
X161043Y111687D01*
X161127Y111676D01*
X161211Y111662D01*
X161302Y111644D01*
X161389Y111622D01*
X161477Y111596D01*
X161560Y111564D01*
X161640Y111527D01*
X161717Y111487D01*
X161782Y111440D01*
X161786Y111436D01*
X161793Y111429D01*
X161808Y111414D01*
X161829Y111396D01*
X161851Y111374D01*
X161873Y111345D01*
X161902Y111309D01*
X161928Y111272D01*
X161953Y111229D01*
X161982Y111181D01*
X162004Y111127D01*
X162030Y111072D01*
X162048Y111010D01*
X162063Y110945D01*
X162070Y110876D01*
X162073Y110803D01*
Y110774D01*
X162070Y110752D01*
Y110726D01*
X162066Y110697D01*
X162052Y110628D01*
X162033Y110552D01*
X162004Y110472D01*
X161961Y110391D01*
X161935Y110351D01*
X161906Y110315D01*
X161902Y110311D01*
X161899Y110308D01*
X161888Y110297D01*
X161877Y110286D01*
X161859Y110268D01*
X161837Y110253D01*
X161786Y110213D01*
X161720Y110173D01*
X161640Y110137D01*
X161549Y110104D01*
X161447Y110082D01*
X161422Y110391D01*
X161425D01*
X161429Y110395D01*
X161451Y110399D01*
X161484Y110410D01*
X161524Y110424D01*
X161567Y110439D01*
X161611Y110461D01*
X161651Y110486D01*
X161684Y110512D01*
X161691Y110519D01*
X161706Y110533D01*
X161728Y110559D01*
X161753Y110595D01*
X161775Y110643D01*
X161797Y110694D01*
X161811Y110756D01*
X161819Y110821D01*
Y110846D01*
X161815Y110876D01*
X161808Y110908D01*
X161797Y110952D01*
X161782Y110996D01*
X161764Y111039D01*
X161735Y111083D01*
X161731Y111090D01*
X161717Y111109D01*
X161691Y111134D01*
X161655Y111167D01*
X161611Y111203D01*
X161560Y111243D01*
X161495Y111280D01*
X161422Y111316D01*
X161418D01*
X161411Y111320D01*
X161400Y111323D01*
X161386Y111331D01*
X161364Y111334D01*
X161338Y111342D01*
X161309Y111349D01*
X161273Y111356D01*
X161233Y111367D01*
X161189Y111374D01*
X161142Y111381D01*
X161091Y111385D01*
X161032Y111392D01*
X160974Y111396D01*
X160909Y111400D01*
X160843D01*
X160847Y111396D01*
X160869Y111381D01*
X160898Y111356D01*
X160934Y111323D01*
X160978Y111287D01*
X161018Y111240D01*
X161058Y111189D01*
X161094Y111130D01*
Y111127D01*
X161098Y111123D01*
X161109Y111101D01*
X161120Y111068D01*
X161138Y111025D01*
X161153Y110974D01*
X161163Y110916D01*
X161174Y110854D01*
X161178Y110788D01*
Y110759D01*
X161174Y110737D01*
X161171Y110708D01*
X161167Y110679D01*
X161160Y110643D01*
X161149Y110606D01*
X161123Y110522D01*
X161105Y110479D01*
X161080Y110435D01*
X161054Y110391D01*
X161025Y110344D01*
X160989Y110301D01*
X160949Y110260D01*
X160945Y110257D01*
X160938Y110249D01*
X160927Y110239D01*
X160909Y110228D01*
X160883Y110210D01*
X160858Y110191D01*
X160825Y110173D01*
X160789Y110151D01*
X160749Y110129D01*
X160705Y110111D01*
X160654Y110093D01*
X160603Y110075D01*
X160548Y110064D01*
X160486Y110053D01*
X160424Y110046D01*
X160359Y110042D01*
X160355D01*
X160348D01*
X160337D01*
X160319D01*
X160297Y110046D01*
X160275D01*
X160217Y110057D01*
X160148Y110067D01*
X160075Y110086D01*
X159995Y110111D01*
X159919Y110148D01*
X159915D01*
X159911Y110151D01*
X159900Y110159D01*
X159886Y110166D01*
X159849Y110188D01*
X159802Y110220D01*
X159751Y110260D01*
X159700Y110308D01*
X159649Y110366D01*
X159606Y110428D01*
Y110432D01*
X159602Y110435D01*
X159595Y110446D01*
X159591Y110461D01*
X159573Y110497D01*
X159555Y110544D01*
X159533Y110606D01*
X159518Y110675D01*
X159504Y110752D01*
X159500Y110836D01*
Y110854D01*
X159504Y110872D01*
Y110901D01*
X159507Y110934D01*
X159514Y110970D01*
X159525Y111014D01*
X159536Y111058D01*
X159551Y111109D01*
X159569Y111160D01*
X159591Y111211D01*
X159620Y111265D01*
X159653Y111316D01*
X159689Y111367D01*
X159733Y111418D01*
X159784Y111465D01*
X159787Y111469D01*
X159798Y111476D01*
X159813Y111487D01*
X159838Y111502D01*
X159871Y111523D01*
X159908Y111542D01*
X159955Y111564D01*
X160006Y111585D01*
X160068Y111611D01*
X160137Y111633D01*
X160213Y111651D01*
X160297Y111669D01*
X160392Y111687D01*
X160494Y111698D01*
X160603Y111706D01*
X160719Y111709D01*
X160723D01*
X160727D01*
X160738D01*
X160752D01*
X160789Y111706D01*
D02*
G37*
G36*
X251305Y110285D02*
X251334Y110281D01*
X251371Y110278D01*
X251411Y110271D01*
X251451Y110263D01*
X251545Y110238D01*
X251640Y110201D01*
X251687Y110179D01*
X251735Y110154D01*
X251778Y110121D01*
X251818Y110085D01*
X251822Y110081D01*
X251829Y110078D01*
X251837Y110063D01*
X251851Y110048D01*
X251869Y110030D01*
X251887Y110005D01*
X251906Y109979D01*
X251928Y109947D01*
X251964Y109877D01*
X252000Y109790D01*
X252015Y109746D01*
X252022Y109695D01*
X252029Y109644D01*
X252033Y109590D01*
Y109582D01*
Y109564D01*
X252029Y109535D01*
X252026Y109495D01*
X252019Y109451D01*
X252004Y109400D01*
X251989Y109346D01*
X251968Y109291D01*
X251964Y109284D01*
X251957Y109266D01*
X251942Y109237D01*
X251920Y109197D01*
X251891Y109153D01*
X251855Y109098D01*
X251811Y109044D01*
X251760Y108982D01*
X251753Y108975D01*
X251735Y108953D01*
X251716Y108935D01*
X251698Y108916D01*
X251676Y108895D01*
X251647Y108865D01*
X251618Y108836D01*
X251582Y108804D01*
X251545Y108767D01*
X251502Y108727D01*
X251454Y108687D01*
X251403Y108640D01*
X251345Y108592D01*
X251287Y108542D01*
X251283Y108538D01*
X251276Y108531D01*
X251261Y108520D01*
X251243Y108505D01*
X251221Y108483D01*
X251196Y108461D01*
X251138Y108414D01*
X251076Y108360D01*
X251018Y108305D01*
X250967Y108258D01*
X250945Y108239D01*
X250927Y108221D01*
X250923Y108218D01*
X250912Y108207D01*
X250897Y108192D01*
X250879Y108170D01*
X250861Y108145D01*
X250839Y108119D01*
X250796Y108057D01*
X252037D01*
Y107759D01*
X250366D01*
Y107763D01*
Y107777D01*
Y107799D01*
X250370Y107828D01*
X250373Y107861D01*
X250381Y107897D01*
X250388Y107934D01*
X250402Y107974D01*
Y107977D01*
X250406Y107981D01*
X250413Y108003D01*
X250428Y108036D01*
X250450Y108079D01*
X250479Y108130D01*
X250515Y108188D01*
X250555Y108247D01*
X250606Y108308D01*
Y108312D01*
X250613Y108316D01*
X250632Y108338D01*
X250664Y108370D01*
X250712Y108418D01*
X250766Y108472D01*
X250836Y108538D01*
X250919Y108611D01*
X251010Y108687D01*
X251014Y108691D01*
X251028Y108702D01*
X251050Y108720D01*
X251076Y108742D01*
X251109Y108771D01*
X251149Y108804D01*
X251189Y108840D01*
X251236Y108880D01*
X251327Y108967D01*
X251418Y109055D01*
X251462Y109098D01*
X251502Y109142D01*
X251538Y109182D01*
X251567Y109222D01*
Y109226D01*
X251574Y109229D01*
X251582Y109240D01*
X251589Y109255D01*
X251614Y109295D01*
X251644Y109342D01*
X251669Y109400D01*
X251695Y109462D01*
X251709Y109532D01*
X251716Y109597D01*
Y109601D01*
Y109604D01*
X251713Y109626D01*
X251709Y109663D01*
X251698Y109703D01*
X251684Y109754D01*
X251658Y109805D01*
X251625Y109855D01*
X251582Y109906D01*
X251574Y109914D01*
X251556Y109928D01*
X251531Y109947D01*
X251491Y109972D01*
X251440Y109994D01*
X251382Y110016D01*
X251312Y110030D01*
X251236Y110034D01*
X251214D01*
X251200Y110030D01*
X251156Y110027D01*
X251105Y110016D01*
X251050Y110001D01*
X250988Y109976D01*
X250930Y109943D01*
X250876Y109899D01*
X250868Y109892D01*
X250854Y109874D01*
X250832Y109845D01*
X250810Y109801D01*
X250785Y109750D01*
X250763Y109684D01*
X250748Y109612D01*
X250741Y109528D01*
X250424Y109561D01*
Y109564D01*
X250428Y109575D01*
Y109593D01*
X250431Y109619D01*
X250439Y109648D01*
X250446Y109681D01*
X250457Y109721D01*
X250468Y109761D01*
X250497Y109848D01*
X250541Y109936D01*
X250566Y109979D01*
X250599Y110023D01*
X250632Y110063D01*
X250668Y110099D01*
X250672Y110103D01*
X250679Y110107D01*
X250690Y110118D01*
X250708Y110128D01*
X250730Y110143D01*
X250756Y110158D01*
X250785Y110176D01*
X250821Y110194D01*
X250861Y110212D01*
X250905Y110230D01*
X250952Y110245D01*
X251003Y110260D01*
X251058Y110271D01*
X251116Y110281D01*
X251178Y110285D01*
X251243Y110289D01*
X251280D01*
X251305Y110285D01*
D02*
G37*
G36*
X249198Y110274D02*
X249230D01*
X249307Y110271D01*
X249387Y110260D01*
X249474Y110249D01*
X249554Y110230D01*
X249594Y110220D01*
X249627Y110209D01*
X249631D01*
X249634Y110205D01*
X249656Y110194D01*
X249689Y110179D01*
X249729Y110154D01*
X249773Y110121D01*
X249820Y110078D01*
X249864Y110027D01*
X249907Y109968D01*
Y109965D01*
X249911Y109961D01*
X249926Y109939D01*
X249940Y109903D01*
X249962Y109855D01*
X249980Y109801D01*
X249998Y109735D01*
X250009Y109666D01*
X250013Y109590D01*
Y109586D01*
Y109579D01*
Y109564D01*
X250009Y109546D01*
Y109521D01*
X250006Y109495D01*
X249991Y109433D01*
X249969Y109361D01*
X249940Y109284D01*
X249896Y109208D01*
X249867Y109171D01*
X249838Y109135D01*
X249835Y109131D01*
X249831Y109127D01*
X249820Y109117D01*
X249805Y109106D01*
X249787Y109091D01*
X249765Y109077D01*
X249736Y109058D01*
X249707Y109037D01*
X249671Y109018D01*
X249631Y109000D01*
X249587Y108978D01*
X249540Y108960D01*
X249485Y108946D01*
X249430Y108927D01*
X249369Y108916D01*
X249303Y108905D01*
X249310Y108902D01*
X249325Y108895D01*
X249347Y108880D01*
X249376Y108865D01*
X249441Y108825D01*
X249474Y108800D01*
X249503Y108778D01*
X249511Y108771D01*
X249529Y108753D01*
X249558Y108723D01*
X249594Y108687D01*
X249634Y108636D01*
X249682Y108581D01*
X249729Y108516D01*
X249780Y108443D01*
X250213Y107759D01*
X249798D01*
X249467Y108283D01*
Y108287D01*
X249460Y108294D01*
X249452Y108305D01*
X249441Y108319D01*
X249416Y108360D01*
X249383Y108410D01*
X249343Y108465D01*
X249303Y108523D01*
X249263Y108578D01*
X249227Y108629D01*
X249223Y108633D01*
X249212Y108647D01*
X249194Y108669D01*
X249168Y108694D01*
X249114Y108749D01*
X249085Y108774D01*
X249056Y108796D01*
X249052Y108800D01*
X249045Y108804D01*
X249030Y108811D01*
X249008Y108822D01*
X248986Y108833D01*
X248961Y108844D01*
X248903Y108862D01*
X248899D01*
X248892Y108865D01*
X248877D01*
X248859Y108869D01*
X248834Y108873D01*
X248804D01*
X248764Y108876D01*
X248335D01*
Y107759D01*
X248000D01*
Y110278D01*
X249168D01*
X249198Y110274D01*
D02*
G37*
G36*
X251276Y122329D02*
X251323Y122321D01*
X251382Y122310D01*
X251447Y122292D01*
X251513Y122271D01*
X251578Y122241D01*
X251582D01*
X251585Y122238D01*
X251607Y122227D01*
X251640Y122205D01*
X251676Y122179D01*
X251720Y122143D01*
X251764Y122103D01*
X251807Y122056D01*
X251844Y122001D01*
X251848Y121994D01*
X251858Y121976D01*
X251873Y121943D01*
X251891Y121903D01*
X251909Y121855D01*
X251924Y121801D01*
X251935Y121739D01*
X251939Y121677D01*
Y121670D01*
Y121648D01*
X251935Y121619D01*
X251928Y121579D01*
X251917Y121532D01*
X251898Y121481D01*
X251877Y121430D01*
X251848Y121379D01*
X251844Y121371D01*
X251833Y121357D01*
X251811Y121331D01*
X251782Y121302D01*
X251746Y121270D01*
X251702Y121233D01*
X251651Y121200D01*
X251589Y121168D01*
X251593D01*
X251600Y121164D01*
X251611Y121160D01*
X251625Y121157D01*
X251665Y121142D01*
X251716Y121120D01*
X251775Y121091D01*
X251833Y121055D01*
X251887Y121007D01*
X251939Y120953D01*
X251942Y120946D01*
X251957Y120924D01*
X251978Y120887D01*
X252000Y120840D01*
X252022Y120782D01*
X252044Y120713D01*
X252059Y120633D01*
X252062Y120545D01*
Y120542D01*
Y120531D01*
Y120512D01*
X252059Y120491D01*
X252055Y120461D01*
X252048Y120429D01*
X252040Y120392D01*
X252033Y120352D01*
X252004Y120265D01*
X251982Y120218D01*
X251960Y120174D01*
X251931Y120126D01*
X251898Y120079D01*
X251862Y120032D01*
X251818Y119988D01*
X251815Y119985D01*
X251807Y119977D01*
X251793Y119966D01*
X251775Y119952D01*
X251753Y119934D01*
X251724Y119915D01*
X251691Y119894D01*
X251651Y119875D01*
X251611Y119853D01*
X251564Y119832D01*
X251516Y119814D01*
X251462Y119795D01*
X251403Y119781D01*
X251342Y119770D01*
X251280Y119763D01*
X251210Y119759D01*
X251178D01*
X251156Y119763D01*
X251127Y119766D01*
X251094Y119770D01*
X251058Y119777D01*
X251018Y119784D01*
X250930Y119806D01*
X250839Y119843D01*
X250792Y119864D01*
X250748Y119890D01*
X250705Y119923D01*
X250661Y119955D01*
X250657Y119959D01*
X250650Y119966D01*
X250639Y119977D01*
X250628Y119992D01*
X250610Y120010D01*
X250592Y120036D01*
X250570Y120061D01*
X250548Y120094D01*
X250526Y120130D01*
X250504Y120167D01*
X250464Y120254D01*
X250431Y120356D01*
X250421Y120410D01*
X250413Y120469D01*
X250723Y120509D01*
Y120505D01*
X250726Y120498D01*
X250730Y120483D01*
X250734Y120465D01*
X250737Y120443D01*
X250745Y120418D01*
X250763Y120363D01*
X250788Y120298D01*
X250821Y120236D01*
X250857Y120177D01*
X250901Y120126D01*
X250908Y120123D01*
X250923Y120108D01*
X250952Y120090D01*
X250988Y120072D01*
X251032Y120050D01*
X251087Y120032D01*
X251149Y120017D01*
X251214Y120014D01*
X251236D01*
X251251Y120017D01*
X251291Y120021D01*
X251342Y120032D01*
X251400Y120050D01*
X251462Y120076D01*
X251523Y120112D01*
X251582Y120163D01*
X251589Y120170D01*
X251607Y120192D01*
X251629Y120225D01*
X251658Y120268D01*
X251687Y120323D01*
X251709Y120385D01*
X251727Y120458D01*
X251735Y120538D01*
Y120542D01*
Y120549D01*
Y120560D01*
X251731Y120574D01*
X251727Y120614D01*
X251716Y120662D01*
X251702Y120720D01*
X251676Y120778D01*
X251640Y120836D01*
X251593Y120891D01*
X251585Y120898D01*
X251567Y120913D01*
X251538Y120935D01*
X251498Y120960D01*
X251447Y120986D01*
X251385Y121007D01*
X251316Y121022D01*
X251240Y121029D01*
X251207D01*
X251181Y121026D01*
X251149Y121022D01*
X251112Y121015D01*
X251068Y121007D01*
X251021Y120996D01*
X251058Y121270D01*
X251076D01*
X251090Y121266D01*
X251138D01*
X251178Y121273D01*
X251225Y121280D01*
X251280Y121291D01*
X251342Y121309D01*
X251400Y121335D01*
X251462Y121368D01*
X251465D01*
X251469Y121371D01*
X251487Y121386D01*
X251513Y121411D01*
X251542Y121444D01*
X251571Y121492D01*
X251596Y121546D01*
X251614Y121608D01*
X251622Y121644D01*
Y121684D01*
Y121688D01*
Y121692D01*
Y121714D01*
X251614Y121743D01*
X251607Y121783D01*
X251593Y121826D01*
X251574Y121874D01*
X251545Y121921D01*
X251505Y121965D01*
X251502Y121968D01*
X251483Y121983D01*
X251458Y122001D01*
X251425Y122023D01*
X251382Y122041D01*
X251331Y122059D01*
X251272Y122074D01*
X251207Y122078D01*
X251178D01*
X251145Y122070D01*
X251101Y122063D01*
X251054Y122048D01*
X251007Y122030D01*
X250956Y122001D01*
X250908Y121965D01*
X250905Y121961D01*
X250890Y121943D01*
X250868Y121917D01*
X250843Y121881D01*
X250817Y121834D01*
X250792Y121775D01*
X250770Y121706D01*
X250756Y121626D01*
X250446Y121681D01*
Y121684D01*
X250450Y121695D01*
X250453Y121710D01*
X250457Y121732D01*
X250464Y121757D01*
X250475Y121786D01*
X250497Y121855D01*
X250533Y121936D01*
X250577Y122016D01*
X250632Y122092D01*
X250701Y122161D01*
X250705Y122165D01*
X250712Y122169D01*
X250723Y122176D01*
X250737Y122187D01*
X250756Y122201D01*
X250781Y122216D01*
X250806Y122230D01*
X250839Y122249D01*
X250912Y122278D01*
X250996Y122307D01*
X251094Y122325D01*
X251145Y122332D01*
X251236D01*
X251276Y122329D01*
D02*
G37*
G36*
X249198Y122318D02*
X249230D01*
X249307Y122314D01*
X249387Y122303D01*
X249474Y122292D01*
X249554Y122274D01*
X249594Y122263D01*
X249627Y122252D01*
X249631D01*
X249634Y122249D01*
X249656Y122238D01*
X249689Y122223D01*
X249729Y122198D01*
X249773Y122165D01*
X249820Y122121D01*
X249864Y122070D01*
X249907Y122012D01*
Y122008D01*
X249911Y122005D01*
X249926Y121983D01*
X249940Y121947D01*
X249962Y121899D01*
X249980Y121845D01*
X249998Y121779D01*
X250009Y121710D01*
X250013Y121634D01*
Y121630D01*
Y121623D01*
Y121608D01*
X250009Y121590D01*
Y121564D01*
X250006Y121539D01*
X249991Y121477D01*
X249969Y121404D01*
X249940Y121328D01*
X249896Y121251D01*
X249867Y121215D01*
X249838Y121178D01*
X249835Y121175D01*
X249831Y121171D01*
X249820Y121160D01*
X249805Y121149D01*
X249787Y121135D01*
X249765Y121120D01*
X249736Y121102D01*
X249707Y121080D01*
X249671Y121062D01*
X249631Y121044D01*
X249587Y121022D01*
X249540Y121004D01*
X249485Y120989D01*
X249430Y120971D01*
X249369Y120960D01*
X249303Y120949D01*
X249310Y120946D01*
X249325Y120938D01*
X249347Y120924D01*
X249376Y120909D01*
X249441Y120869D01*
X249474Y120844D01*
X249503Y120822D01*
X249511Y120815D01*
X249529Y120796D01*
X249558Y120767D01*
X249594Y120731D01*
X249634Y120680D01*
X249682Y120625D01*
X249729Y120560D01*
X249780Y120487D01*
X250213Y119803D01*
X249798D01*
X249467Y120327D01*
Y120330D01*
X249460Y120338D01*
X249452Y120349D01*
X249441Y120363D01*
X249416Y120403D01*
X249383Y120454D01*
X249343Y120509D01*
X249303Y120567D01*
X249263Y120622D01*
X249227Y120673D01*
X249223Y120676D01*
X249212Y120691D01*
X249194Y120713D01*
X249168Y120738D01*
X249114Y120793D01*
X249085Y120818D01*
X249056Y120840D01*
X249052Y120844D01*
X249045Y120847D01*
X249030Y120854D01*
X249008Y120865D01*
X248986Y120876D01*
X248961Y120887D01*
X248903Y120905D01*
X248899D01*
X248892Y120909D01*
X248877D01*
X248859Y120913D01*
X248834Y120916D01*
X248804D01*
X248764Y120920D01*
X248335D01*
Y119803D01*
X248000D01*
Y122321D01*
X249168D01*
X249198Y122318D01*
D02*
G37*
G36*
X251894Y132647D02*
X252236D01*
Y132363D01*
X251894D01*
Y131759D01*
X251585D01*
Y132363D01*
X250489D01*
Y132647D01*
X251643Y134278D01*
X251894D01*
Y132647D01*
D02*
G37*
G36*
X249383Y134274D02*
X249415D01*
X249492Y134271D01*
X249572Y134260D01*
X249659Y134249D01*
X249739Y134230D01*
X249779Y134220D01*
X249812Y134209D01*
X249816D01*
X249819Y134205D01*
X249841Y134194D01*
X249874Y134179D01*
X249914Y134154D01*
X249958Y134121D01*
X250005Y134078D01*
X250049Y134027D01*
X250092Y133968D01*
Y133965D01*
X250096Y133961D01*
X250111Y133939D01*
X250125Y133903D01*
X250147Y133855D01*
X250165Y133801D01*
X250183Y133735D01*
X250194Y133666D01*
X250198Y133590D01*
Y133586D01*
Y133579D01*
Y133564D01*
X250194Y133546D01*
Y133521D01*
X250191Y133495D01*
X250176Y133433D01*
X250154Y133361D01*
X250125Y133284D01*
X250081Y133208D01*
X250052Y133171D01*
X250023Y133135D01*
X250020Y133131D01*
X250016Y133127D01*
X250005Y133117D01*
X249991Y133106D01*
X249972Y133091D01*
X249950Y133077D01*
X249921Y133058D01*
X249892Y133036D01*
X249856Y133018D01*
X249816Y133000D01*
X249772Y132978D01*
X249725Y132960D01*
X249670Y132946D01*
X249616Y132927D01*
X249554Y132916D01*
X249488Y132905D01*
X249495Y132902D01*
X249510Y132895D01*
X249532Y132880D01*
X249561Y132865D01*
X249626Y132825D01*
X249659Y132800D01*
X249688Y132778D01*
X249696Y132771D01*
X249714Y132753D01*
X249743Y132723D01*
X249779Y132687D01*
X249819Y132636D01*
X249867Y132581D01*
X249914Y132516D01*
X249965Y132443D01*
X250398Y131759D01*
X249983D01*
X249652Y132283D01*
Y132287D01*
X249645Y132294D01*
X249637Y132305D01*
X249626Y132319D01*
X249601Y132360D01*
X249568Y132410D01*
X249528Y132465D01*
X249488Y132523D01*
X249448Y132578D01*
X249412Y132629D01*
X249408Y132633D01*
X249397Y132647D01*
X249379Y132669D01*
X249354Y132694D01*
X249299Y132749D01*
X249270Y132774D01*
X249241Y132796D01*
X249237Y132800D01*
X249230Y132804D01*
X249215Y132811D01*
X249193Y132822D01*
X249171Y132833D01*
X249146Y132844D01*
X249088Y132862D01*
X249084D01*
X249077Y132865D01*
X249062D01*
X249044Y132869D01*
X249019Y132873D01*
X248990D01*
X248949Y132876D01*
X248520D01*
Y131759D01*
X248185D01*
Y134278D01*
X249354D01*
X249383Y134274D01*
D02*
G37*
G36*
X16887Y57496D02*
X16923D01*
X16960Y57493D01*
X17007Y57489D01*
X17054Y57482D01*
X17160Y57464D01*
X17276Y57438D01*
X17393Y57402D01*
X17506Y57351D01*
X17509Y57347D01*
X17520Y57344D01*
X17535Y57336D01*
X17553Y57322D01*
X17578Y57307D01*
X17607Y57289D01*
X17673Y57242D01*
X17746Y57180D01*
X17819Y57107D01*
X17891Y57023D01*
X17953Y56925D01*
X17957Y56921D01*
X17961Y56910D01*
X17968Y56896D01*
X17979Y56878D01*
X17990Y56849D01*
X18001Y56819D01*
X18015Y56783D01*
X18030Y56743D01*
X18044Y56699D01*
X18059Y56652D01*
X18081Y56550D01*
X18099Y56433D01*
X18106Y56313D01*
Y56277D01*
X18102Y56252D01*
X18099Y56219D01*
X18095Y56179D01*
X18092Y56139D01*
X18081Y56091D01*
X18059Y55993D01*
X18026Y55884D01*
X18004Y55829D01*
X17979Y55778D01*
X17946Y55727D01*
X17913Y55676D01*
X17910Y55673D01*
X17906Y55665D01*
X17895Y55651D01*
X17877Y55633D01*
X17859Y55615D01*
X17833Y55589D01*
X17804Y55563D01*
X17775Y55534D01*
X17739Y55505D01*
X17695Y55476D01*
X17651Y55443D01*
X17604Y55414D01*
X17549Y55389D01*
X17495Y55360D01*
X17436Y55338D01*
X17371Y55316D01*
X17294Y55644D01*
X17298D01*
X17305Y55647D01*
X17320Y55655D01*
X17338Y55662D01*
X17360Y55669D01*
X17389Y55680D01*
X17447Y55709D01*
X17513Y55746D01*
X17578Y55789D01*
X17640Y55844D01*
X17695Y55902D01*
X17702Y55909D01*
X17717Y55931D01*
X17735Y55968D01*
X17760Y56015D01*
X17782Y56077D01*
X17804Y56146D01*
X17819Y56230D01*
X17822Y56321D01*
Y56350D01*
X17819Y56368D01*
Y56393D01*
X17815Y56423D01*
X17804Y56492D01*
X17789Y56568D01*
X17764Y56648D01*
X17728Y56732D01*
X17680Y56808D01*
Y56812D01*
X17673Y56816D01*
X17655Y56841D01*
X17626Y56874D01*
X17582Y56914D01*
X17527Y56961D01*
X17466Y57005D01*
X17389Y57045D01*
X17305Y57081D01*
X17302D01*
X17294Y57085D01*
X17284Y57089D01*
X17265Y57092D01*
X17244Y57100D01*
X17218Y57107D01*
X17156Y57118D01*
X17083Y57132D01*
X17003Y57147D01*
X16916Y57154D01*
X16821Y57158D01*
X16818D01*
X16807D01*
X16789D01*
X16767D01*
X16741Y57154D01*
X16708D01*
X16672Y57151D01*
X16632Y57147D01*
X16545Y57136D01*
X16450Y57118D01*
X16355Y57096D01*
X16261Y57067D01*
X16257D01*
X16250Y57063D01*
X16239Y57056D01*
X16221Y57049D01*
X16177Y57027D01*
X16126Y56994D01*
X16068Y56954D01*
X16006Y56903D01*
X15951Y56845D01*
X15900Y56776D01*
Y56772D01*
X15897Y56765D01*
X15889Y56754D01*
X15882Y56739D01*
X15875Y56721D01*
X15864Y56699D01*
X15842Y56648D01*
X15820Y56583D01*
X15802Y56510D01*
X15788Y56430D01*
X15784Y56346D01*
Y56321D01*
X15788Y56299D01*
Y56273D01*
X15791Y56248D01*
X15806Y56182D01*
X15824Y56106D01*
X15853Y56029D01*
X15893Y55949D01*
X15915Y55909D01*
X15944Y55873D01*
X15948Y55869D01*
X15951Y55866D01*
X15962Y55855D01*
X15973Y55840D01*
X15991Y55826D01*
X16013Y55807D01*
X16035Y55786D01*
X16064Y55767D01*
X16097Y55746D01*
X16133Y55720D01*
X16170Y55698D01*
X16213Y55676D01*
X16261Y55658D01*
X16312Y55640D01*
X16366Y55622D01*
X16424Y55607D01*
X16341Y55272D01*
X16337D01*
X16323Y55276D01*
X16301Y55283D01*
X16272Y55294D01*
X16239Y55305D01*
X16199Y55320D01*
X16155Y55338D01*
X16108Y55360D01*
X16006Y55411D01*
X15904Y55476D01*
X15853Y55516D01*
X15802Y55556D01*
X15758Y55600D01*
X15715Y55651D01*
X15711Y55655D01*
X15704Y55662D01*
X15697Y55680D01*
X15682Y55698D01*
X15664Y55727D01*
X15646Y55756D01*
X15627Y55796D01*
X15609Y55836D01*
X15587Y55884D01*
X15569Y55935D01*
X15551Y55989D01*
X15533Y56048D01*
X15518Y56110D01*
X15511Y56175D01*
X15504Y56244D01*
X15500Y56317D01*
Y56357D01*
X15504Y56386D01*
Y56419D01*
X15507Y56459D01*
X15515Y56503D01*
X15522Y56554D01*
X15540Y56659D01*
X15569Y56768D01*
X15609Y56878D01*
X15635Y56928D01*
X15664Y56980D01*
X15667Y56983D01*
X15671Y56990D01*
X15682Y57005D01*
X15697Y57020D01*
X15711Y57041D01*
X15733Y57067D01*
X15758Y57096D01*
X15788Y57125D01*
X15820Y57154D01*
X15853Y57187D01*
X15937Y57253D01*
X16035Y57314D01*
X16144Y57369D01*
X16148D01*
X16159Y57376D01*
X16177Y57380D01*
X16199Y57391D01*
X16228Y57398D01*
X16264Y57409D01*
X16304Y57424D01*
X16348Y57434D01*
X16395Y57445D01*
X16450Y57460D01*
X16563Y57478D01*
X16690Y57493D01*
X16821Y57500D01*
X16825D01*
X16839D01*
X16861D01*
X16887Y57496D01*
D02*
G37*
G36*
X18063Y54541D02*
X15842D01*
Y53299D01*
X15544D01*
Y54876D01*
X18063D01*
Y54541D01*
D02*
G37*
G36*
Y52582D02*
X16810D01*
X18063Y51337D01*
Y50883D01*
X17040Y51938D01*
X15544Y50835D01*
Y51276D01*
X16814Y52171D01*
X16417Y52582D01*
X15544D01*
Y52917D01*
X18063D01*
Y52582D01*
D02*
G37*
G36*
X16249Y95603D02*
X16281Y95599D01*
X16321Y95595D01*
X16361Y95592D01*
X16409Y95581D01*
X16507Y95559D01*
X16616Y95526D01*
X16671Y95504D01*
X16722Y95479D01*
X16773Y95446D01*
X16824Y95413D01*
X16827Y95410D01*
X16835Y95406D01*
X16849Y95395D01*
X16867Y95377D01*
X16885Y95359D01*
X16911Y95333D01*
X16936Y95304D01*
X16965Y95275D01*
X16995Y95239D01*
X17024Y95195D01*
X17056Y95151D01*
X17086Y95104D01*
X17111Y95049D01*
X17140Y94995D01*
X17162Y94936D01*
X17184Y94871D01*
X16856Y94794D01*
Y94798D01*
X16853Y94805D01*
X16845Y94820D01*
X16838Y94838D01*
X16831Y94860D01*
X16820Y94889D01*
X16791Y94947D01*
X16754Y95013D01*
X16711Y95078D01*
X16656Y95140D01*
X16598Y95195D01*
X16591Y95202D01*
X16569Y95217D01*
X16532Y95235D01*
X16485Y95260D01*
X16423Y95282D01*
X16354Y95304D01*
X16270Y95319D01*
X16179Y95322D01*
X16150D01*
X16132Y95319D01*
X16106D01*
X16077Y95315D01*
X16008Y95304D01*
X15932Y95289D01*
X15852Y95264D01*
X15768Y95228D01*
X15692Y95180D01*
X15688D01*
X15684Y95173D01*
X15659Y95155D01*
X15626Y95126D01*
X15586Y95082D01*
X15539Y95027D01*
X15495Y94965D01*
X15455Y94889D01*
X15418Y94805D01*
Y94802D01*
X15415Y94794D01*
X15411Y94784D01*
X15408Y94765D01*
X15400Y94744D01*
X15393Y94718D01*
X15382Y94656D01*
X15368Y94583D01*
X15353Y94503D01*
X15346Y94416D01*
X15342Y94321D01*
Y94318D01*
Y94307D01*
Y94288D01*
Y94267D01*
X15346Y94241D01*
Y94208D01*
X15349Y94172D01*
X15353Y94132D01*
X15364Y94045D01*
X15382Y93950D01*
X15404Y93855D01*
X15433Y93761D01*
Y93757D01*
X15437Y93750D01*
X15444Y93739D01*
X15451Y93721D01*
X15473Y93677D01*
X15506Y93626D01*
X15546Y93568D01*
X15597Y93506D01*
X15655Y93451D01*
X15724Y93400D01*
X15728D01*
X15735Y93397D01*
X15746Y93389D01*
X15761Y93382D01*
X15779Y93375D01*
X15801Y93364D01*
X15852Y93342D01*
X15917Y93320D01*
X15990Y93302D01*
X16070Y93287D01*
X16154Y93284D01*
X16179D01*
X16201Y93287D01*
X16227D01*
X16252Y93291D01*
X16318Y93306D01*
X16394Y93324D01*
X16470Y93353D01*
X16551Y93393D01*
X16591Y93415D01*
X16627Y93444D01*
X16631Y93448D01*
X16634Y93451D01*
X16645Y93462D01*
X16660Y93473D01*
X16674Y93491D01*
X16692Y93513D01*
X16714Y93535D01*
X16733Y93564D01*
X16754Y93597D01*
X16780Y93633D01*
X16802Y93670D01*
X16824Y93713D01*
X16842Y93761D01*
X16860Y93812D01*
X16878Y93866D01*
X16893Y93924D01*
X17228Y93841D01*
Y93837D01*
X17224Y93823D01*
X17217Y93801D01*
X17206Y93772D01*
X17195Y93739D01*
X17180Y93699D01*
X17162Y93655D01*
X17140Y93608D01*
X17089Y93506D01*
X17024Y93404D01*
X16984Y93353D01*
X16944Y93302D01*
X16900Y93258D01*
X16849Y93215D01*
X16845Y93211D01*
X16838Y93204D01*
X16820Y93196D01*
X16802Y93182D01*
X16773Y93164D01*
X16744Y93146D01*
X16703Y93127D01*
X16663Y93109D01*
X16616Y93087D01*
X16565Y93069D01*
X16511Y93051D01*
X16452Y93033D01*
X16390Y93018D01*
X16325Y93011D01*
X16256Y93004D01*
X16183Y93000D01*
X16143D01*
X16114Y93004D01*
X16081D01*
X16041Y93007D01*
X15997Y93015D01*
X15946Y93022D01*
X15841Y93040D01*
X15732Y93069D01*
X15622Y93109D01*
X15571Y93135D01*
X15520Y93164D01*
X15517Y93167D01*
X15509Y93171D01*
X15495Y93182D01*
X15480Y93196D01*
X15459Y93211D01*
X15433Y93233D01*
X15404Y93258D01*
X15375Y93287D01*
X15346Y93320D01*
X15313Y93353D01*
X15247Y93437D01*
X15186Y93535D01*
X15131Y93644D01*
Y93648D01*
X15124Y93659D01*
X15120Y93677D01*
X15109Y93699D01*
X15102Y93728D01*
X15091Y93764D01*
X15076Y93804D01*
X15066Y93848D01*
X15055Y93895D01*
X15040Y93950D01*
X15022Y94063D01*
X15007Y94190D01*
X15000Y94321D01*
Y94325D01*
Y94340D01*
Y94361D01*
X15004Y94387D01*
Y94423D01*
X15007Y94460D01*
X15011Y94507D01*
X15018Y94554D01*
X15036Y94660D01*
X15062Y94776D01*
X15098Y94893D01*
X15149Y95006D01*
X15153Y95009D01*
X15157Y95020D01*
X15164Y95035D01*
X15178Y95053D01*
X15193Y95078D01*
X15211Y95108D01*
X15258Y95173D01*
X15320Y95246D01*
X15393Y95319D01*
X15477Y95391D01*
X15575Y95453D01*
X15579Y95457D01*
X15590Y95461D01*
X15604Y95468D01*
X15622Y95479D01*
X15652Y95490D01*
X15681Y95501D01*
X15717Y95515D01*
X15757Y95530D01*
X15801Y95544D01*
X15848Y95559D01*
X15950Y95581D01*
X16067Y95599D01*
X16187Y95606D01*
X16223D01*
X16249Y95603D01*
D02*
G37*
G36*
X18378Y95570D02*
X18425Y95562D01*
X18483Y95552D01*
X18549Y95533D01*
X18614Y95512D01*
X18680Y95482D01*
X18684D01*
X18687Y95479D01*
X18709Y95468D01*
X18742Y95446D01*
X18778Y95421D01*
X18822Y95384D01*
X18866Y95344D01*
X18909Y95297D01*
X18946Y95242D01*
X18949Y95235D01*
X18960Y95217D01*
X18975Y95184D01*
X18993Y95144D01*
X19011Y95097D01*
X19026Y95042D01*
X19037Y94980D01*
X19040Y94918D01*
Y94911D01*
Y94889D01*
X19037Y94860D01*
X19029Y94820D01*
X19018Y94773D01*
X19000Y94722D01*
X18979Y94671D01*
X18949Y94620D01*
X18946Y94612D01*
X18935Y94598D01*
X18913Y94572D01*
X18884Y94543D01*
X18847Y94511D01*
X18804Y94474D01*
X18753Y94441D01*
X18691Y94409D01*
X18695D01*
X18702Y94405D01*
X18713Y94401D01*
X18727Y94398D01*
X18767Y94383D01*
X18818Y94361D01*
X18877Y94332D01*
X18935Y94296D01*
X18989Y94248D01*
X19040Y94194D01*
X19044Y94187D01*
X19059Y94165D01*
X19080Y94128D01*
X19102Y94081D01*
X19124Y94023D01*
X19146Y93954D01*
X19161Y93874D01*
X19164Y93786D01*
Y93783D01*
Y93772D01*
Y93753D01*
X19161Y93732D01*
X19157Y93703D01*
X19150Y93670D01*
X19142Y93633D01*
X19135Y93593D01*
X19106Y93506D01*
X19084Y93459D01*
X19062Y93415D01*
X19033Y93368D01*
X19000Y93320D01*
X18964Y93273D01*
X18920Y93229D01*
X18917Y93226D01*
X18909Y93218D01*
X18895Y93207D01*
X18877Y93193D01*
X18855Y93175D01*
X18826Y93156D01*
X18793Y93135D01*
X18753Y93116D01*
X18713Y93095D01*
X18665Y93073D01*
X18618Y93054D01*
X18564Y93036D01*
X18505Y93022D01*
X18443Y93011D01*
X18382Y93004D01*
X18312Y93000D01*
X18280D01*
X18258Y93004D01*
X18229Y93007D01*
X18196Y93011D01*
X18159Y93018D01*
X18119Y93025D01*
X18032Y93047D01*
X17941Y93084D01*
X17894Y93106D01*
X17850Y93131D01*
X17806Y93164D01*
X17763Y93196D01*
X17759Y93200D01*
X17752Y93207D01*
X17741Y93218D01*
X17730Y93233D01*
X17712Y93251D01*
X17694Y93277D01*
X17672Y93302D01*
X17650Y93335D01*
X17628Y93371D01*
X17606Y93408D01*
X17566Y93495D01*
X17533Y93597D01*
X17523Y93651D01*
X17515Y93710D01*
X17825Y93750D01*
Y93746D01*
X17828Y93739D01*
X17832Y93724D01*
X17835Y93706D01*
X17839Y93684D01*
X17846Y93659D01*
X17865Y93604D01*
X17890Y93539D01*
X17923Y93477D01*
X17959Y93419D01*
X18003Y93368D01*
X18010Y93364D01*
X18025Y93349D01*
X18054Y93331D01*
X18090Y93313D01*
X18134Y93291D01*
X18189Y93273D01*
X18250Y93258D01*
X18316Y93255D01*
X18338D01*
X18352Y93258D01*
X18392Y93262D01*
X18443Y93273D01*
X18502Y93291D01*
X18564Y93317D01*
X18625Y93353D01*
X18684Y93404D01*
X18691Y93411D01*
X18709Y93433D01*
X18731Y93466D01*
X18760Y93510D01*
X18789Y93564D01*
X18811Y93626D01*
X18829Y93699D01*
X18836Y93779D01*
Y93783D01*
Y93790D01*
Y93801D01*
X18833Y93815D01*
X18829Y93855D01*
X18818Y93903D01*
X18804Y93961D01*
X18778Y94019D01*
X18742Y94077D01*
X18695Y94132D01*
X18687Y94139D01*
X18669Y94154D01*
X18640Y94176D01*
X18600Y94201D01*
X18549Y94227D01*
X18487Y94248D01*
X18418Y94263D01*
X18341Y94270D01*
X18309D01*
X18283Y94267D01*
X18250Y94263D01*
X18214Y94256D01*
X18170Y94248D01*
X18123Y94238D01*
X18159Y94511D01*
X18178D01*
X18192Y94507D01*
X18239D01*
X18280Y94514D01*
X18327Y94521D01*
X18382Y94532D01*
X18443Y94551D01*
X18502Y94576D01*
X18564Y94609D01*
X18567D01*
X18571Y94612D01*
X18589Y94627D01*
X18614Y94652D01*
X18644Y94685D01*
X18673Y94733D01*
X18698Y94787D01*
X18716Y94849D01*
X18724Y94885D01*
Y94925D01*
Y94929D01*
Y94933D01*
Y94955D01*
X18716Y94984D01*
X18709Y95024D01*
X18695Y95068D01*
X18676Y95115D01*
X18647Y95162D01*
X18607Y95206D01*
X18604Y95209D01*
X18585Y95224D01*
X18560Y95242D01*
X18527Y95264D01*
X18483Y95282D01*
X18432Y95300D01*
X18374Y95315D01*
X18309Y95319D01*
X18280D01*
X18247Y95311D01*
X18203Y95304D01*
X18156Y95289D01*
X18109Y95271D01*
X18058Y95242D01*
X18010Y95206D01*
X18007Y95202D01*
X17992Y95184D01*
X17970Y95158D01*
X17945Y95122D01*
X17919Y95075D01*
X17894Y95016D01*
X17872Y94947D01*
X17857Y94867D01*
X17548Y94922D01*
Y94925D01*
X17552Y94936D01*
X17555Y94951D01*
X17559Y94973D01*
X17566Y94998D01*
X17577Y95027D01*
X17599Y95097D01*
X17635Y95177D01*
X17679Y95257D01*
X17734Y95333D01*
X17803Y95402D01*
X17806Y95406D01*
X17814Y95410D01*
X17825Y95417D01*
X17839Y95428D01*
X17857Y95442D01*
X17883Y95457D01*
X17908Y95472D01*
X17941Y95490D01*
X18014Y95519D01*
X18098Y95548D01*
X18196Y95566D01*
X18247Y95573D01*
X18338D01*
X18378Y95570D01*
D02*
G37*
G36*
X36456Y60867D02*
X34487D01*
X34491Y60863D01*
X34505Y60845D01*
X34527Y60823D01*
X34553Y60787D01*
X34585Y60747D01*
X34622Y60696D01*
X34662Y60638D01*
X34702Y60572D01*
Y60568D01*
X34705Y60565D01*
X34720Y60543D01*
X34738Y60507D01*
X34760Y60463D01*
X34786Y60412D01*
X34811Y60357D01*
X34837Y60303D01*
X34858Y60248D01*
X34560D01*
Y60252D01*
X34553Y60259D01*
X34549Y60274D01*
X34538Y60292D01*
X34527Y60314D01*
X34513Y60339D01*
X34476Y60401D01*
X34436Y60474D01*
X34385Y60547D01*
X34327Y60623D01*
X34265Y60699D01*
X34261Y60703D01*
X34258Y60707D01*
X34247Y60718D01*
X34236Y60732D01*
X34200Y60765D01*
X34156Y60809D01*
X34105Y60852D01*
X34047Y60900D01*
X33988Y60940D01*
X33926Y60976D01*
Y61176D01*
X36456D01*
Y60867D01*
D02*
G37*
G36*
X35677Y59724D02*
X35699Y59717D01*
X35728Y59706D01*
X35761Y59695D01*
X35801Y59680D01*
X35845Y59662D01*
X35892Y59640D01*
X35994Y59589D01*
X36096Y59524D01*
X36147Y59484D01*
X36198Y59444D01*
X36242Y59400D01*
X36285Y59349D01*
X36289Y59345D01*
X36296Y59338D01*
X36303Y59320D01*
X36318Y59302D01*
X36336Y59273D01*
X36354Y59244D01*
X36373Y59203D01*
X36391Y59163D01*
X36413Y59116D01*
X36431Y59065D01*
X36449Y59011D01*
X36467Y58952D01*
X36482Y58890D01*
X36489Y58825D01*
X36496Y58756D01*
X36500Y58683D01*
Y58643D01*
X36496Y58614D01*
Y58581D01*
X36493Y58541D01*
X36485Y58497D01*
X36478Y58446D01*
X36460Y58341D01*
X36431Y58232D01*
X36391Y58122D01*
X36365Y58071D01*
X36336Y58021D01*
X36333Y58017D01*
X36329Y58010D01*
X36318Y57995D01*
X36303Y57980D01*
X36289Y57959D01*
X36267Y57933D01*
X36242Y57904D01*
X36213Y57875D01*
X36180Y57846D01*
X36147Y57813D01*
X36063Y57748D01*
X35965Y57686D01*
X35856Y57631D01*
X35852D01*
X35841Y57624D01*
X35823Y57620D01*
X35801Y57609D01*
X35772Y57602D01*
X35736Y57591D01*
X35696Y57576D01*
X35652Y57565D01*
X35605Y57555D01*
X35550Y57540D01*
X35437Y57522D01*
X35310Y57507D01*
X35179Y57500D01*
X35175D01*
X35160D01*
X35139D01*
X35113Y57504D01*
X35077D01*
X35040Y57507D01*
X34993Y57511D01*
X34946Y57518D01*
X34840Y57536D01*
X34724Y57562D01*
X34607Y57598D01*
X34494Y57649D01*
X34491Y57653D01*
X34480Y57657D01*
X34465Y57664D01*
X34447Y57678D01*
X34422Y57693D01*
X34392Y57711D01*
X34327Y57758D01*
X34254Y57820D01*
X34181Y57893D01*
X34109Y57977D01*
X34047Y58075D01*
X34043Y58079D01*
X34039Y58090D01*
X34032Y58104D01*
X34021Y58122D01*
X34010Y58152D01*
X33999Y58181D01*
X33985Y58217D01*
X33970Y58257D01*
X33956Y58301D01*
X33941Y58348D01*
X33919Y58450D01*
X33901Y58566D01*
X33894Y58687D01*
Y58723D01*
X33897Y58749D01*
X33901Y58781D01*
X33905Y58821D01*
X33908Y58861D01*
X33919Y58909D01*
X33941Y59007D01*
X33974Y59116D01*
X33996Y59171D01*
X34021Y59222D01*
X34054Y59273D01*
X34087Y59324D01*
X34090Y59327D01*
X34094Y59334D01*
X34105Y59349D01*
X34123Y59367D01*
X34141Y59386D01*
X34167Y59411D01*
X34196Y59436D01*
X34225Y59465D01*
X34261Y59495D01*
X34305Y59524D01*
X34349Y59557D01*
X34396Y59586D01*
X34451Y59611D01*
X34505Y59640D01*
X34563Y59662D01*
X34629Y59684D01*
X34705Y59356D01*
X34702D01*
X34695Y59353D01*
X34680Y59345D01*
X34662Y59338D01*
X34640Y59331D01*
X34611Y59320D01*
X34553Y59291D01*
X34487Y59254D01*
X34422Y59211D01*
X34360Y59156D01*
X34305Y59098D01*
X34298Y59091D01*
X34283Y59069D01*
X34265Y59032D01*
X34240Y58985D01*
X34218Y58923D01*
X34196Y58854D01*
X34181Y58770D01*
X34178Y58679D01*
Y58650D01*
X34181Y58632D01*
Y58606D01*
X34185Y58577D01*
X34196Y58508D01*
X34211Y58432D01*
X34236Y58352D01*
X34272Y58268D01*
X34320Y58192D01*
Y58188D01*
X34327Y58184D01*
X34345Y58159D01*
X34374Y58126D01*
X34418Y58086D01*
X34473Y58039D01*
X34534Y57995D01*
X34611Y57955D01*
X34695Y57919D01*
X34698D01*
X34705Y57915D01*
X34716Y57911D01*
X34735Y57908D01*
X34756Y57900D01*
X34782Y57893D01*
X34844Y57882D01*
X34917Y57868D01*
X34997Y57853D01*
X35084Y57846D01*
X35179Y57842D01*
X35182D01*
X35193D01*
X35212D01*
X35233D01*
X35259Y57846D01*
X35292D01*
X35328Y57849D01*
X35368Y57853D01*
X35455Y57864D01*
X35550Y57882D01*
X35645Y57904D01*
X35739Y57933D01*
X35743D01*
X35750Y57937D01*
X35761Y57944D01*
X35779Y57951D01*
X35823Y57973D01*
X35874Y58006D01*
X35932Y58046D01*
X35994Y58097D01*
X36049Y58155D01*
X36100Y58224D01*
Y58228D01*
X36103Y58235D01*
X36111Y58246D01*
X36118Y58261D01*
X36125Y58279D01*
X36136Y58301D01*
X36158Y58352D01*
X36180Y58417D01*
X36198Y58490D01*
X36213Y58570D01*
X36216Y58654D01*
Y58679D01*
X36213Y58701D01*
Y58727D01*
X36209Y58752D01*
X36194Y58818D01*
X36176Y58894D01*
X36147Y58970D01*
X36107Y59051D01*
X36085Y59091D01*
X36056Y59127D01*
X36052Y59131D01*
X36049Y59134D01*
X36038Y59145D01*
X36027Y59160D01*
X36009Y59174D01*
X35987Y59193D01*
X35965Y59214D01*
X35936Y59233D01*
X35903Y59254D01*
X35867Y59280D01*
X35830Y59302D01*
X35787Y59324D01*
X35739Y59342D01*
X35688Y59360D01*
X35634Y59378D01*
X35576Y59393D01*
X35659Y59728D01*
X35663D01*
X35677Y59724D01*
D02*
G37*
G36*
X15456Y22310D02*
X15453D01*
X15438D01*
X15416D01*
X15387Y22314D01*
X15354Y22318D01*
X15318Y22325D01*
X15282Y22332D01*
X15242Y22347D01*
X15238D01*
X15234Y22350D01*
X15213Y22358D01*
X15180Y22372D01*
X15136Y22394D01*
X15085Y22423D01*
X15027Y22460D01*
X14969Y22500D01*
X14907Y22551D01*
X14903D01*
X14899Y22558D01*
X14878Y22576D01*
X14845Y22609D01*
X14797Y22656D01*
X14743Y22711D01*
X14677Y22780D01*
X14605Y22864D01*
X14528Y22955D01*
X14525Y22958D01*
X14514Y22973D01*
X14495Y22995D01*
X14474Y23020D01*
X14444Y23053D01*
X14412Y23093D01*
X14375Y23133D01*
X14335Y23180D01*
X14248Y23271D01*
X14161Y23362D01*
X14117Y23406D01*
X14073Y23446D01*
X14033Y23483D01*
X13993Y23512D01*
X13989D01*
X13986Y23519D01*
X13975Y23526D01*
X13960Y23533D01*
X13920Y23559D01*
X13873Y23588D01*
X13815Y23614D01*
X13753Y23639D01*
X13684Y23654D01*
X13618Y23661D01*
X13614D01*
X13611D01*
X13589Y23657D01*
X13553Y23654D01*
X13513Y23643D01*
X13462Y23628D01*
X13411Y23603D01*
X13360Y23570D01*
X13309Y23526D01*
X13302Y23519D01*
X13287Y23501D01*
X13269Y23475D01*
X13243Y23435D01*
X13221Y23384D01*
X13200Y23326D01*
X13185Y23257D01*
X13181Y23180D01*
Y23158D01*
X13185Y23144D01*
X13189Y23100D01*
X13200Y23049D01*
X13214Y22995D01*
X13240Y22933D01*
X13272Y22875D01*
X13316Y22820D01*
X13323Y22813D01*
X13341Y22798D01*
X13371Y22776D01*
X13414Y22754D01*
X13465Y22729D01*
X13531Y22707D01*
X13604Y22693D01*
X13687Y22685D01*
X13655Y22369D01*
X13651D01*
X13640Y22372D01*
X13622D01*
X13596Y22376D01*
X13567Y22383D01*
X13534Y22390D01*
X13494Y22401D01*
X13454Y22412D01*
X13367Y22441D01*
X13280Y22485D01*
X13236Y22511D01*
X13192Y22543D01*
X13152Y22576D01*
X13116Y22613D01*
X13112Y22616D01*
X13108Y22623D01*
X13098Y22634D01*
X13087Y22652D01*
X13072Y22674D01*
X13058Y22700D01*
X13039Y22729D01*
X13021Y22765D01*
X13003Y22805D01*
X12985Y22849D01*
X12970Y22896D01*
X12956Y22947D01*
X12945Y23002D01*
X12934Y23060D01*
X12930Y23122D01*
X12927Y23188D01*
Y23224D01*
X12930Y23249D01*
X12934Y23279D01*
X12937Y23315D01*
X12945Y23355D01*
X12952Y23395D01*
X12978Y23490D01*
X13014Y23584D01*
X13036Y23632D01*
X13061Y23679D01*
X13094Y23723D01*
X13130Y23763D01*
X13134Y23766D01*
X13138Y23774D01*
X13152Y23781D01*
X13167Y23796D01*
X13185Y23814D01*
X13210Y23832D01*
X13236Y23850D01*
X13269Y23872D01*
X13338Y23908D01*
X13425Y23945D01*
X13469Y23959D01*
X13520Y23967D01*
X13571Y23974D01*
X13625Y23978D01*
X13633D01*
X13651D01*
X13680Y23974D01*
X13720Y23970D01*
X13764Y23963D01*
X13815Y23948D01*
X13869Y23934D01*
X13924Y23912D01*
X13931Y23908D01*
X13949Y23901D01*
X13979Y23887D01*
X14018Y23865D01*
X14062Y23836D01*
X14117Y23799D01*
X14171Y23755D01*
X14233Y23705D01*
X14241Y23697D01*
X14262Y23679D01*
X14281Y23661D01*
X14299Y23643D01*
X14321Y23621D01*
X14350Y23592D01*
X14379Y23562D01*
X14412Y23526D01*
X14448Y23490D01*
X14488Y23446D01*
X14528Y23399D01*
X14575Y23348D01*
X14623Y23290D01*
X14674Y23231D01*
X14677Y23228D01*
X14685Y23220D01*
X14696Y23206D01*
X14710Y23188D01*
X14732Y23166D01*
X14754Y23140D01*
X14801Y23082D01*
X14856Y23020D01*
X14910Y22962D01*
X14958Y22911D01*
X14976Y22889D01*
X14994Y22871D01*
X14998Y22867D01*
X15009Y22856D01*
X15023Y22842D01*
X15045Y22824D01*
X15070Y22805D01*
X15096Y22784D01*
X15158Y22740D01*
Y23981D01*
X15456D01*
Y22310D01*
D02*
G37*
G36*
X14677Y22066D02*
X14699Y22059D01*
X14728Y22048D01*
X14761Y22037D01*
X14801Y22023D01*
X14845Y22005D01*
X14892Y21983D01*
X14994Y21932D01*
X15096Y21866D01*
X15147Y21826D01*
X15198Y21786D01*
X15242Y21743D01*
X15285Y21692D01*
X15289Y21688D01*
X15296Y21681D01*
X15303Y21663D01*
X15318Y21644D01*
X15336Y21615D01*
X15354Y21586D01*
X15373Y21546D01*
X15391Y21506D01*
X15413Y21459D01*
X15431Y21408D01*
X15449Y21353D01*
X15467Y21295D01*
X15482Y21233D01*
X15489Y21167D01*
X15496Y21098D01*
X15500Y21025D01*
Y20985D01*
X15496Y20956D01*
Y20924D01*
X15493Y20884D01*
X15485Y20840D01*
X15478Y20789D01*
X15460Y20683D01*
X15431Y20574D01*
X15391Y20465D01*
X15365Y20414D01*
X15336Y20363D01*
X15333Y20359D01*
X15329Y20352D01*
X15318Y20337D01*
X15303Y20323D01*
X15289Y20301D01*
X15267Y20276D01*
X15242Y20246D01*
X15213Y20217D01*
X15180Y20188D01*
X15147Y20155D01*
X15063Y20090D01*
X14965Y20028D01*
X14856Y19974D01*
X14852D01*
X14841Y19966D01*
X14823Y19963D01*
X14801Y19952D01*
X14772Y19944D01*
X14736Y19933D01*
X14696Y19919D01*
X14652Y19908D01*
X14605Y19897D01*
X14550Y19883D01*
X14437Y19864D01*
X14310Y19850D01*
X14179Y19842D01*
X14175D01*
X14161D01*
X14139D01*
X14113Y19846D01*
X14077D01*
X14040Y19850D01*
X13993Y19853D01*
X13946Y19861D01*
X13840Y19879D01*
X13724Y19904D01*
X13607Y19941D01*
X13494Y19992D01*
X13491Y19995D01*
X13480Y19999D01*
X13465Y20006D01*
X13447Y20021D01*
X13422Y20035D01*
X13393Y20054D01*
X13327Y20101D01*
X13254Y20163D01*
X13181Y20236D01*
X13108Y20319D01*
X13047Y20418D01*
X13043Y20421D01*
X13039Y20432D01*
X13032Y20447D01*
X13021Y20465D01*
X13010Y20494D01*
X12999Y20523D01*
X12985Y20560D01*
X12970Y20600D01*
X12956Y20643D01*
X12941Y20691D01*
X12919Y20793D01*
X12901Y20909D01*
X12894Y21029D01*
Y21066D01*
X12897Y21091D01*
X12901Y21124D01*
X12905Y21164D01*
X12908Y21204D01*
X12919Y21251D01*
X12941Y21349D01*
X12974Y21459D01*
X12996Y21513D01*
X13021Y21564D01*
X13054Y21615D01*
X13087Y21666D01*
X13090Y21670D01*
X13094Y21677D01*
X13105Y21692D01*
X13123Y21710D01*
X13141Y21728D01*
X13167Y21754D01*
X13196Y21779D01*
X13225Y21808D01*
X13261Y21837D01*
X13305Y21866D01*
X13349Y21899D01*
X13396Y21928D01*
X13451Y21954D01*
X13505Y21983D01*
X13564Y22005D01*
X13629Y22027D01*
X13705Y21699D01*
X13702D01*
X13695Y21695D01*
X13680Y21688D01*
X13662Y21681D01*
X13640Y21673D01*
X13611Y21663D01*
X13553Y21633D01*
X13487Y21597D01*
X13422Y21553D01*
X13360Y21499D01*
X13305Y21440D01*
X13298Y21433D01*
X13283Y21411D01*
X13265Y21375D01*
X13240Y21328D01*
X13218Y21266D01*
X13196Y21196D01*
X13181Y21113D01*
X13178Y21022D01*
Y20993D01*
X13181Y20975D01*
Y20949D01*
X13185Y20920D01*
X13196Y20851D01*
X13210Y20774D01*
X13236Y20694D01*
X13272Y20610D01*
X13320Y20534D01*
Y20530D01*
X13327Y20527D01*
X13345Y20501D01*
X13374Y20469D01*
X13418Y20428D01*
X13473Y20381D01*
X13534Y20337D01*
X13611Y20298D01*
X13695Y20261D01*
X13698D01*
X13705Y20257D01*
X13716Y20254D01*
X13735Y20250D01*
X13757Y20243D01*
X13782Y20236D01*
X13844Y20225D01*
X13917Y20210D01*
X13997Y20196D01*
X14084Y20188D01*
X14179Y20185D01*
X14182D01*
X14193D01*
X14211D01*
X14233D01*
X14259Y20188D01*
X14292D01*
X14328Y20192D01*
X14368Y20196D01*
X14455Y20207D01*
X14550Y20225D01*
X14645Y20246D01*
X14739Y20276D01*
X14743D01*
X14750Y20279D01*
X14761Y20287D01*
X14779Y20294D01*
X14823Y20316D01*
X14874Y20348D01*
X14932Y20389D01*
X14994Y20439D01*
X15049Y20498D01*
X15100Y20567D01*
Y20571D01*
X15103Y20578D01*
X15111Y20589D01*
X15118Y20603D01*
X15125Y20621D01*
X15136Y20643D01*
X15158Y20694D01*
X15180Y20760D01*
X15198Y20833D01*
X15213Y20913D01*
X15216Y20996D01*
Y21022D01*
X15213Y21044D01*
Y21069D01*
X15209Y21095D01*
X15194Y21160D01*
X15176Y21237D01*
X15147Y21313D01*
X15107Y21393D01*
X15085Y21433D01*
X15056Y21470D01*
X15052Y21473D01*
X15049Y21477D01*
X15038Y21488D01*
X15027Y21502D01*
X15009Y21517D01*
X14987Y21535D01*
X14965Y21557D01*
X14936Y21575D01*
X14903Y21597D01*
X14867Y21622D01*
X14830Y21644D01*
X14787Y21666D01*
X14739Y21684D01*
X14688Y21702D01*
X14634Y21721D01*
X14575Y21735D01*
X14659Y22070D01*
X14663D01*
X14677Y22066D01*
D02*
G37*
G36*
X36956Y22661D02*
X34987D01*
X34991Y22657D01*
X35005Y22639D01*
X35027Y22617D01*
X35053Y22581D01*
X35085Y22541D01*
X35122Y22490D01*
X35162Y22432D01*
X35202Y22366D01*
Y22362D01*
X35206Y22359D01*
X35220Y22337D01*
X35238Y22300D01*
X35260Y22257D01*
X35286Y22206D01*
X35311Y22151D01*
X35337Y22097D01*
X35358Y22042D01*
X35060D01*
Y22046D01*
X35053Y22053D01*
X35049Y22068D01*
X35038Y22086D01*
X35027Y22107D01*
X35013Y22133D01*
X34976Y22195D01*
X34936Y22268D01*
X34885Y22341D01*
X34827Y22417D01*
X34765Y22493D01*
X34761Y22497D01*
X34758Y22501D01*
X34747Y22512D01*
X34736Y22526D01*
X34699Y22559D01*
X34656Y22603D01*
X34605Y22646D01*
X34547Y22693D01*
X34488Y22734D01*
X34427Y22770D01*
Y22970D01*
X36956D01*
Y22661D01*
D02*
G37*
G36*
X36236Y21383D02*
X36265D01*
X36334Y21376D01*
X36414Y21369D01*
X36498Y21354D01*
X36574Y21332D01*
X36647Y21307D01*
X36651D01*
X36654Y21303D01*
X36676Y21292D01*
X36705Y21274D01*
X36745Y21249D01*
X36785Y21212D01*
X36829Y21172D01*
X36873Y21121D01*
X36909Y21063D01*
X36913Y21056D01*
X36924Y21034D01*
X36938Y21001D01*
X36953Y20954D01*
X36971Y20895D01*
X36985Y20830D01*
X36996Y20757D01*
X37000Y20677D01*
Y20644D01*
X36996Y20622D01*
X36993Y20593D01*
X36989Y20564D01*
X36974Y20488D01*
X36953Y20408D01*
X36920Y20324D01*
X36898Y20280D01*
X36873Y20240D01*
X36843Y20204D01*
X36811Y20167D01*
X36807Y20164D01*
X36803Y20160D01*
X36789Y20153D01*
X36774Y20142D01*
X36756Y20127D01*
X36731Y20113D01*
X36702Y20098D01*
X36669Y20080D01*
X36632Y20065D01*
X36589Y20051D01*
X36545Y20036D01*
X36494Y20022D01*
X36439Y20015D01*
X36378Y20004D01*
X36316Y20000D01*
X36247D01*
X36203Y20302D01*
X36206D01*
X36214D01*
X36228D01*
X36250Y20306D01*
X36272Y20309D01*
X36298D01*
X36359Y20320D01*
X36425Y20331D01*
X36490Y20353D01*
X36549Y20375D01*
X36574Y20389D01*
X36596Y20408D01*
X36600Y20411D01*
X36611Y20426D01*
X36629Y20448D01*
X36647Y20477D01*
X36669Y20517D01*
X36683Y20561D01*
X36698Y20615D01*
X36702Y20673D01*
Y20695D01*
X36698Y20717D01*
X36694Y20750D01*
X36687Y20783D01*
X36680Y20819D01*
X36665Y20855D01*
X36647Y20892D01*
X36643Y20895D01*
X36636Y20906D01*
X36621Y20921D01*
X36607Y20943D01*
X36581Y20961D01*
X36556Y20983D01*
X36527Y21001D01*
X36490Y21015D01*
X36487D01*
X36472Y21023D01*
X36447Y21026D01*
X36414Y21034D01*
X36370Y21041D01*
X36316Y21045D01*
X36250Y21052D01*
X36174D01*
X34438D01*
Y21387D01*
X36156D01*
X36159D01*
X36170D01*
X36185D01*
X36206D01*
X36236Y21383D01*
D02*
G37*
G36*
X15297Y127198D02*
X15293D01*
X15286D01*
X15272D01*
X15250Y127194D01*
X15228Y127191D01*
X15202D01*
X15141Y127180D01*
X15075Y127169D01*
X15010Y127147D01*
X14951Y127125D01*
X14926Y127111D01*
X14904Y127092D01*
X14900Y127089D01*
X14889Y127074D01*
X14871Y127052D01*
X14853Y127023D01*
X14831Y126983D01*
X14817Y126939D01*
X14802Y126885D01*
X14798Y126827D01*
Y126805D01*
X14802Y126783D01*
X14806Y126750D01*
X14813Y126717D01*
X14820Y126681D01*
X14835Y126645D01*
X14853Y126608D01*
X14857Y126605D01*
X14864Y126594D01*
X14878Y126579D01*
X14893Y126557D01*
X14919Y126539D01*
X14944Y126517D01*
X14973Y126499D01*
X15010Y126485D01*
X15013D01*
X15028Y126477D01*
X15053Y126474D01*
X15086Y126466D01*
X15130Y126459D01*
X15184Y126455D01*
X15250Y126448D01*
X15326D01*
X17063D01*
Y126113D01*
X15344D01*
X15341D01*
X15330D01*
X15315D01*
X15293D01*
X15264Y126117D01*
X15235D01*
X15166Y126124D01*
X15086Y126131D01*
X15002Y126146D01*
X14926Y126168D01*
X14853Y126193D01*
X14849D01*
X14846Y126197D01*
X14824Y126208D01*
X14795Y126226D01*
X14755Y126251D01*
X14715Y126288D01*
X14671Y126328D01*
X14627Y126379D01*
X14591Y126437D01*
X14587Y126444D01*
X14576Y126466D01*
X14562Y126499D01*
X14547Y126546D01*
X14529Y126605D01*
X14514Y126670D01*
X14504Y126743D01*
X14500Y126823D01*
Y126856D01*
X14504Y126878D01*
X14507Y126907D01*
X14511Y126936D01*
X14525Y127012D01*
X14547Y127092D01*
X14580Y127176D01*
X14602Y127220D01*
X14627Y127260D01*
X14657Y127296D01*
X14689Y127333D01*
X14693Y127336D01*
X14696Y127340D01*
X14711Y127347D01*
X14726Y127358D01*
X14744Y127373D01*
X14769Y127387D01*
X14798Y127402D01*
X14831Y127420D01*
X14868Y127435D01*
X14911Y127449D01*
X14955Y127464D01*
X15006Y127478D01*
X15060Y127486D01*
X15122Y127496D01*
X15184Y127500D01*
X15253D01*
X15297Y127198D01*
D02*
G37*
G36*
X15308Y125695D02*
X15330D01*
X15355Y125691D01*
X15414Y125684D01*
X15479Y125669D01*
X15545Y125647D01*
X15614Y125615D01*
X15679Y125575D01*
X15683D01*
X15687Y125567D01*
X15705Y125553D01*
X15734Y125523D01*
X15770Y125484D01*
X15807Y125433D01*
X15847Y125371D01*
X15879Y125302D01*
X15905Y125218D01*
Y125221D01*
X15909Y125225D01*
X15912Y125236D01*
X15920Y125250D01*
X15934Y125283D01*
X15956Y125327D01*
X15985Y125374D01*
X16022Y125422D01*
X16061Y125465D01*
X16105Y125505D01*
X16113Y125509D01*
X16127Y125520D01*
X16156Y125534D01*
X16193Y125549D01*
X16240Y125567D01*
X16295Y125582D01*
X16356Y125593D01*
X16422Y125596D01*
X16425D01*
X16433D01*
X16447D01*
X16469Y125593D01*
X16491Y125589D01*
X16520Y125585D01*
X16582Y125571D01*
X16655Y125549D01*
X16731Y125513D01*
X16771Y125491D01*
X16811Y125465D01*
X16848Y125433D01*
X16884Y125400D01*
X16888Y125396D01*
X16891Y125389D01*
X16902Y125378D01*
X16913Y125363D01*
X16928Y125345D01*
X16942Y125320D01*
X16961Y125291D01*
X16979Y125261D01*
X16997Y125225D01*
X17015Y125185D01*
X17030Y125141D01*
X17044Y125094D01*
X17066Y124992D01*
X17070Y124934D01*
X17073Y124876D01*
Y124843D01*
X17070Y124821D01*
X17066Y124792D01*
X17063Y124759D01*
X17059Y124723D01*
X17048Y124686D01*
X17026Y124599D01*
X16993Y124512D01*
X16972Y124468D01*
X16946Y124424D01*
X16913Y124384D01*
X16881Y124344D01*
X16877Y124340D01*
X16873Y124337D01*
X16862Y124326D01*
X16848Y124311D01*
X16826Y124297D01*
X16804Y124279D01*
X16749Y124242D01*
X16680Y124206D01*
X16600Y124173D01*
X16509Y124148D01*
X16462Y124144D01*
X16411Y124140D01*
X16407D01*
X16404D01*
X16382D01*
X16349Y124144D01*
X16309Y124151D01*
X16258Y124162D01*
X16207Y124180D01*
X16156Y124202D01*
X16105Y124235D01*
X16098Y124239D01*
X16083Y124253D01*
X16061Y124275D01*
X16032Y124304D01*
X16000Y124344D01*
X15967Y124391D01*
X15934Y124446D01*
X15905Y124512D01*
Y124508D01*
X15901Y124501D01*
X15898Y124490D01*
X15890Y124475D01*
X15872Y124432D01*
X15847Y124381D01*
X15810Y124326D01*
X15770Y124268D01*
X15719Y124213D01*
X15661Y124162D01*
X15657D01*
X15654Y124159D01*
X15632Y124144D01*
X15596Y124122D01*
X15548Y124100D01*
X15490Y124078D01*
X15421Y124057D01*
X15344Y124042D01*
X15261Y124038D01*
X15257D01*
X15246D01*
X15228D01*
X15206Y124042D01*
X15181Y124046D01*
X15148Y124049D01*
X15112Y124057D01*
X15071Y124067D01*
X14988Y124093D01*
X14940Y124111D01*
X14897Y124137D01*
X14849Y124162D01*
X14806Y124191D01*
X14762Y124228D01*
X14718Y124268D01*
X14715Y124271D01*
X14707Y124279D01*
X14696Y124290D01*
X14686Y124308D01*
X14667Y124333D01*
X14649Y124359D01*
X14631Y124391D01*
X14609Y124428D01*
X14587Y124468D01*
X14569Y124515D01*
X14551Y124566D01*
X14533Y124617D01*
X14522Y124675D01*
X14511Y124737D01*
X14504Y124799D01*
X14500Y124868D01*
Y124905D01*
X14504Y124930D01*
X14507Y124963D01*
X14511Y124999D01*
X14518Y125039D01*
X14529Y125083D01*
X14555Y125181D01*
X14573Y125232D01*
X14591Y125280D01*
X14616Y125331D01*
X14646Y125382D01*
X14678Y125429D01*
X14718Y125473D01*
X14722Y125476D01*
X14729Y125484D01*
X14740Y125494D01*
X14758Y125509D01*
X14780Y125523D01*
X14806Y125545D01*
X14835Y125564D01*
X14871Y125585D01*
X14908Y125607D01*
X14951Y125625D01*
X15042Y125662D01*
X15097Y125676D01*
X15152Y125687D01*
X15210Y125695D01*
X15268Y125698D01*
X15272D01*
X15279D01*
X15293D01*
X15308Y125695D01*
D02*
G37*
G36*
X122718Y38454D02*
X122725Y38447D01*
X122740Y38432D01*
X122761Y38418D01*
X122787Y38396D01*
X122816Y38367D01*
X122852Y38338D01*
X122896Y38305D01*
X122940Y38272D01*
X122991Y38232D01*
X123049Y38192D01*
X123107Y38152D01*
X123173Y38109D01*
X123242Y38065D01*
X123318Y38021D01*
X123395Y37977D01*
X123398Y37974D01*
X123413Y37967D01*
X123435Y37956D01*
X123468Y37937D01*
X123508Y37919D01*
X123551Y37897D01*
X123602Y37872D01*
X123661Y37846D01*
X123726Y37817D01*
X123792Y37785D01*
X123864Y37755D01*
X123941Y37726D01*
X124097Y37668D01*
X124265Y37613D01*
X124268D01*
X124279Y37610D01*
X124297Y37606D01*
X124319Y37599D01*
X124348Y37592D01*
X124385Y37584D01*
X124425Y37573D01*
X124469Y37566D01*
X124520Y37555D01*
X124574Y37544D01*
X124691Y37526D01*
X124818Y37508D01*
X124956Y37497D01*
Y37180D01*
X124953D01*
X124942D01*
X124927D01*
X124905Y37184D01*
X124876D01*
X124840Y37188D01*
X124800Y37191D01*
X124756Y37195D01*
X124705Y37202D01*
X124654Y37209D01*
X124592Y37220D01*
X124530Y37231D01*
X124465Y37242D01*
X124392Y37257D01*
X124243Y37293D01*
X124239D01*
X124225Y37297D01*
X124203Y37304D01*
X124170Y37315D01*
X124134Y37326D01*
X124090Y37341D01*
X124039Y37355D01*
X123985Y37377D01*
X123923Y37399D01*
X123861Y37420D01*
X123722Y37475D01*
X123577Y37541D01*
X123431Y37613D01*
X123427Y37617D01*
X123413Y37624D01*
X123395Y37635D01*
X123366Y37650D01*
X123333Y37668D01*
X123293Y37694D01*
X123249Y37719D01*
X123202Y37748D01*
X123096Y37817D01*
X122987Y37890D01*
X122874Y37974D01*
X122769Y38061D01*
Y36827D01*
X122470D01*
Y38458D01*
X122714D01*
X122718Y38454D01*
D02*
G37*
G36*
X124236Y36383D02*
X124265D01*
X124334Y36376D01*
X124414Y36369D01*
X124498Y36354D01*
X124574Y36332D01*
X124647Y36307D01*
X124651D01*
X124654Y36303D01*
X124676Y36292D01*
X124705Y36274D01*
X124745Y36248D01*
X124785Y36212D01*
X124829Y36172D01*
X124873Y36121D01*
X124909Y36063D01*
X124913Y36055D01*
X124924Y36034D01*
X124938Y36001D01*
X124953Y35954D01*
X124971Y35895D01*
X124986Y35830D01*
X124996Y35757D01*
X125000Y35677D01*
Y35644D01*
X124996Y35622D01*
X124993Y35593D01*
X124989Y35564D01*
X124975Y35488D01*
X124953Y35408D01*
X124920Y35324D01*
X124898Y35280D01*
X124873Y35240D01*
X124844Y35204D01*
X124811Y35167D01*
X124807Y35164D01*
X124803Y35160D01*
X124789Y35153D01*
X124774Y35142D01*
X124756Y35127D01*
X124731Y35113D01*
X124701Y35098D01*
X124669Y35080D01*
X124632Y35065D01*
X124589Y35051D01*
X124545Y35036D01*
X124494Y35022D01*
X124440Y35015D01*
X124378Y35004D01*
X124316Y35000D01*
X124247D01*
X124203Y35302D01*
X124206D01*
X124214D01*
X124228D01*
X124250Y35306D01*
X124272Y35309D01*
X124297D01*
X124359Y35320D01*
X124425Y35331D01*
X124490Y35353D01*
X124549Y35375D01*
X124574Y35389D01*
X124596Y35408D01*
X124600Y35411D01*
X124610Y35426D01*
X124629Y35448D01*
X124647Y35477D01*
X124669Y35517D01*
X124683Y35561D01*
X124698Y35615D01*
X124701Y35673D01*
Y35695D01*
X124698Y35717D01*
X124694Y35750D01*
X124687Y35783D01*
X124680Y35819D01*
X124665Y35855D01*
X124647Y35892D01*
X124643Y35895D01*
X124636Y35906D01*
X124621Y35921D01*
X124607Y35943D01*
X124581Y35961D01*
X124556Y35983D01*
X124527Y36001D01*
X124490Y36015D01*
X124487D01*
X124472Y36023D01*
X124447Y36026D01*
X124414Y36034D01*
X124370Y36041D01*
X124316Y36045D01*
X124250Y36052D01*
X124174D01*
X122438D01*
Y36387D01*
X124155D01*
X124159D01*
X124170D01*
X124185D01*
X124206D01*
X124236Y36383D01*
D02*
G37*
G36*
X50797Y127198D02*
X50793D01*
X50786D01*
X50772D01*
X50750Y127194D01*
X50728Y127191D01*
X50703D01*
X50641Y127180D01*
X50575Y127169D01*
X50510Y127147D01*
X50451Y127125D01*
X50426Y127111D01*
X50404Y127092D01*
X50400Y127089D01*
X50389Y127074D01*
X50371Y127052D01*
X50353Y127023D01*
X50331Y126983D01*
X50317Y126939D01*
X50302Y126885D01*
X50298Y126827D01*
Y126805D01*
X50302Y126783D01*
X50306Y126750D01*
X50313Y126717D01*
X50320Y126681D01*
X50335Y126645D01*
X50353Y126608D01*
X50357Y126605D01*
X50364Y126594D01*
X50379Y126579D01*
X50393Y126557D01*
X50419Y126539D01*
X50444Y126517D01*
X50473Y126499D01*
X50510Y126485D01*
X50513D01*
X50528Y126477D01*
X50553Y126474D01*
X50586Y126466D01*
X50630Y126459D01*
X50684Y126455D01*
X50750Y126448D01*
X50826D01*
X52562D01*
Y126113D01*
X50844D01*
X50841D01*
X50830D01*
X50815D01*
X50793D01*
X50764Y126117D01*
X50735D01*
X50666Y126124D01*
X50586Y126131D01*
X50502Y126146D01*
X50426Y126168D01*
X50353Y126193D01*
X50349D01*
X50346Y126197D01*
X50324Y126208D01*
X50295Y126226D01*
X50255Y126251D01*
X50215Y126288D01*
X50171Y126328D01*
X50127Y126379D01*
X50091Y126437D01*
X50087Y126444D01*
X50076Y126466D01*
X50062Y126499D01*
X50047Y126546D01*
X50029Y126605D01*
X50015Y126670D01*
X50004Y126743D01*
X50000Y126823D01*
Y126856D01*
X50004Y126878D01*
X50007Y126907D01*
X50011Y126936D01*
X50025Y127012D01*
X50047Y127092D01*
X50080Y127176D01*
X50102Y127220D01*
X50127Y127260D01*
X50156Y127296D01*
X50189Y127333D01*
X50193Y127336D01*
X50196Y127340D01*
X50211Y127347D01*
X50226Y127358D01*
X50244Y127373D01*
X50269Y127387D01*
X50298Y127402D01*
X50331Y127420D01*
X50368Y127435D01*
X50411Y127449D01*
X50455Y127464D01*
X50506Y127478D01*
X50560Y127486D01*
X50622Y127496D01*
X50684Y127500D01*
X50753D01*
X50797Y127198D01*
D02*
G37*
G36*
X51784Y125691D02*
X51816Y125687D01*
X51856Y125684D01*
X51896Y125676D01*
X51944Y125665D01*
X52038Y125640D01*
X52089Y125622D01*
X52144Y125600D01*
X52195Y125575D01*
X52242Y125542D01*
X52293Y125509D01*
X52337Y125469D01*
X52341Y125465D01*
X52348Y125458D01*
X52359Y125447D01*
X52373Y125429D01*
X52391Y125407D01*
X52413Y125378D01*
X52431Y125349D01*
X52457Y125312D01*
X52479Y125276D01*
X52497Y125232D01*
X52537Y125134D01*
X52552Y125083D01*
X52562Y125025D01*
X52570Y124967D01*
X52573Y124905D01*
Y124879D01*
X52570Y124861D01*
Y124843D01*
X52566Y124817D01*
X52555Y124756D01*
X52541Y124686D01*
X52515Y124610D01*
X52482Y124533D01*
X52439Y124457D01*
Y124453D01*
X52431Y124450D01*
X52424Y124439D01*
X52413Y124424D01*
X52384Y124388D01*
X52344Y124340D01*
X52289Y124293D01*
X52224Y124239D01*
X52148Y124191D01*
X52060Y124148D01*
X52057D01*
X52049Y124144D01*
X52035Y124137D01*
X52017Y124129D01*
X51991Y124122D01*
X51958Y124111D01*
X51922Y124104D01*
X51882Y124093D01*
X51834Y124082D01*
X51780Y124071D01*
X51722Y124064D01*
X51660Y124057D01*
X51591Y124049D01*
X51518Y124042D01*
X51438Y124038D01*
X51354D01*
X51350D01*
X51332D01*
X51307D01*
X51274D01*
X51234Y124042D01*
X51187D01*
X51132Y124046D01*
X51077Y124053D01*
X50954Y124064D01*
X50823Y124082D01*
X50699Y124108D01*
X50637Y124126D01*
X50582Y124144D01*
X50579D01*
X50571Y124148D01*
X50557Y124155D01*
X50535Y124162D01*
X50513Y124173D01*
X50484Y124188D01*
X50422Y124224D01*
X50353Y124268D01*
X50280Y124319D01*
X50211Y124384D01*
X50149Y124457D01*
Y124461D01*
X50142Y124468D01*
X50135Y124479D01*
X50127Y124493D01*
X50116Y124515D01*
X50102Y124537D01*
X50087Y124566D01*
X50076Y124595D01*
X50047Y124664D01*
X50022Y124748D01*
X50007Y124839D01*
X50000Y124941D01*
Y124970D01*
X50004Y124988D01*
Y125014D01*
X50007Y125043D01*
X50022Y125112D01*
X50040Y125189D01*
X50069Y125269D01*
X50109Y125349D01*
X50135Y125389D01*
X50164Y125425D01*
X50167Y125429D01*
X50171Y125433D01*
X50182Y125443D01*
X50193Y125454D01*
X50211Y125469D01*
X50233Y125487D01*
X50284Y125523D01*
X50349Y125560D01*
X50429Y125596D01*
X50520Y125625D01*
X50626Y125647D01*
X50652Y125349D01*
X50648D01*
X50641Y125345D01*
X50633D01*
X50619Y125341D01*
X50579Y125331D01*
X50535Y125316D01*
X50484Y125298D01*
X50433Y125272D01*
X50386Y125243D01*
X50346Y125207D01*
X50342Y125203D01*
X50331Y125189D01*
X50317Y125163D01*
X50302Y125134D01*
X50284Y125094D01*
X50269Y125047D01*
X50258Y124992D01*
X50255Y124934D01*
Y124908D01*
X50258Y124883D01*
X50262Y124850D01*
X50269Y124810D01*
X50280Y124770D01*
X50295Y124726D01*
X50317Y124686D01*
X50320Y124683D01*
X50328Y124668D01*
X50342Y124646D01*
X50364Y124624D01*
X50389Y124595D01*
X50419Y124566D01*
X50451Y124537D01*
X50491Y124508D01*
X50495Y124504D01*
X50513Y124497D01*
X50539Y124483D01*
X50571Y124468D01*
X50615Y124450D01*
X50666Y124432D01*
X50724Y124413D01*
X50790Y124395D01*
X50793D01*
X50797Y124391D01*
X50808D01*
X50823Y124388D01*
X50859Y124381D01*
X50906Y124370D01*
X50965Y124362D01*
X51026Y124355D01*
X51096Y124351D01*
X51168Y124348D01*
X51172D01*
X51183D01*
X51201D01*
X51230D01*
X51223Y124351D01*
X51205Y124366D01*
X51179Y124388D01*
X51143Y124413D01*
X51107Y124450D01*
X51066Y124493D01*
X51026Y124544D01*
X50990Y124603D01*
X50986Y124610D01*
X50976Y124632D01*
X50961Y124664D01*
X50946Y124705D01*
X50928Y124759D01*
X50914Y124817D01*
X50903Y124883D01*
X50899Y124952D01*
Y124981D01*
X50903Y125003D01*
X50906Y125032D01*
X50910Y125061D01*
X50917Y125098D01*
X50928Y125134D01*
X50954Y125218D01*
X50972Y125261D01*
X50994Y125305D01*
X51019Y125352D01*
X51052Y125396D01*
X51085Y125440D01*
X51125Y125480D01*
X51128Y125484D01*
X51136Y125491D01*
X51147Y125498D01*
X51165Y125513D01*
X51190Y125531D01*
X51216Y125549D01*
X51249Y125567D01*
X51285Y125585D01*
X51325Y125607D01*
X51369Y125625D01*
X51420Y125644D01*
X51471Y125662D01*
X51529Y125676D01*
X51591Y125684D01*
X51652Y125691D01*
X51722Y125695D01*
X51725D01*
X51740D01*
X51758D01*
X51784Y125691D01*
D02*
G37*
%LPC*%
G36*
X249128Y97997D02*
X248335D01*
Y97164D01*
X249085D01*
X249128Y97168D01*
X249179Y97171D01*
X249238Y97175D01*
X249296Y97182D01*
X249354Y97193D01*
X249405Y97208D01*
X249412Y97211D01*
X249427Y97219D01*
X249449Y97229D01*
X249478Y97244D01*
X249511Y97266D01*
X249543Y97291D01*
X249576Y97324D01*
X249602Y97360D01*
X249605Y97364D01*
X249612Y97379D01*
X249623Y97400D01*
X249638Y97430D01*
X249649Y97462D01*
X249660Y97499D01*
X249667Y97543D01*
X249671Y97586D01*
Y97590D01*
Y97593D01*
X249667Y97615D01*
X249663Y97648D01*
X249656Y97692D01*
X249638Y97735D01*
X249616Y97786D01*
X249583Y97834D01*
X249540Y97881D01*
X249532Y97885D01*
X249514Y97899D01*
X249485Y97917D01*
X249438Y97939D01*
X249383Y97961D01*
X249310Y97979D01*
X249227Y97994D01*
X249128Y97997D01*
D02*
G37*
G36*
X160359Y111352D02*
X160352D01*
X160334D01*
X160301Y111349D01*
X160261Y111345D01*
X160213Y111338D01*
X160162Y111323D01*
X160108Y111309D01*
X160053Y111287D01*
X160046Y111283D01*
X160028Y111272D01*
X160002Y111258D01*
X159969Y111236D01*
X159937Y111211D01*
X159897Y111178D01*
X159864Y111141D01*
X159831Y111098D01*
X159827Y111090D01*
X159820Y111076D01*
X159806Y111050D01*
X159795Y111018D01*
X159780Y110981D01*
X159766Y110938D01*
X159758Y110890D01*
X159755Y110839D01*
Y110821D01*
X159758Y110806D01*
X159762Y110770D01*
X159773Y110723D01*
X159795Y110672D01*
X159820Y110614D01*
X159860Y110555D01*
X159882Y110526D01*
X159911Y110501D01*
X159915D01*
X159919Y110493D01*
X159940Y110479D01*
X159977Y110457D01*
X160024Y110428D01*
X160086Y110402D01*
X160159Y110380D01*
X160242Y110366D01*
X160341Y110359D01*
X160344D01*
X160352D01*
X160366D01*
X160385Y110362D01*
X160406D01*
X160432Y110366D01*
X160490Y110377D01*
X160556Y110391D01*
X160625Y110417D01*
X160690Y110453D01*
X160752Y110501D01*
X160759Y110508D01*
X160778Y110526D01*
X160799Y110555D01*
X160828Y110595D01*
X160858Y110646D01*
X160880Y110705D01*
X160898Y110774D01*
X160905Y110850D01*
Y110872D01*
X160901Y110887D01*
X160898Y110923D01*
X160887Y110974D01*
X160869Y111029D01*
X160839Y111090D01*
X160803Y111149D01*
X160752Y111207D01*
X160745Y111214D01*
X160727Y111229D01*
X160694Y111254D01*
X160647Y111280D01*
X160592Y111305D01*
X160523Y111331D01*
X160446Y111345D01*
X160359Y111352D01*
D02*
G37*
G36*
X249128Y109997D02*
X248335D01*
Y109164D01*
X249085D01*
X249128Y109168D01*
X249179Y109171D01*
X249238Y109175D01*
X249296Y109182D01*
X249354Y109193D01*
X249405Y109208D01*
X249412Y109211D01*
X249427Y109219D01*
X249449Y109229D01*
X249478Y109244D01*
X249511Y109266D01*
X249543Y109291D01*
X249576Y109324D01*
X249602Y109361D01*
X249605Y109364D01*
X249612Y109379D01*
X249623Y109400D01*
X249638Y109430D01*
X249649Y109462D01*
X249660Y109499D01*
X249667Y109543D01*
X249671Y109586D01*
Y109590D01*
Y109593D01*
X249667Y109615D01*
X249663Y109648D01*
X249656Y109692D01*
X249638Y109735D01*
X249616Y109786D01*
X249583Y109834D01*
X249540Y109881D01*
X249532Y109885D01*
X249514Y109899D01*
X249485Y109917D01*
X249438Y109939D01*
X249383Y109961D01*
X249310Y109979D01*
X249227Y109994D01*
X249128Y109997D01*
D02*
G37*
G36*
Y122041D02*
X248335D01*
Y121208D01*
X249085D01*
X249128Y121211D01*
X249179Y121215D01*
X249238Y121219D01*
X249296Y121226D01*
X249354Y121237D01*
X249405Y121251D01*
X249412Y121255D01*
X249427Y121262D01*
X249449Y121273D01*
X249478Y121288D01*
X249511Y121309D01*
X249543Y121335D01*
X249576Y121368D01*
X249602Y121404D01*
X249605Y121408D01*
X249612Y121422D01*
X249623Y121444D01*
X249638Y121473D01*
X249649Y121506D01*
X249660Y121543D01*
X249667Y121586D01*
X249671Y121630D01*
Y121634D01*
Y121637D01*
X249667Y121659D01*
X249663Y121692D01*
X249656Y121735D01*
X249638Y121779D01*
X249616Y121830D01*
X249583Y121877D01*
X249540Y121925D01*
X249532Y121928D01*
X249514Y121943D01*
X249485Y121961D01*
X249438Y121983D01*
X249383Y122005D01*
X249310Y122023D01*
X249227Y122037D01*
X249128Y122041D01*
D02*
G37*
G36*
X251585Y133775D02*
X250791Y132647D01*
X251585D01*
Y133775D01*
D02*
G37*
G36*
X249313Y133997D02*
X248520D01*
Y133164D01*
X249270D01*
X249313Y133168D01*
X249364Y133171D01*
X249423Y133175D01*
X249481Y133182D01*
X249539Y133193D01*
X249590Y133208D01*
X249597Y133211D01*
X249612Y133219D01*
X249634Y133229D01*
X249663Y133244D01*
X249696Y133266D01*
X249728Y133291D01*
X249761Y133324D01*
X249787Y133361D01*
X249790Y133364D01*
X249798Y133379D01*
X249809Y133400D01*
X249823Y133430D01*
X249834Y133462D01*
X249845Y133499D01*
X249852Y133543D01*
X249856Y133586D01*
Y133590D01*
Y133593D01*
X249852Y133615D01*
X249849Y133648D01*
X249841Y133692D01*
X249823Y133735D01*
X249801Y133786D01*
X249768Y133834D01*
X249725Y133881D01*
X249717Y133885D01*
X249699Y133899D01*
X249670Y133917D01*
X249623Y133939D01*
X249568Y133961D01*
X249495Y133979D01*
X249412Y133994D01*
X249313Y133997D01*
D02*
G37*
G36*
X16429Y125280D02*
X16425D01*
X16422D01*
X16400Y125276D01*
X16367Y125272D01*
X16327Y125265D01*
X16280Y125250D01*
X16233Y125232D01*
X16182Y125203D01*
X16138Y125167D01*
X16134Y125163D01*
X16120Y125145D01*
X16102Y125119D01*
X16083Y125087D01*
X16061Y125043D01*
X16043Y124992D01*
X16029Y124934D01*
X16025Y124868D01*
Y124861D01*
X16029Y124839D01*
X16032Y124806D01*
X16040Y124763D01*
X16054Y124715D01*
X16072Y124668D01*
X16102Y124617D01*
X16138Y124574D01*
X16142Y124570D01*
X16160Y124555D01*
X16182Y124537D01*
X16214Y124515D01*
X16254Y124493D01*
X16302Y124475D01*
X16356Y124461D01*
X16415Y124457D01*
X16418D01*
X16422D01*
X16444D01*
X16477Y124464D01*
X16517Y124472D01*
X16560Y124486D01*
X16608Y124508D01*
X16655Y124537D01*
X16702Y124577D01*
X16706Y124581D01*
X16720Y124599D01*
X16739Y124624D01*
X16760Y124657D01*
X16782Y124701D01*
X16800Y124748D01*
X16815Y124806D01*
X16819Y124868D01*
Y124897D01*
X16811Y124930D01*
X16804Y124974D01*
X16790Y125021D01*
X16771Y125072D01*
X16742Y125119D01*
X16702Y125167D01*
X16699Y125170D01*
X16684Y125185D01*
X16658Y125203D01*
X16626Y125221D01*
X16586Y125243D01*
X16538Y125261D01*
X16487Y125276D01*
X16429Y125280D01*
D02*
G37*
G36*
X15268Y125382D02*
X15261D01*
X15246D01*
X15221Y125378D01*
X15188Y125374D01*
X15148Y125367D01*
X15104Y125356D01*
X15060Y125341D01*
X15013Y125323D01*
X15010Y125320D01*
X14991Y125312D01*
X14969Y125298D01*
X14944Y125276D01*
X14911Y125250D01*
X14878Y125218D01*
X14849Y125181D01*
X14820Y125138D01*
X14817Y125130D01*
X14809Y125116D01*
X14798Y125090D01*
X14787Y125058D01*
X14777Y125018D01*
X14766Y124970D01*
X14758Y124919D01*
X14755Y124868D01*
Y124846D01*
X14758Y124832D01*
X14762Y124788D01*
X14773Y124737D01*
X14791Y124679D01*
X14813Y124617D01*
X14849Y124559D01*
X14897Y124501D01*
X14904Y124493D01*
X14922Y124479D01*
X14955Y124453D01*
X14995Y124428D01*
X15046Y124402D01*
X15108Y124377D01*
X15181Y124362D01*
X15257Y124355D01*
X15261D01*
X15268D01*
X15279D01*
X15293Y124359D01*
X15334Y124362D01*
X15388Y124373D01*
X15443Y124391D01*
X15505Y124417D01*
X15566Y124453D01*
X15625Y124504D01*
X15632Y124512D01*
X15646Y124530D01*
X15672Y124563D01*
X15701Y124606D01*
X15727Y124661D01*
X15752Y124726D01*
X15767Y124799D01*
X15774Y124879D01*
Y124901D01*
X15770Y124916D01*
X15767Y124956D01*
X15756Y125007D01*
X15737Y125065D01*
X15712Y125123D01*
X15676Y125185D01*
X15628Y125240D01*
X15621Y125247D01*
X15603Y125261D01*
X15570Y125283D01*
X15530Y125309D01*
X15475Y125338D01*
X15414Y125360D01*
X15344Y125374D01*
X15268Y125382D01*
D02*
G37*
G36*
X51711Y125378D02*
X51707D01*
X51700D01*
X51689D01*
X51671Y125374D01*
X51649D01*
X51627Y125371D01*
X51572Y125360D01*
X51511Y125341D01*
X51445Y125320D01*
X51380Y125283D01*
X51321Y125236D01*
X51314Y125229D01*
X51299Y125210D01*
X51274Y125178D01*
X51249Y125138D01*
X51219Y125083D01*
X51194Y125021D01*
X51179Y124952D01*
X51172Y124876D01*
Y124854D01*
X51176Y124839D01*
X51179Y124799D01*
X51190Y124752D01*
X51208Y124694D01*
X51234Y124635D01*
X51270Y124577D01*
X51321Y124522D01*
X51328Y124515D01*
X51350Y124501D01*
X51383Y124479D01*
X51430Y124450D01*
X51489Y124424D01*
X51558Y124402D01*
X51642Y124388D01*
X51736Y124381D01*
X51740D01*
X51747D01*
X51762D01*
X51780Y124384D01*
X51805D01*
X51831Y124388D01*
X51889Y124399D01*
X51958Y124413D01*
X52031Y124439D01*
X52100Y124475D01*
X52162Y124522D01*
X52166D01*
X52169Y124530D01*
X52188Y124548D01*
X52213Y124577D01*
X52242Y124617D01*
X52268Y124668D01*
X52293Y124726D01*
X52311Y124792D01*
X52319Y124828D01*
Y124887D01*
X52315Y124901D01*
X52311Y124941D01*
X52297Y124988D01*
X52279Y125047D01*
X52246Y125109D01*
X52206Y125170D01*
X52177Y125199D01*
X52148Y125229D01*
X52144D01*
X52140Y125236D01*
X52129Y125243D01*
X52118Y125250D01*
X52082Y125276D01*
X52031Y125302D01*
X51969Y125331D01*
X51893Y125356D01*
X51805Y125371D01*
X51711Y125378D01*
D02*
G37*
%LPD*%
D10*
X225461Y101815D02*
X270539D01*
Y91185D02*
Y101815D01*
X225461Y91185D02*
X270539D01*
X225461D02*
Y101815D01*
X153909Y124878D02*
X165091D01*
X153909Y102122D02*
Y124878D01*
Y102122D02*
X165091D01*
Y124878D01*
X225461Y103185D02*
Y113815D01*
Y103185D02*
X270539D01*
Y113815D01*
X225461D02*
X270539D01*
X225461Y115185D02*
Y125815D01*
Y115185D02*
X270539D01*
Y125815D01*
X225461D02*
X270539D01*
X225646Y127185D02*
Y137815D01*
Y127185D02*
X270724D01*
Y137815D01*
X225646D02*
X270724D01*
X10185Y70098D02*
X20815D01*
X10185Y44902D02*
Y70098D01*
Y44902D02*
X20815D01*
Y70098D01*
X31185Y44902D02*
X41815D01*
Y70098D01*
X31185D02*
X41815D01*
X31185Y44902D02*
Y70098D01*
X10185Y7244D02*
X20815D01*
Y32441D01*
X10185D02*
X20815D01*
X10185Y7244D02*
Y32441D01*
X31409Y8622D02*
X42591D01*
Y31378D01*
X31409D02*
X42591D01*
X31409Y8622D02*
Y31378D01*
X8909Y138878D02*
X20091D01*
X8909Y116122D02*
Y138878D01*
Y116122D02*
X20091D01*
Y138878D01*
X119213Y4114D02*
X130787D01*
Y65886D01*
X119213D02*
X130787D01*
X119213Y4114D02*
Y65886D01*
X44409Y138878D02*
X55591D01*
X44409Y116122D02*
Y138878D01*
Y116122D02*
X55591D01*
Y138878D01*
M02*
