G04*
G04 #@! TF.GenerationSoftware,Altium Limited,Altium Designer,25.2.1 (25)*
G04*
G04 Layer_Color=32768*
%FSLAX25Y25*%
%MOIN*%
G70*
G04*
G04 #@! TF.SameCoordinates,F9EB4FB7-7235-4222-B540-9B3DE50980C4*
G04*
G04*
G04 #@! TF.FilePolarity,Positive*
G04*
G01*
G75*
%ADD10C,0.00787*%
%ADD39C,0.00394*%
%ADD40C,0.00197*%
D10*
X3779Y93000D02*
X3825Y91994D01*
X3960Y90996D01*
X4184Y90015D01*
X4495Y89057D01*
X4891Y88132D01*
X5368Y87245D01*
X5922Y86405D01*
X6550Y85618D01*
X7246Y84890D01*
X8004Y84228D01*
X8819Y83636D01*
X9683Y83119D01*
X10590Y82683D01*
X11533Y82329D01*
X12503Y82061D01*
X13494Y81881D01*
X14497Y81791D01*
X15503D01*
X16506Y81881D01*
X17497Y82061D01*
X18467Y82329D01*
X19410Y82683D01*
X20317Y83119D01*
X21181Y83636D01*
X21996Y84228D01*
X22754Y84890D01*
X23450Y85618D01*
X24078Y86405D01*
X24632Y87245D01*
X25109Y88132D01*
X25505Y89057D01*
X25816Y90015D01*
X26040Y90996D01*
X26175Y91994D01*
X26221Y93000D01*
Y93000D02*
X26175Y94006D01*
X26040Y95003D01*
X25816Y95985D01*
X25505Y96943D01*
X25109Y97868D01*
X24632Y98755D01*
X24078Y99595D01*
X23450Y100382D01*
X22754Y101110D01*
X21996Y101772D01*
X21181Y102364D01*
X20317Y102881D01*
X19410Y103317D01*
X18467Y103671D01*
X17497Y103939D01*
X16506Y104119D01*
X15503Y104209D01*
X14497D01*
X13494Y104119D01*
X12503Y103939D01*
X11533Y103671D01*
X10590Y103317D01*
X9683Y102881D01*
X8819Y102364D01*
X8004Y101772D01*
X7246Y101110D01*
X6550Y100382D01*
X5922Y99595D01*
X5368Y98755D01*
X4891Y97868D01*
X4495Y96943D01*
X4184Y95985D01*
X3960Y95003D01*
X3825Y94006D01*
X3779Y93000D01*
X225461Y101815D02*
X270539D01*
Y91185D02*
Y101815D01*
X225461Y91185D02*
X270539D01*
X225461D02*
Y101815D01*
X153909Y124878D02*
X165091D01*
X153909Y102122D02*
Y124878D01*
Y102122D02*
X165091D01*
Y124878D01*
X225461Y103185D02*
Y113815D01*
Y103185D02*
X270539D01*
Y113815D01*
X225461D02*
X270539D01*
X225461Y115185D02*
Y125815D01*
Y115185D02*
X270539D01*
Y125815D01*
X225461D02*
X270539D01*
X225646Y127185D02*
Y137815D01*
Y127185D02*
X270724D01*
Y137815D01*
X225646D02*
X270724D01*
X10185Y70098D02*
X20815D01*
X10185Y44902D02*
Y70098D01*
Y44902D02*
X20815D01*
Y70098D01*
X31185Y44902D02*
X41815D01*
Y70098D01*
X31185D02*
X41815D01*
X31185Y44902D02*
Y70098D01*
X10185Y7244D02*
X20815D01*
Y32441D01*
X10185D02*
X20815D01*
X10185Y7244D02*
Y32441D01*
X31409Y8622D02*
X42591D01*
Y31378D01*
X31409D02*
X42591D01*
X31409Y8622D02*
Y31378D01*
X8909Y138878D02*
X20091D01*
X8909Y116122D02*
Y138878D01*
Y116122D02*
X20091D01*
Y138878D01*
X119213Y4114D02*
X130787D01*
Y65886D01*
X119213D02*
X130787D01*
X119213Y4114D02*
Y65886D01*
X44409Y138878D02*
X55591D01*
X44409Y116122D02*
Y138878D01*
Y116122D02*
X55591D01*
Y138878D01*
D39*
X196500Y116532D02*
Y120469D01*
X194532Y118500D02*
X198469D01*
D40*
X77555Y142732D02*
X115445D01*
X77555Y4268D02*
X115445D01*
Y142732D01*
X77555Y4268D02*
Y142732D01*
X153417Y87378D02*
X165583D01*
X153417Y4622D02*
Y87378D01*
Y4622D02*
X165583D01*
Y87378D01*
X188016Y85984D02*
X269984D01*
Y4016D02*
Y85984D01*
X188016Y4016D02*
X269984D01*
X188016D02*
Y85984D01*
X43917Y79878D02*
X56083D01*
X43917Y37122D02*
Y79878D01*
Y37122D02*
X56083D01*
Y79878D01*
X72878Y94417D02*
Y106583D01*
X30122D02*
X72878D01*
X30122Y94417D02*
Y106583D01*
Y94417D02*
X72878D01*
X118917Y81622D02*
X131083D01*
Y124378D01*
X118917D02*
X131083D01*
X118917Y81622D02*
Y124378D01*
M02*
