G04*
G04 #@! TF.GenerationSoftware,Altium Limited,Altium Designer,25.2.1 (25)*
G04*
G04 Layer_Color=65535*
%FSLAX25Y25*%
%MOIN*%
G70*
G04*
G04 #@! TF.SameCoordinates,D5E538CD-2188-41BB-B8E0-149CA04C5D28*
G04*
G04*
G04 #@! TF.FilePolarity,Positive*
G04*
G01*
G75*
%ADD10C,0.00787*%
%ADD11C,0.00984*%
%ADD12C,0.00591*%
%ADD13C,0.01000*%
%ADD14C,0.00500*%
D10*
X237874Y135000D02*
G03*
X237874Y135000I-394J0D01*
G01*
X66315Y139000D02*
G03*
X66315Y139000I-394J0D01*
G01*
X195783Y107079D02*
Y116921D01*
Y107079D02*
X220587D01*
Y116921D01*
X195783D02*
X220587D01*
X196098Y64079D02*
Y73921D01*
Y64079D02*
X220902D01*
Y73921D01*
X196098D02*
X220902D01*
X195783Y85579D02*
Y95421D01*
Y85579D02*
X220587D01*
Y95421D01*
X195783D02*
X220587D01*
X195783Y128579D02*
Y138421D01*
Y128579D02*
X220587D01*
Y138421D01*
X195783D02*
X220587D01*
X31303Y62516D02*
X41697D01*
Y84484D01*
X31303D02*
X41697D01*
X31303Y62516D02*
Y84484D01*
X149051Y101028D02*
Y141972D01*
X147083Y101028D02*
X165193D01*
Y141972D01*
X147083D02*
X165193D01*
X147083Y101028D02*
Y141972D01*
X6000Y108594D02*
Y120406D01*
X234295Y9409D02*
Y50591D01*
X223705Y9409D02*
X234295D01*
X223705D02*
Y50591D01*
X234295D01*
X31205Y99409D02*
Y140591D01*
X41795D01*
Y99409D02*
Y140591D01*
X31205Y99409D02*
X41795D01*
X16079Y65126D02*
X17161D01*
X24839D02*
X25921D01*
Y80874D01*
X16079D02*
X17161D01*
X24839D02*
X25921D01*
X16079Y65126D02*
Y80874D01*
X118795Y83409D02*
Y124591D01*
X108205Y83409D02*
X118795D01*
X108205D02*
Y124591D01*
X118795D01*
X31079Y23126D02*
X32161D01*
X39839D02*
X40921D01*
Y38874D01*
X31079D02*
X32161D01*
X39839D02*
X40921D01*
X31079Y23126D02*
Y38874D01*
X149205Y4909D02*
Y86091D01*
X159795D01*
Y4909D02*
Y86091D01*
X149205Y4909D02*
X159795D01*
X108106Y15500D02*
X118894D01*
X108106Y5008D02*
X118894D01*
Y65992D01*
X108106D02*
X118894D01*
X108106Y5008D02*
Y65992D01*
X16079Y23626D02*
X17161D01*
X24839D02*
X25921D01*
Y39374D01*
X16079D02*
X17161D01*
X24839D02*
X25921D01*
X16079Y23626D02*
Y39374D01*
X187803Y47984D02*
X198197D01*
X187803Y26016D02*
Y47984D01*
Y26016D02*
X198197D01*
Y47984D01*
D11*
X36992Y60016D02*
G03*
X36992Y60016I-492J0D01*
G01*
X163126Y103587D02*
G03*
X163126Y103587I-492J0D01*
G01*
X229492Y7638D02*
G03*
X229492Y7638I-492J0D01*
G01*
X36992Y142362D02*
G03*
X36992Y142362I-492J0D01*
G01*
X113992Y81638D02*
G03*
X113992Y81638I-492J0D01*
G01*
X154992Y87862D02*
G03*
X154992Y87862I-492J0D01*
G01*
X121276Y10500D02*
G03*
X121276Y10500I-492J0D01*
G01*
X193492Y50484D02*
G03*
X193492Y50484I-492J0D01*
G01*
D12*
X25390Y114500D02*
G03*
X25390Y114500I-10827J0D01*
G01*
D13*
X258000Y23500D02*
X323000D01*
X258000Y38500D02*
X323000D01*
Y23500D02*
Y38500D01*
X258000Y23500D02*
Y38500D01*
X167500Y134498D02*
Y130499D01*
X169499Y128500D01*
X171499Y130499D01*
Y134498D01*
X177497Y133498D02*
X176497Y134498D01*
X174498D01*
X173498Y133498D01*
Y129500D01*
X174498Y128500D01*
X176497D01*
X177497Y129500D01*
X183495Y133498D02*
X182495Y134498D01*
X180496D01*
X179496Y133498D01*
Y129500D01*
X180496Y128500D01*
X182495D01*
X183495Y129500D01*
X123000Y101998D02*
Y96000D01*
Y97999D01*
X126999Y101998D01*
X124000Y98999D01*
X126999Y96000D01*
X132997Y100998D02*
X131997Y101998D01*
X129998D01*
X128998Y100998D01*
Y97000D01*
X129998Y96000D01*
X131997D01*
X132997Y97000D01*
X134996Y101998D02*
Y96000D01*
Y97999D01*
X138995Y101998D01*
X135996Y98999D01*
X138995Y96000D01*
X237500Y14999D02*
X241499D01*
X239499Y16998D02*
Y13000D01*
X247497Y17998D02*
X243498D01*
Y14999D01*
X245497Y15999D01*
X246497D01*
X247497Y14999D01*
Y13000D01*
X246497Y12000D01*
X244498D01*
X243498Y13000D01*
X249496Y17998D02*
Y13999D01*
X251496Y12000D01*
X253495Y13999D01*
Y17998D01*
X167499Y32998D02*
X166499Y33998D01*
X164500D01*
X163500Y32998D01*
Y29000D01*
X164500Y28000D01*
X166499D01*
X167499Y29000D01*
X173497Y32998D02*
X172497Y33998D01*
X170498D01*
X169498Y32998D01*
Y31999D01*
X170498Y30999D01*
X172497D01*
X173497Y29999D01*
Y29000D01*
X172497Y28000D01*
X170498D01*
X169498Y29000D01*
X179495Y32998D02*
X178495Y33998D01*
X176496D01*
X175496Y32998D01*
Y31999D01*
X176496Y30999D01*
X178495D01*
X179495Y29999D01*
Y29000D01*
X178495Y28000D01*
X176496D01*
X175496Y29000D01*
X123000Y91998D02*
Y86000D01*
X125999D01*
X126999Y87000D01*
Y87999D01*
X125999Y88999D01*
X123000D01*
X125999D01*
X126999Y89999D01*
Y90998D01*
X125999Y91998D01*
X123000D01*
X128998D02*
Y86000D01*
X132997D01*
X134996Y91998D02*
Y86000D01*
Y87999D01*
X138995Y91998D01*
X135996Y88999D01*
X138995Y86000D01*
X204999Y43998D02*
X203999Y44998D01*
X202000D01*
X201000Y43998D01*
Y42999D01*
X202000Y41999D01*
X203999D01*
X204999Y40999D01*
Y40000D01*
X203999Y39000D01*
X202000D01*
X201000Y40000D01*
X206998Y39000D02*
Y44998D01*
X209997D01*
X210997Y43998D01*
Y41999D01*
X209997Y40999D01*
X206998D01*
X212996Y39000D02*
X214996D01*
X213996D01*
Y44998D01*
X212996Y43998D01*
X171499Y123498D02*
X170499Y124498D01*
X168500D01*
X167500Y123498D01*
Y119500D01*
X168500Y118500D01*
X170499D01*
X171499Y119500D01*
Y121499D01*
X169499D01*
X173498Y118500D02*
Y124498D01*
X177497Y118500D01*
Y124498D01*
X179496D02*
Y118500D01*
X182495D01*
X183495Y119500D01*
Y123498D01*
X182495Y124498D01*
X179496D01*
X163500Y70499D02*
X167499D01*
X165499Y72498D02*
Y68500D01*
X173497Y73498D02*
X169498D01*
Y70499D01*
X171497Y71499D01*
X172497D01*
X173497Y70499D01*
Y68500D01*
X172497Y67500D01*
X170498D01*
X169498Y68500D01*
X175496Y73498D02*
Y69499D01*
X177496Y67500D01*
X179495Y69499D01*
Y73498D01*
X48499Y106998D02*
X47499Y107998D01*
X45500D01*
X44500Y106998D01*
Y103000D01*
X45500Y102000D01*
X47499D01*
X48499Y103000D01*
Y104999D01*
X46499D01*
X50498Y102000D02*
Y107998D01*
X54497Y102000D01*
Y107998D01*
X56496D02*
Y102000D01*
X59495D01*
X60495Y103000D01*
Y106998D01*
X59495Y107998D01*
X56496D01*
X167500Y114498D02*
Y108500D01*
X170499D01*
X171499Y109500D01*
Y110499D01*
X170499Y111499D01*
X167500D01*
X170499D01*
X171499Y112499D01*
Y113498D01*
X170499Y114498D01*
X167500D01*
X173498Y108500D02*
Y112499D01*
X175497Y114498D01*
X177497Y112499D01*
Y108500D01*
Y111499D01*
X173498D01*
X179496Y114498D02*
X183495D01*
X181495D01*
Y108500D01*
X167499Y12498D02*
X166499Y13498D01*
X164500D01*
X163500Y12498D01*
Y8500D01*
X164500Y7500D01*
X166499D01*
X167499Y8500D01*
X173497Y12498D02*
X172497Y13498D01*
X170498D01*
X169498Y12498D01*
Y11499D01*
X170498Y10499D01*
X172497D01*
X173497Y9499D01*
Y8500D01*
X172497Y7500D01*
X170498D01*
X169498Y8500D01*
X179495Y12498D02*
X178495Y13498D01*
X176496D01*
X175496Y12498D01*
Y8500D01*
X176496Y7500D01*
X178495D01*
X179495Y8500D01*
X167499Y82498D02*
X166499Y83498D01*
X164500D01*
X163500Y82498D01*
Y78500D01*
X164500Y77500D01*
X166499D01*
X167499Y78500D01*
Y80499D01*
X165499D01*
X169498Y77500D02*
Y83498D01*
X173497Y77500D01*
Y83498D01*
X175496D02*
Y77500D01*
X178495D01*
X179495Y78500D01*
Y82498D01*
X178495Y83498D01*
X175496D01*
X163500Y47500D02*
Y53498D01*
X165499Y51499D01*
X167499Y53498D01*
Y47500D01*
X173497Y52498D02*
X172497Y53498D01*
X170498D01*
X169498Y52498D01*
Y51499D01*
X170498Y50499D01*
X172497D01*
X173497Y49499D01*
Y48500D01*
X172497Y47500D01*
X170498D01*
X169498Y48500D01*
X178495Y53498D02*
X176496D01*
X175496Y52498D01*
Y48500D01*
X176496Y47500D01*
X178495D01*
X179495Y48500D01*
Y52498D01*
X178495Y53498D01*
X237500Y44999D02*
X241499D01*
X239499Y46998D02*
Y43000D01*
X247497Y47998D02*
X243498D01*
Y44999D01*
X245497Y45999D01*
X246497D01*
X247497Y44999D01*
Y43000D01*
X246497Y42000D01*
X244498D01*
X243498Y43000D01*
X249496Y47998D02*
Y43999D01*
X251496Y42000D01*
X253495Y43999D01*
Y47998D01*
X123000Y106000D02*
Y111998D01*
X125999D01*
X126999Y110998D01*
Y108999D01*
X125999Y107999D01*
X123000D01*
X132997Y110998D02*
X131997Y111998D01*
X129998D01*
X128998Y110998D01*
Y107000D01*
X129998Y106000D01*
X131997D01*
X132997Y107000D01*
X134996Y111998D02*
Y106000D01*
Y108999D01*
X138995D01*
Y111998D01*
Y106000D01*
X237500Y34999D02*
X241499D01*
X239499Y36998D02*
Y33000D01*
X247497Y37998D02*
X243498D01*
Y34999D01*
X245497Y35999D01*
X246497D01*
X247497Y34999D01*
Y33000D01*
X246497Y32000D01*
X244498D01*
X243498Y33000D01*
X249496Y37998D02*
Y33999D01*
X251496Y32000D01*
X253495Y33999D01*
Y37998D01*
X126999Y32498D02*
X125999Y33498D01*
X124000D01*
X123000Y32498D01*
Y28500D01*
X124000Y27500D01*
X125999D01*
X126999Y28500D01*
Y30499D01*
X124999D01*
X128998Y27500D02*
Y33498D01*
X132997Y27500D01*
Y33498D01*
X134996D02*
Y27500D01*
X137995D01*
X138995Y28500D01*
Y32498D01*
X137995Y33498D01*
X134996D01*
X48499Y137998D02*
X46499D01*
X47499D01*
Y133000D01*
X46499Y132000D01*
X45500D01*
X44500Y133000D01*
X54497Y136998D02*
X53497Y137998D01*
X51498D01*
X50498Y136998D01*
Y135999D01*
X51498Y134999D01*
X53497D01*
X54497Y133999D01*
Y133000D01*
X53497Y132000D01*
X51498D01*
X50498Y133000D01*
X56496Y137998D02*
Y136998D01*
X58495Y134999D01*
X60495Y136998D01*
Y137998D01*
X58495Y134999D02*
Y132000D01*
X264499Y33498D02*
X263499Y34498D01*
X261500D01*
X260500Y33498D01*
Y29500D01*
X261500Y28500D01*
X263499D01*
X264499Y29500D01*
Y31499D01*
X262499D01*
X266498Y28500D02*
Y34498D01*
X269497D01*
X270497Y33498D01*
Y31499D01*
X269497Y30499D01*
X266498D01*
X268497D02*
X270497Y28500D01*
X275495Y34498D02*
X273496D01*
X272496Y33498D01*
Y29500D01*
X273496Y28500D01*
X275495D01*
X276495Y29500D01*
Y33498D01*
X275495Y34498D01*
X278494D02*
Y29500D01*
X279494Y28500D01*
X281493D01*
X282493Y29500D01*
Y34498D01*
X284492Y28500D02*
Y34498D01*
X287491D01*
X288491Y33498D01*
Y31499D01*
X287491Y30499D01*
X284492D01*
X296488Y34498D02*
X300487D01*
Y33498D01*
X296488Y29500D01*
Y28500D01*
X300487D01*
X306485Y34498D02*
X302486D01*
Y28500D01*
X306485D01*
X302486Y31499D02*
X304486D01*
X308485Y34498D02*
X312483D01*
X310484D01*
Y28500D01*
X314482D02*
Y32499D01*
X316482Y34498D01*
X318481Y32499D01*
Y28500D01*
Y31499D01*
X314482D01*
X163500Y23498D02*
Y17500D01*
X166499D01*
X167499Y18500D01*
Y22498D01*
X166499Y23498D01*
X163500D01*
X173497Y22498D02*
X172497Y23498D01*
X170498D01*
X169498Y22498D01*
Y18500D01*
X170498Y17500D01*
X172497D01*
X173497Y18500D01*
X123000Y17500D02*
Y23498D01*
X124999Y21499D01*
X126999Y23498D01*
Y17500D01*
X132997Y22498D02*
X131997Y23498D01*
X129998D01*
X128998Y22498D01*
Y21499D01*
X129998Y20499D01*
X131997D01*
X132997Y19499D01*
Y18500D01*
X131997Y17500D01*
X129998D01*
X128998Y18500D01*
X134996Y23498D02*
X136995D01*
X135996D01*
Y17500D01*
X134996D01*
X136995D01*
X167499Y62998D02*
X166499Y63998D01*
X164500D01*
X163500Y62998D01*
Y61999D01*
X164500Y60999D01*
X166499D01*
X167499Y59999D01*
Y59000D01*
X166499Y58000D01*
X164500D01*
X163500Y59000D01*
X169498Y63998D02*
Y58000D01*
X173497D01*
X175496Y63998D02*
Y58000D01*
Y59999D01*
X179495Y63998D01*
X176496Y60999D01*
X179495Y58000D01*
X48499Y80498D02*
X47499Y81498D01*
X45500D01*
X44500Y80498D01*
Y76500D01*
X45500Y75500D01*
X47499D01*
X48499Y76500D01*
Y78499D01*
X46499D01*
X50498Y75500D02*
Y81498D01*
X54497Y75500D01*
Y81498D01*
X56496D02*
Y75500D01*
X59495D01*
X60495Y76500D01*
Y80498D01*
X59495Y81498D01*
X56496D01*
X44500Y71498D02*
Y65500D01*
X47499D01*
X48499Y66500D01*
Y67499D01*
X47499Y68499D01*
X44500D01*
X47499D01*
X48499Y69499D01*
Y70498D01*
X47499Y71498D01*
X44500D01*
X50498Y65500D02*
Y69499D01*
X52497Y71498D01*
X54497Y69499D01*
Y65500D01*
Y68499D01*
X50498D01*
X56496Y71498D02*
X60495D01*
X58495D01*
Y65500D01*
X123000Y57500D02*
Y63498D01*
X125999D01*
X126999Y62498D01*
Y60499D01*
X125999Y59499D01*
X123000D01*
X124999D02*
X126999Y57500D01*
X132997Y62498D02*
X131997Y63498D01*
X129998D01*
X128998Y62498D01*
Y61499D01*
X129998Y60499D01*
X131997D01*
X132997Y59499D01*
Y58500D01*
X131997Y57500D01*
X129998D01*
X128998Y58500D01*
X134996Y63498D02*
X138995D01*
X136995D01*
Y57500D01*
X126999Y52498D02*
X125999Y53498D01*
X124000D01*
X123000Y52498D01*
Y51499D01*
X124000Y50499D01*
X125999D01*
X126999Y49499D01*
Y48500D01*
X125999Y47500D01*
X124000D01*
X123000Y48500D01*
X128998Y53498D02*
Y47500D01*
X132997D01*
X134996Y53498D02*
Y47500D01*
Y49499D01*
X138995Y53498D01*
X135996Y50499D01*
X138995Y47500D01*
X123000Y37500D02*
Y43498D01*
X124999Y41499D01*
X126999Y43498D01*
Y37500D01*
X132997Y42498D02*
X131997Y43498D01*
X129998D01*
X128998Y42498D01*
Y41499D01*
X129998Y40499D01*
X131997D01*
X132997Y39499D01*
Y38500D01*
X131997Y37500D01*
X129998D01*
X128998Y38500D01*
X137995Y43498D02*
X135996D01*
X134996Y42498D01*
Y38500D01*
X135996Y37500D01*
X137995D01*
X138995Y38500D01*
Y42498D01*
X137995Y43498D01*
X237500Y24999D02*
X241499D01*
X239499Y26998D02*
Y23000D01*
X247497Y27998D02*
X243498D01*
Y24999D01*
X245497Y25999D01*
X246497D01*
X247497Y24999D01*
Y23000D01*
X246497Y22000D01*
X244498D01*
X243498Y23000D01*
X249496Y27998D02*
Y23999D01*
X251496Y22000D01*
X253495Y23999D01*
Y27998D01*
X123000Y9999D02*
X126999D01*
X124999Y11998D02*
Y8000D01*
X132997Y12998D02*
X128998D01*
Y9999D01*
X130997Y10999D01*
X131997D01*
X132997Y9999D01*
Y8000D01*
X131997Y7000D01*
X129998D01*
X128998Y8000D01*
X134996Y12998D02*
Y8999D01*
X136995Y7000D01*
X138995Y8999D01*
Y12998D01*
X163500Y37500D02*
Y43498D01*
X165499Y41499D01*
X167499Y43498D01*
Y37500D01*
X173497Y42498D02*
X172497Y43498D01*
X170498D01*
X169498Y42498D01*
Y41499D01*
X170498Y40499D01*
X172497D01*
X173497Y39499D01*
Y38500D01*
X172497Y37500D01*
X170498D01*
X169498Y38500D01*
X175496Y43498D02*
X177496D01*
X176496D01*
Y37500D01*
X175496D01*
X177496D01*
X48499Y127998D02*
X46499D01*
X47499D01*
Y123000D01*
X46499Y122000D01*
X45500D01*
X44500Y123000D01*
X54497Y126998D02*
X53497Y127998D01*
X51498D01*
X50498Y126998D01*
Y125999D01*
X51498Y124999D01*
X53497D01*
X54497Y123999D01*
Y123000D01*
X53497Y122000D01*
X51498D01*
X50498Y123000D01*
X56496Y127998D02*
X60495Y122000D01*
Y127998D02*
X56496Y122000D01*
X204999Y33998D02*
X203999Y34998D01*
X202000D01*
X201000Y33998D01*
Y32999D01*
X202000Y31999D01*
X203999D01*
X204999Y30999D01*
Y30000D01*
X203999Y29000D01*
X202000D01*
X201000Y30000D01*
X206998Y29000D02*
Y34998D01*
X209997D01*
X210997Y33998D01*
Y31999D01*
X209997Y30999D01*
X206998D01*
X216995Y29000D02*
X212996D01*
X216995Y32999D01*
Y33998D01*
X215995Y34998D01*
X213996D01*
X212996Y33998D01*
X44500Y114999D02*
X48499D01*
X46499Y116998D02*
Y113000D01*
X54497Y117998D02*
X50498D01*
Y114999D01*
X52497Y115999D01*
X53497D01*
X54497Y114999D01*
Y113000D01*
X53497Y112000D01*
X51498D01*
X50498Y113000D01*
X56496Y117998D02*
Y113999D01*
X58495Y112000D01*
X60495Y113999D01*
Y117998D01*
X126999Y120998D02*
X125999Y121998D01*
X124000D01*
X123000Y120998D01*
Y119999D01*
X124000Y118999D01*
X125999D01*
X126999Y117999D01*
Y117000D01*
X125999Y116000D01*
X124000D01*
X123000Y117000D01*
X128998Y116000D02*
Y121998D01*
X131997D01*
X132997Y120998D01*
Y118999D01*
X131997Y117999D01*
X128998D01*
X130997D02*
X132997Y116000D01*
X134996Y121998D02*
X138995D01*
X136995D01*
Y116000D01*
X186300Y120700D02*
Y126698D01*
X189299D01*
X190299Y125698D01*
Y123699D01*
X189299Y122699D01*
X186300D01*
X188299D02*
X190299Y120700D01*
X192298Y125698D02*
X193298Y126698D01*
X195297D01*
X196297Y125698D01*
Y124699D01*
X195297Y123699D01*
X194297D01*
X195297D01*
X196297Y122699D01*
Y121700D01*
X195297Y120700D01*
X193298D01*
X192298Y121700D01*
X186600Y77700D02*
Y83698D01*
X189599D01*
X190599Y82698D01*
Y80699D01*
X189599Y79699D01*
X186600D01*
X188599D02*
X190599Y77700D01*
X192598D02*
X194597D01*
X193598D01*
Y83698D01*
X192598Y82698D01*
X186300Y99200D02*
Y105198D01*
X189299D01*
X190299Y104198D01*
Y102199D01*
X189299Y101199D01*
X186300D01*
X188299D02*
X190299Y99200D01*
X196297D02*
X192298D01*
X196297Y103199D01*
Y104198D01*
X195297Y105198D01*
X193298D01*
X192298Y104198D01*
X186300Y142200D02*
Y148198D01*
X189299D01*
X190299Y147198D01*
Y145199D01*
X189299Y144199D01*
X186300D01*
X188299D02*
X190299Y142200D01*
X195297D02*
Y148198D01*
X192298Y145199D01*
X196297D01*
X237700Y150098D02*
Y145100D01*
X238700Y144100D01*
X240699D01*
X241699Y145100D01*
Y150098D01*
X243698Y149098D02*
X244698Y150098D01*
X246697D01*
X247697Y149098D01*
Y148099D01*
X246697Y147099D01*
X245697D01*
X246697D01*
X247697Y146099D01*
Y145100D01*
X246697Y144100D01*
X244698D01*
X243698Y145100D01*
X66100Y152298D02*
Y147300D01*
X67100Y146300D01*
X69099D01*
X70099Y147300D01*
Y152298D01*
X72098Y146300D02*
X74097D01*
X73098D01*
Y152298D01*
X72098Y151298D01*
X35499Y94298D02*
X33499D01*
X34499D01*
Y89300D01*
X33499Y88300D01*
X32500D01*
X31500Y89300D01*
X37498Y88300D02*
X39497D01*
X38498D01*
Y94298D01*
X37498Y93298D01*
X147700Y151398D02*
Y146400D01*
X148700Y145400D01*
X150699D01*
X151699Y146400D01*
Y151398D01*
X157697Y145400D02*
X153698D01*
X157697Y149399D01*
Y150398D01*
X156697Y151398D01*
X154698D01*
X153698Y150398D01*
X7899Y134098D02*
X6899Y135098D01*
X4900D01*
X3900Y134098D01*
Y130100D01*
X4900Y129100D01*
X6899D01*
X7899Y130100D01*
X9898Y134098D02*
X10898Y135098D01*
X12897D01*
X13897Y134098D01*
Y133099D01*
X12897Y132099D01*
X11897D01*
X12897D01*
X13897Y131099D01*
Y130100D01*
X12897Y129100D01*
X10898D01*
X9898Y130100D01*
X227799Y60498D02*
X225799D01*
X226799D01*
Y55500D01*
X225799Y54500D01*
X224800D01*
X223800Y55500D01*
X229798Y59498D02*
X230798Y60498D01*
X232797D01*
X233797Y59498D01*
Y58499D01*
X232797Y57499D01*
X231797D01*
X232797D01*
X233797Y56499D01*
Y55500D01*
X232797Y54500D01*
X230798D01*
X229798Y55500D01*
X35299Y152298D02*
X33299D01*
X34299D01*
Y147300D01*
X33299Y146300D01*
X32300D01*
X31300Y147300D01*
X41297Y146300D02*
X37298D01*
X41297Y150299D01*
Y151298D01*
X40297Y152298D01*
X38298D01*
X37298Y151298D01*
X20299Y93998D02*
X19299Y94998D01*
X17300D01*
X16300Y93998D01*
Y90000D01*
X17300Y89000D01*
X19299D01*
X20299Y90000D01*
X26297Y89000D02*
X22298D01*
X26297Y92999D01*
Y93998D01*
X25297Y94998D01*
X23298D01*
X22298Y93998D01*
X112299Y134498D02*
X110299D01*
X111299D01*
Y129500D01*
X110299Y128500D01*
X109300D01*
X108300Y129500D01*
X117297Y128500D02*
Y134498D01*
X114298Y131499D01*
X118297D01*
X35299Y51998D02*
X34299Y52998D01*
X32300D01*
X31300Y51998D01*
Y48000D01*
X32300Y47000D01*
X34299D01*
X35299Y48000D01*
X37298Y52998D02*
Y47000D01*
X41297D01*
X43296Y52998D02*
Y47000D01*
Y48999D01*
X47295Y52998D01*
X44296Y49999D01*
X47295Y47000D01*
X153299Y97798D02*
X151299D01*
X152299D01*
Y92800D01*
X151299Y91800D01*
X150300D01*
X149300Y92800D01*
X159297Y97798D02*
X155298D01*
Y94799D01*
X157297Y95799D01*
X158297D01*
X159297Y94799D01*
Y92800D01*
X158297Y91800D01*
X156298D01*
X155298Y92800D01*
X112299Y75798D02*
X110299D01*
X111299D01*
Y70800D01*
X110299Y69800D01*
X109300D01*
X108300Y70800D01*
X114298Y75798D02*
X118297D01*
Y74798D01*
X114298Y70800D01*
Y69800D01*
X20299Y52498D02*
X19299Y53498D01*
X17300D01*
X16300Y52498D01*
Y48500D01*
X17300Y47500D01*
X19299D01*
X20299Y48500D01*
X22298Y47500D02*
X24297D01*
X23298D01*
Y53498D01*
X22298Y52498D01*
X191999Y60498D02*
X189999D01*
X190999D01*
Y55500D01*
X189999Y54500D01*
X189000D01*
X188000Y55500D01*
X197997Y60498D02*
X195997Y59498D01*
X193998Y57499D01*
Y55500D01*
X194998Y54500D01*
X196997D01*
X197997Y55500D01*
Y56499D01*
X196997Y57499D01*
X193998D01*
D14*
X240000Y60000D02*
Y140000D01*
X320000D01*
Y60000D02*
Y140000D01*
X240000Y60000D02*
X320000D01*
X71750Y142720D02*
X100250D01*
X71750Y5280D02*
X100250D01*
M02*
