G04*
G04 #@! TF.GenerationSoftware,Altium Limited,Altium Designer,25.2.1 (25)*
G04*
G04 Layer_Physical_Order=2*
G04 Layer_Color=16711680*
%FSLAX25Y25*%
%MOIN*%
G70*
G04*
G04 #@! TF.SameCoordinates,D5E538CD-2188-41BB-B8E0-149CA04C5D28*
G04*
G04*
G04 #@! TF.FilePolarity,Positive*
G04*
G01*
G75*
%ADD15C,0.04921*%
%ADD16R,0.04921X0.04921*%
%ADD21C,0.06181*%
%ADD22R,0.06181X0.06181*%
%ADD25C,0.04724*%
%ADD26R,0.04724X0.04724*%
%ADD29R,0.04724X0.04724*%
%ADD30C,0.01500*%
%ADD31C,0.05150*%
%ADD32R,0.05150X0.05150*%
%ADD33C,0.07087*%
%ADD34R,0.07087X0.07087*%
%ADD35C,0.06299*%
G04:AMPARAMS|DCode=36|XSize=62.99mil|YSize=62.99mil|CornerRadius=15.75mil|HoleSize=0mil|Usage=FLASHONLY|Rotation=90.000|XOffset=0mil|YOffset=0mil|HoleType=Round|Shape=RoundedRectangle|*
%AMROUNDEDRECTD36*
21,1,0.06299,0.03150,0,0,90.0*
21,1,0.03150,0.06299,0,0,90.0*
1,1,0.03150,0.01575,0.01575*
1,1,0.03150,0.01575,-0.01575*
1,1,0.03150,-0.01575,-0.01575*
1,1,0.03150,-0.01575,0.01575*
%
%ADD36ROUNDEDRECTD36*%
D15*
X227870Y112000D02*
D03*
X228185Y69000D02*
D03*
X227870Y90500D02*
D03*
Y133500D02*
D03*
X70500Y129000D02*
D03*
Y119000D02*
D03*
Y109000D02*
D03*
Y99000D02*
D03*
Y89000D02*
D03*
Y79000D02*
D03*
Y69000D02*
D03*
Y59000D02*
D03*
Y49000D02*
D03*
Y39000D02*
D03*
Y29000D02*
D03*
Y19000D02*
D03*
Y9000D02*
D03*
X101500D02*
D03*
Y19000D02*
D03*
Y29000D02*
D03*
Y39000D02*
D03*
Y49000D02*
D03*
Y59000D02*
D03*
Y69000D02*
D03*
Y79000D02*
D03*
Y89000D02*
D03*
Y99000D02*
D03*
Y109000D02*
D03*
Y119000D02*
D03*
Y129000D02*
D03*
Y139000D02*
D03*
D16*
X188500Y112000D02*
D03*
X188815Y69000D02*
D03*
X188500Y90500D02*
D03*
Y133500D02*
D03*
X70500Y139000D02*
D03*
D21*
X36500Y78500D02*
D03*
X113500Y60500D02*
D03*
Y50500D02*
D03*
Y40500D02*
D03*
Y30500D02*
D03*
Y20500D02*
D03*
X193000Y32000D02*
D03*
D22*
X36500Y68500D02*
D03*
X113500Y10500D02*
D03*
X193000Y42000D02*
D03*
D25*
X18500Y114500D02*
D03*
X21000Y82843D02*
D03*
X36000Y40843D02*
D03*
X21000Y41343D02*
D03*
D26*
X10626Y114500D02*
D03*
D29*
X21000Y63157D02*
D03*
X36000Y21157D02*
D03*
X21000Y21657D02*
D03*
D30*
X66400Y83100D02*
X97400D01*
X41100D02*
X66400D01*
Y73100D02*
X70500Y69000D01*
X66400Y73100D02*
Y83100D01*
X101500Y89000D02*
X113500D01*
X168815D01*
X188815Y69000D01*
X101500Y19000D02*
X105000Y15500D01*
X139500D01*
X154500Y30500D01*
X101500Y9000D02*
X104700Y5800D01*
X139800D01*
X154500Y20500D01*
X20126Y105000D02*
X36500D01*
X10626Y114500D02*
X20126Y105000D01*
X36500Y78500D02*
X41100Y83100D01*
X97400D02*
X101500Y79000D01*
X126500D01*
X128000Y80500D01*
X154500D01*
X158500Y121500D02*
X218370D01*
X227870Y112000D01*
X228185Y69000D02*
X234185Y75000D01*
X244500D01*
X315500D01*
X36500Y125000D02*
X45000Y133500D01*
X97000D01*
X101500Y129000D01*
X36500Y135000D02*
X45000Y143500D01*
X97000D01*
X101500Y139000D01*
Y99000D02*
X113500D01*
X180000D01*
X188500Y90500D01*
X101500Y39000D02*
X106700D01*
X108200Y40500D01*
X113500D01*
X123500Y50500D01*
X154500D01*
X110000Y20500D02*
X113500D01*
X101500Y29000D02*
X110000Y20500D01*
X113500D02*
X133500Y40500D01*
X154500D01*
X36000Y40843D02*
X44157Y49000D01*
X70500D01*
X18500Y114500D02*
X22700Y110300D01*
X43400D01*
X46800Y113700D01*
X147300D01*
X149500Y111500D01*
X158500D01*
X101500Y109000D02*
X113500D01*
X116500Y106000D01*
X182500D01*
X188500Y112000D01*
X70500Y129000D02*
X74800Y124700D01*
X105600D01*
X127000Y146100D01*
X245900D01*
X251000Y141000D01*
Y121500D02*
Y141000D01*
X244500Y115000D02*
X251000Y121500D01*
X101500Y49000D02*
X106700D01*
X108200Y50500D01*
X113500D01*
X123500Y60500D01*
X154500D01*
X193000Y32000D02*
X201000Y40000D01*
X233000D01*
X244500Y51500D01*
Y65000D01*
X101500Y119000D02*
X113500D01*
X137000Y142500D01*
X245100D01*
X248700Y138900D01*
Y130800D02*
Y138900D01*
X237411Y130800D02*
X248700D01*
X230700Y137511D02*
X237411Y130800D01*
X192511Y137511D02*
X230700D01*
X188500Y133500D02*
X192511Y137511D01*
X80500Y69000D02*
X101500D01*
X70500Y79000D02*
X80500Y69000D01*
X101500D02*
X126500D01*
X128000Y70500D01*
X154500D01*
X170300Y54700D01*
X219300D01*
X229000Y45000D01*
X158500Y131500D02*
X166811Y139811D01*
X239689D01*
X244500Y135000D01*
X56000Y73500D02*
X70500Y59000D01*
X30343Y73500D02*
X56000D01*
X21000Y82843D02*
X30343Y73500D01*
D31*
X244500Y105000D02*
D03*
Y95000D02*
D03*
X315500Y105000D02*
D03*
Y95000D02*
D03*
X244500Y85000D02*
D03*
Y115000D02*
D03*
X315500D02*
D03*
Y85000D02*
D03*
X244500Y125000D02*
D03*
X315500D02*
D03*
X244500Y75000D02*
D03*
X315500D02*
D03*
Y135000D02*
D03*
X244500Y65000D02*
D03*
X315500D02*
D03*
D32*
X244500Y135000D02*
D03*
D33*
X158500Y131500D02*
D03*
Y121500D02*
D03*
D34*
Y111500D02*
D03*
D35*
X229000Y25000D02*
D03*
Y35000D02*
D03*
Y45000D02*
D03*
X36500Y125000D02*
D03*
Y115000D02*
D03*
Y105000D02*
D03*
X113500Y99000D02*
D03*
Y109000D02*
D03*
Y119000D02*
D03*
X154500Y30500D02*
D03*
Y50500D02*
D03*
Y70500D02*
D03*
Y60500D02*
D03*
Y40500D02*
D03*
Y20500D02*
D03*
Y10500D02*
D03*
D36*
X229000Y15000D02*
D03*
X36500Y135000D02*
D03*
X113500Y89000D02*
D03*
X154500Y80500D02*
D03*
M02*
