G04*
G04 #@! TF.GenerationSoftware,Altium Limited,Altium Designer,25.2.1 (25)*
G04*
G04 Layer_Color=0*
%FSLAX25Y25*%
%MOIN*%
G70*
G04*
G04 #@! TF.SameCoordinates,D5E538CD-2188-41BB-B8E0-149CA04C5D28*
G04*
G04*
G04 #@! TF.FilePolarity,Positive*
G04*
G01*
G75*
%ADD37C,0.00394*%
%ADD38C,0.00197*%
D37*
X208185Y110032D02*
Y113969D01*
X206217Y112000D02*
X210154D01*
X208500Y67032D02*
Y70969D01*
X206532Y69000D02*
X210469D01*
X208185Y88532D02*
Y92469D01*
X206217Y90500D02*
X210154D01*
X208185Y131532D02*
Y135469D01*
X206217Y133500D02*
X210154D01*
X34532Y73500D02*
X38469D01*
X36500Y71532D02*
Y75469D01*
X14563Y112532D02*
Y116469D01*
X12594Y114500D02*
X16531D01*
X19032Y73000D02*
X22969D01*
X21000Y71032D02*
Y74969D01*
X34032Y31000D02*
X37969D01*
X36000Y29032D02*
Y32969D01*
X111532Y35500D02*
X115469D01*
X113500Y33532D02*
Y37469D01*
X19032Y31500D02*
X22969D01*
X21000Y29532D02*
Y33469D01*
X191032Y37000D02*
X194969D01*
X193000Y35032D02*
Y38969D01*
D38*
X227032Y30000D02*
X230969D01*
X229000Y28032D02*
Y31969D01*
X34532Y120000D02*
X38469D01*
X36500Y118032D02*
Y121969D01*
X111532Y104000D02*
X115469D01*
X113500Y102032D02*
Y105969D01*
X152532Y45500D02*
X156469D01*
X154500Y43532D02*
Y47469D01*
M02*
