M48
;Layer_Color=9474304
;FILE_FORMAT=2:4
INCH,TZ
;TYPE=PLATED
T01F00S00C0.0276
T02F00S00C0.0295
T03F00S00C0.0315
T04F00S00C0.0327
T05F00S00C0.0402
T06F00S00C0.0433
T07F00S00C0.0472
%
T01
X2100Y2166
X3600Y2116
Y4084
X2100Y4134
Y6316
Y8284
X1850Y11450
X1063
T02
X18881Y6900
X18850Y9050
Y11200
Y13350
X22787
Y11200
Y9050
X22819Y6900
T03
X24450Y6500
Y7500
Y8500
Y9500
Y10500
Y11500
Y12500
Y13500
X31550
Y12500
Y11500
Y10500
Y9500
Y8500
Y7500
Y6500
T04
X7050Y900
Y1900
Y2900
Y3900
Y4900
X10150
Y3900
Y2900
Y1900
Y900
Y5900
Y6900
Y7900
Y8900
Y9900
Y10900
Y11900
Y12900
Y13900
X7050
Y12900
Y11900
Y10900
Y9900
Y8900
Y7900
Y6900
Y5900
T05
X19300Y3200
Y4200
X11350Y4050
Y5050
Y3050
Y2050
Y1050
Y6050
X3650Y6850
Y7850
T06
X15450Y1050
Y2050
Y3050
Y4050
Y5050
X22900Y4500
Y3500
Y2500
Y1500
X11350Y8900
Y9900
Y10900
Y11900
X3650Y11500
Y12500
Y13500
Y10500
X15450Y8050
Y7050
Y6050
T07
X15850Y11150
Y12150
Y13150
M30
