G04*
G04 #@! TF.GenerationSoftware,Altium Limited,Altium Designer,25.2.1 (25)*
G04*
G04 Layer_Color=32768*
%FSLAX25Y25*%
%MOIN*%
G70*
G04*
G04 #@! TF.SameCoordinates,D5E538CD-2188-41BB-B8E0-149CA04C5D28*
G04*
G04*
G04 #@! TF.FilePolarity,Positive*
G04*
G01*
G75*
%ADD10C,0.00787*%
%ADD37C,0.00394*%
%ADD38C,0.00197*%
D10*
X3342Y114500D02*
G03*
X25784Y114500I11220J0D01*
G01*
D02*
G03*
X3342Y114500I-11220J0D01*
G01*
X185646Y106685D02*
Y117315D01*
Y106685D02*
X230724D01*
Y117315D01*
X185646D02*
X230724D01*
X185961Y63685D02*
Y74315D01*
Y63685D02*
X231039D01*
Y74315D01*
X185961D02*
X231039D01*
X185646Y85185D02*
Y95815D01*
Y85185D02*
X230724D01*
Y95815D01*
X185646D02*
X230724D01*
X185646Y128185D02*
Y138815D01*
Y128185D02*
X230724D01*
Y138815D01*
X185646D02*
X230724D01*
X30909Y62122D02*
X42091D01*
Y84878D01*
X30909D02*
X42091D01*
X30909Y62122D02*
Y84878D01*
X15685Y60402D02*
X26315D01*
Y85598D01*
X15685D02*
X26315D01*
X15685Y60402D02*
Y85598D01*
X30685Y18402D02*
X41315D01*
Y43598D01*
X30685D02*
X41315D01*
X30685Y18402D02*
Y43598D01*
X107713Y4614D02*
X119287D01*
Y66386D01*
X107713D02*
X119287D01*
X107713Y4614D02*
Y66386D01*
X15685Y18902D02*
X26315D01*
Y44098D01*
X15685D02*
X26315D01*
X15685Y18902D02*
Y44098D01*
X187409Y48378D02*
X198591D01*
X187409Y25622D02*
Y48378D01*
Y25622D02*
X198591D01*
Y48378D01*
D37*
X158500Y119532D02*
Y123469D01*
X156532Y121500D02*
X160469D01*
D38*
X239016Y140984D02*
X320984D01*
Y59016D02*
Y140984D01*
X239016Y59016D02*
X320984D01*
X239016D02*
Y140984D01*
X67055Y143232D02*
X104945D01*
X67055Y4768D02*
X104945D01*
Y143232D01*
X67055Y4768D02*
Y143232D01*
X222917Y8622D02*
X235083D01*
Y51378D01*
X222917D02*
X235083D01*
X222917Y8622D02*
Y51378D01*
X30417Y141378D02*
X42583D01*
X30417Y98622D02*
Y141378D01*
Y98622D02*
X42583D01*
Y141378D01*
X107417Y82622D02*
X119583D01*
Y125378D01*
X107417D02*
X119583D01*
X107417Y82622D02*
Y125378D01*
X148417Y86878D02*
X160583D01*
X148417Y4122D02*
Y86878D01*
Y4122D02*
X160583D01*
Y86878D01*
M02*
