G04*
G04 #@! TF.GenerationSoftware,Altium Limited,Altium Designer,25.2.1 (25)*
G04*
G04 Layer_Color=16711935*
%FSLAX25Y25*%
%MOIN*%
G70*
G04*
G04 #@! TF.SameCoordinates,D5E538CD-2188-41BB-B8E0-149CA04C5D28*
G04*
G04*
G04 #@! TF.FilePolarity,Positive*
G04*
G01*
G75*
%ADD10C,0.00787*%
G36*
X211461Y113829D02*
X211508Y113821D01*
X211567Y113811D01*
X211632Y113792D01*
X211698Y113770D01*
X211763Y113741D01*
X211767D01*
X211770Y113738D01*
X211792Y113727D01*
X211825Y113705D01*
X211861Y113680D01*
X211905Y113643D01*
X211949Y113603D01*
X211993Y113556D01*
X212029Y113501D01*
X212033Y113494D01*
X212043Y113476D01*
X212058Y113443D01*
X212076Y113403D01*
X212094Y113356D01*
X212109Y113301D01*
X212120Y113239D01*
X212123Y113177D01*
Y113170D01*
Y113148D01*
X212120Y113119D01*
X212113Y113079D01*
X212102Y113032D01*
X212084Y112981D01*
X212062Y112930D01*
X212033Y112879D01*
X212029Y112871D01*
X212018Y112857D01*
X211996Y112831D01*
X211967Y112802D01*
X211931Y112769D01*
X211887Y112733D01*
X211836Y112700D01*
X211774Y112668D01*
X211778D01*
X211785Y112664D01*
X211796Y112660D01*
X211810Y112657D01*
X211851Y112642D01*
X211901Y112620D01*
X211960Y112591D01*
X212018Y112555D01*
X212073Y112507D01*
X212123Y112453D01*
X212127Y112445D01*
X212142Y112424D01*
X212164Y112387D01*
X212185Y112340D01*
X212207Y112282D01*
X212229Y112213D01*
X212244Y112133D01*
X212247Y112045D01*
Y112041D01*
Y112031D01*
Y112012D01*
X212244Y111990D01*
X212240Y111961D01*
X212233Y111929D01*
X212225Y111892D01*
X212218Y111852D01*
X212189Y111765D01*
X212167Y111717D01*
X212145Y111674D01*
X212116Y111627D01*
X212084Y111579D01*
X212047Y111532D01*
X212003Y111488D01*
X212000Y111485D01*
X211993Y111477D01*
X211978Y111466D01*
X211960Y111452D01*
X211938Y111434D01*
X211909Y111415D01*
X211876Y111394D01*
X211836Y111375D01*
X211796Y111354D01*
X211749Y111332D01*
X211701Y111313D01*
X211647Y111295D01*
X211588Y111281D01*
X211527Y111270D01*
X211465Y111263D01*
X211396Y111259D01*
X211363D01*
X211341Y111263D01*
X211312Y111266D01*
X211279Y111270D01*
X211243Y111277D01*
X211203Y111284D01*
X211115Y111306D01*
X211024Y111343D01*
X210977Y111364D01*
X210933Y111390D01*
X210890Y111423D01*
X210846Y111455D01*
X210842Y111459D01*
X210835Y111466D01*
X210824Y111477D01*
X210813Y111492D01*
X210795Y111510D01*
X210777Y111536D01*
X210755Y111561D01*
X210733Y111594D01*
X210711Y111630D01*
X210689Y111667D01*
X210649Y111754D01*
X210617Y111856D01*
X210606Y111910D01*
X210598Y111969D01*
X210908Y112009D01*
Y112005D01*
X210911Y111998D01*
X210915Y111983D01*
X210919Y111965D01*
X210922Y111943D01*
X210930Y111918D01*
X210948Y111863D01*
X210973Y111798D01*
X211006Y111736D01*
X211042Y111678D01*
X211086Y111627D01*
X211093Y111623D01*
X211108Y111608D01*
X211137Y111590D01*
X211174Y111572D01*
X211217Y111550D01*
X211272Y111532D01*
X211334Y111517D01*
X211399Y111514D01*
X211421D01*
X211436Y111517D01*
X211476Y111521D01*
X211527Y111532D01*
X211585Y111550D01*
X211647Y111576D01*
X211709Y111612D01*
X211767Y111663D01*
X211774Y111670D01*
X211792Y111692D01*
X211814Y111725D01*
X211843Y111768D01*
X211872Y111823D01*
X211894Y111885D01*
X211912Y111958D01*
X211920Y112038D01*
Y112041D01*
Y112049D01*
Y112060D01*
X211916Y112074D01*
X211912Y112114D01*
X211901Y112162D01*
X211887Y112220D01*
X211861Y112278D01*
X211825Y112336D01*
X211778Y112391D01*
X211770Y112398D01*
X211752Y112413D01*
X211723Y112435D01*
X211683Y112460D01*
X211632Y112486D01*
X211570Y112507D01*
X211501Y112522D01*
X211425Y112529D01*
X211392D01*
X211366Y112526D01*
X211334Y112522D01*
X211297Y112515D01*
X211254Y112507D01*
X211206Y112496D01*
X211243Y112769D01*
X211261D01*
X211275Y112766D01*
X211323D01*
X211363Y112773D01*
X211410Y112780D01*
X211465Y112791D01*
X211527Y112810D01*
X211585Y112835D01*
X211647Y112868D01*
X211650D01*
X211654Y112871D01*
X211672Y112886D01*
X211698Y112911D01*
X211727Y112944D01*
X211756Y112991D01*
X211781Y113046D01*
X211800Y113108D01*
X211807Y113144D01*
Y113184D01*
Y113188D01*
Y113192D01*
Y113214D01*
X211800Y113243D01*
X211792Y113283D01*
X211778Y113326D01*
X211759Y113374D01*
X211730Y113421D01*
X211690Y113465D01*
X211687Y113468D01*
X211668Y113483D01*
X211643Y113501D01*
X211610Y113523D01*
X211567Y113541D01*
X211516Y113559D01*
X211457Y113574D01*
X211392Y113578D01*
X211363D01*
X211330Y113570D01*
X211286Y113563D01*
X211239Y113548D01*
X211192Y113530D01*
X211141Y113501D01*
X211093Y113465D01*
X211090Y113461D01*
X211075Y113443D01*
X211053Y113417D01*
X211028Y113381D01*
X211002Y113334D01*
X210977Y113275D01*
X210955Y113206D01*
X210941Y113126D01*
X210631Y113181D01*
Y113184D01*
X210635Y113195D01*
X210638Y113210D01*
X210642Y113232D01*
X210649Y113257D01*
X210660Y113286D01*
X210682Y113356D01*
X210718Y113436D01*
X210762Y113516D01*
X210817Y113592D01*
X210886Y113661D01*
X210890Y113665D01*
X210897Y113669D01*
X210908Y113676D01*
X210922Y113687D01*
X210941Y113701D01*
X210966Y113716D01*
X210992Y113730D01*
X211024Y113749D01*
X211097Y113778D01*
X211181Y113807D01*
X211279Y113825D01*
X211330Y113832D01*
X211421D01*
X211461Y113829D01*
D02*
G37*
G36*
X209383Y113818D02*
X209415D01*
X209492Y113814D01*
X209572Y113803D01*
X209659Y113792D01*
X209739Y113774D01*
X209779Y113763D01*
X209812Y113752D01*
X209816D01*
X209819Y113749D01*
X209841Y113738D01*
X209874Y113723D01*
X209914Y113698D01*
X209958Y113665D01*
X210005Y113621D01*
X210049Y113570D01*
X210092Y113512D01*
Y113508D01*
X210096Y113505D01*
X210111Y113483D01*
X210125Y113446D01*
X210147Y113399D01*
X210165Y113345D01*
X210183Y113279D01*
X210194Y113210D01*
X210198Y113134D01*
Y113130D01*
Y113123D01*
Y113108D01*
X210194Y113090D01*
Y113064D01*
X210191Y113039D01*
X210176Y112977D01*
X210154Y112904D01*
X210125Y112828D01*
X210082Y112751D01*
X210052Y112715D01*
X210023Y112679D01*
X210020Y112675D01*
X210016Y112671D01*
X210005Y112660D01*
X209991Y112649D01*
X209972Y112635D01*
X209950Y112620D01*
X209921Y112602D01*
X209892Y112580D01*
X209856Y112562D01*
X209816Y112544D01*
X209772Y112522D01*
X209725Y112504D01*
X209670Y112489D01*
X209616Y112471D01*
X209554Y112460D01*
X209488Y112449D01*
X209495Y112445D01*
X209510Y112438D01*
X209532Y112424D01*
X209561Y112409D01*
X209627Y112369D01*
X209659Y112344D01*
X209688Y112322D01*
X209696Y112314D01*
X209714Y112296D01*
X209743Y112267D01*
X209779Y112231D01*
X209819Y112180D01*
X209867Y112125D01*
X209914Y112060D01*
X209965Y111987D01*
X210398Y111303D01*
X209983D01*
X209652Y111827D01*
Y111830D01*
X209645Y111838D01*
X209637Y111849D01*
X209627Y111863D01*
X209601Y111903D01*
X209568Y111954D01*
X209528Y112009D01*
X209488Y112067D01*
X209448Y112122D01*
X209412Y112172D01*
X209408Y112176D01*
X209397Y112191D01*
X209379Y112213D01*
X209353Y112238D01*
X209299Y112293D01*
X209270Y112318D01*
X209241Y112340D01*
X209237Y112344D01*
X209230Y112347D01*
X209215Y112355D01*
X209193Y112365D01*
X209172Y112376D01*
X209146Y112387D01*
X209088Y112406D01*
X209084D01*
X209077Y112409D01*
X209062D01*
X209044Y112413D01*
X209019Y112416D01*
X208990D01*
X208949Y112420D01*
X208520D01*
Y111303D01*
X208185D01*
Y113821D01*
X209353D01*
X209383Y113818D01*
D02*
G37*
G36*
X212074Y68259D02*
X211765D01*
Y70228D01*
X211761Y70224D01*
X211743Y70210D01*
X211721Y70188D01*
X211685Y70163D01*
X211645Y70130D01*
X211594Y70093D01*
X211536Y70053D01*
X211470Y70013D01*
X211467D01*
X211463Y70010D01*
X211441Y69995D01*
X211405Y69977D01*
X211361Y69955D01*
X211310Y69930D01*
X211256Y69904D01*
X211201Y69879D01*
X211146Y69857D01*
Y70155D01*
X211150D01*
X211157Y70163D01*
X211172Y70166D01*
X211190Y70177D01*
X211212Y70188D01*
X211237Y70203D01*
X211299Y70239D01*
X211372Y70279D01*
X211445Y70330D01*
X211521Y70388D01*
X211598Y70450D01*
X211601Y70454D01*
X211605Y70457D01*
X211616Y70468D01*
X211630Y70479D01*
X211663Y70516D01*
X211707Y70559D01*
X211751Y70610D01*
X211798Y70669D01*
X211838Y70727D01*
X211874Y70789D01*
X212074D01*
Y68259D01*
D02*
G37*
G36*
X209698Y70774D02*
X209730D01*
X209807Y70771D01*
X209887Y70760D01*
X209974Y70749D01*
X210054Y70730D01*
X210094Y70719D01*
X210127Y70709D01*
X210131D01*
X210134Y70705D01*
X210156Y70694D01*
X210189Y70679D01*
X210229Y70654D01*
X210273Y70621D01*
X210320Y70578D01*
X210364Y70527D01*
X210407Y70468D01*
Y70465D01*
X210411Y70461D01*
X210426Y70439D01*
X210440Y70403D01*
X210462Y70355D01*
X210480Y70301D01*
X210498Y70235D01*
X210509Y70166D01*
X210513Y70090D01*
Y70086D01*
Y70079D01*
Y70064D01*
X210509Y70046D01*
Y70021D01*
X210506Y69995D01*
X210491Y69933D01*
X210469Y69861D01*
X210440Y69784D01*
X210396Y69708D01*
X210367Y69671D01*
X210338Y69635D01*
X210335Y69631D01*
X210331Y69627D01*
X210320Y69617D01*
X210305Y69606D01*
X210287Y69591D01*
X210265Y69577D01*
X210236Y69558D01*
X210207Y69537D01*
X210171Y69518D01*
X210131Y69500D01*
X210087Y69478D01*
X210040Y69460D01*
X209985Y69446D01*
X209930Y69427D01*
X209869Y69416D01*
X209803Y69406D01*
X209810Y69402D01*
X209825Y69395D01*
X209847Y69380D01*
X209876Y69365D01*
X209941Y69325D01*
X209974Y69300D01*
X210003Y69278D01*
X210011Y69271D01*
X210029Y69253D01*
X210058Y69223D01*
X210094Y69187D01*
X210134Y69136D01*
X210182Y69081D01*
X210229Y69016D01*
X210280Y68943D01*
X210713Y68259D01*
X210298D01*
X209967Y68783D01*
Y68787D01*
X209960Y68794D01*
X209952Y68805D01*
X209941Y68819D01*
X209916Y68859D01*
X209883Y68910D01*
X209843Y68965D01*
X209803Y69023D01*
X209763Y69078D01*
X209727Y69129D01*
X209723Y69133D01*
X209712Y69147D01*
X209694Y69169D01*
X209668Y69194D01*
X209614Y69249D01*
X209585Y69274D01*
X209556Y69296D01*
X209552Y69300D01*
X209545Y69304D01*
X209530Y69311D01*
X209508Y69322D01*
X209486Y69333D01*
X209461Y69344D01*
X209403Y69362D01*
X209399D01*
X209392Y69365D01*
X209377D01*
X209359Y69369D01*
X209334Y69373D01*
X209304D01*
X209264Y69376D01*
X208835D01*
Y68259D01*
X208500D01*
Y70778D01*
X209668D01*
X209698Y70774D01*
D02*
G37*
G36*
X211490Y92285D02*
X211519Y92281D01*
X211556Y92278D01*
X211596Y92270D01*
X211636Y92263D01*
X211730Y92238D01*
X211825Y92201D01*
X211872Y92180D01*
X211920Y92154D01*
X211963Y92121D01*
X212003Y92085D01*
X212007Y92081D01*
X212014Y92078D01*
X212022Y92063D01*
X212036Y92048D01*
X212054Y92030D01*
X212073Y92005D01*
X212091Y91979D01*
X212113Y91947D01*
X212149Y91877D01*
X212185Y91790D01*
X212200Y91746D01*
X212207Y91695D01*
X212214Y91644D01*
X212218Y91590D01*
Y91583D01*
Y91564D01*
X212214Y91535D01*
X212211Y91495D01*
X212204Y91452D01*
X212189Y91400D01*
X212175Y91346D01*
X212153Y91291D01*
X212149Y91284D01*
X212142Y91266D01*
X212127Y91237D01*
X212105Y91197D01*
X212076Y91153D01*
X212040Y91098D01*
X211996Y91044D01*
X211945Y90982D01*
X211938Y90975D01*
X211920Y90953D01*
X211901Y90935D01*
X211883Y90916D01*
X211861Y90895D01*
X211832Y90865D01*
X211803Y90836D01*
X211767Y90804D01*
X211730Y90767D01*
X211687Y90727D01*
X211639Y90687D01*
X211588Y90640D01*
X211530Y90592D01*
X211472Y90541D01*
X211468Y90538D01*
X211461Y90531D01*
X211446Y90520D01*
X211428Y90505D01*
X211406Y90483D01*
X211381Y90461D01*
X211323Y90414D01*
X211261Y90359D01*
X211203Y90305D01*
X211152Y90258D01*
X211130Y90239D01*
X211112Y90221D01*
X211108Y90218D01*
X211097Y90207D01*
X211083Y90192D01*
X211064Y90170D01*
X211046Y90145D01*
X211024Y90119D01*
X210981Y90057D01*
X212222D01*
Y89759D01*
X210551D01*
Y89763D01*
Y89777D01*
Y89799D01*
X210555Y89828D01*
X210558Y89861D01*
X210566Y89897D01*
X210573Y89934D01*
X210587Y89974D01*
Y89977D01*
X210591Y89981D01*
X210598Y90003D01*
X210613Y90035D01*
X210635Y90079D01*
X210664Y90130D01*
X210700Y90188D01*
X210740Y90247D01*
X210791Y90308D01*
Y90312D01*
X210799Y90316D01*
X210817Y90338D01*
X210849Y90370D01*
X210897Y90418D01*
X210951Y90472D01*
X211021Y90538D01*
X211104Y90611D01*
X211195Y90687D01*
X211199Y90691D01*
X211213Y90702D01*
X211235Y90720D01*
X211261Y90742D01*
X211294Y90771D01*
X211334Y90804D01*
X211374Y90840D01*
X211421Y90880D01*
X211512Y90967D01*
X211603Y91055D01*
X211647Y91098D01*
X211687Y91142D01*
X211723Y91182D01*
X211752Y91222D01*
Y91226D01*
X211759Y91229D01*
X211767Y91240D01*
X211774Y91255D01*
X211800Y91295D01*
X211829Y91342D01*
X211854Y91400D01*
X211880Y91462D01*
X211894Y91532D01*
X211901Y91597D01*
Y91601D01*
Y91604D01*
X211898Y91626D01*
X211894Y91663D01*
X211883Y91703D01*
X211869Y91754D01*
X211843Y91805D01*
X211810Y91856D01*
X211767Y91906D01*
X211759Y91914D01*
X211741Y91928D01*
X211716Y91947D01*
X211676Y91972D01*
X211625Y91994D01*
X211567Y92016D01*
X211497Y92030D01*
X211421Y92034D01*
X211399D01*
X211385Y92030D01*
X211341Y92027D01*
X211290Y92016D01*
X211235Y92001D01*
X211174Y91976D01*
X211115Y91943D01*
X211061Y91899D01*
X211053Y91892D01*
X211039Y91874D01*
X211017Y91845D01*
X210995Y91801D01*
X210970Y91750D01*
X210948Y91684D01*
X210933Y91612D01*
X210926Y91528D01*
X210609Y91561D01*
Y91564D01*
X210613Y91575D01*
Y91593D01*
X210617Y91619D01*
X210624Y91648D01*
X210631Y91681D01*
X210642Y91721D01*
X210653Y91761D01*
X210682Y91848D01*
X210726Y91936D01*
X210751Y91979D01*
X210784Y92023D01*
X210817Y92063D01*
X210853Y92099D01*
X210857Y92103D01*
X210864Y92107D01*
X210875Y92118D01*
X210893Y92128D01*
X210915Y92143D01*
X210941Y92158D01*
X210970Y92176D01*
X211006Y92194D01*
X211046Y92212D01*
X211090Y92230D01*
X211137Y92245D01*
X211188Y92260D01*
X211243Y92270D01*
X211301Y92281D01*
X211363Y92285D01*
X211428Y92289D01*
X211465D01*
X211490Y92285D01*
D02*
G37*
G36*
X209383Y92274D02*
X209415D01*
X209492Y92270D01*
X209572Y92260D01*
X209659Y92249D01*
X209739Y92230D01*
X209779Y92220D01*
X209812Y92209D01*
X209816D01*
X209819Y92205D01*
X209841Y92194D01*
X209874Y92180D01*
X209914Y92154D01*
X209958Y92121D01*
X210005Y92078D01*
X210049Y92027D01*
X210092Y91968D01*
Y91965D01*
X210096Y91961D01*
X210111Y91939D01*
X210125Y91903D01*
X210147Y91856D01*
X210165Y91801D01*
X210183Y91735D01*
X210194Y91666D01*
X210198Y91590D01*
Y91586D01*
Y91579D01*
Y91564D01*
X210194Y91546D01*
Y91521D01*
X210191Y91495D01*
X210176Y91433D01*
X210154Y91360D01*
X210125Y91284D01*
X210082Y91208D01*
X210052Y91171D01*
X210023Y91135D01*
X210020Y91131D01*
X210016Y91128D01*
X210005Y91117D01*
X209991Y91106D01*
X209972Y91091D01*
X209950Y91077D01*
X209921Y91058D01*
X209892Y91036D01*
X209856Y91018D01*
X209816Y91000D01*
X209772Y90978D01*
X209725Y90960D01*
X209670Y90946D01*
X209616Y90927D01*
X209554Y90916D01*
X209488Y90905D01*
X209495Y90902D01*
X209510Y90895D01*
X209532Y90880D01*
X209561Y90865D01*
X209627Y90825D01*
X209659Y90800D01*
X209688Y90778D01*
X209696Y90771D01*
X209714Y90753D01*
X209743Y90724D01*
X209779Y90687D01*
X209819Y90636D01*
X209867Y90582D01*
X209914Y90516D01*
X209965Y90443D01*
X210398Y89759D01*
X209983D01*
X209652Y90283D01*
Y90287D01*
X209645Y90294D01*
X209637Y90305D01*
X209627Y90319D01*
X209601Y90359D01*
X209568Y90410D01*
X209528Y90465D01*
X209488Y90523D01*
X209448Y90578D01*
X209412Y90629D01*
X209408Y90632D01*
X209397Y90647D01*
X209379Y90669D01*
X209353Y90694D01*
X209299Y90749D01*
X209270Y90774D01*
X209241Y90796D01*
X209237Y90800D01*
X209230Y90804D01*
X209215Y90811D01*
X209193Y90822D01*
X209172Y90833D01*
X209146Y90844D01*
X209088Y90862D01*
X209084D01*
X209077Y90865D01*
X209062D01*
X209044Y90869D01*
X209019Y90873D01*
X208990D01*
X208949Y90876D01*
X208520D01*
Y89759D01*
X208185D01*
Y92278D01*
X209353D01*
X209383Y92274D01*
D02*
G37*
G36*
X211894Y133647D02*
X212236D01*
Y133363D01*
X211894D01*
Y132759D01*
X211585D01*
Y133363D01*
X210489D01*
Y133647D01*
X211643Y135278D01*
X211894D01*
Y133647D01*
D02*
G37*
G36*
X209383Y135274D02*
X209415D01*
X209492Y135271D01*
X209572Y135260D01*
X209659Y135249D01*
X209739Y135230D01*
X209779Y135220D01*
X209812Y135209D01*
X209816D01*
X209819Y135205D01*
X209841Y135194D01*
X209874Y135179D01*
X209914Y135154D01*
X209958Y135121D01*
X210005Y135078D01*
X210049Y135027D01*
X210092Y134968D01*
Y134965D01*
X210096Y134961D01*
X210111Y134939D01*
X210125Y134903D01*
X210147Y134855D01*
X210165Y134801D01*
X210183Y134735D01*
X210194Y134666D01*
X210198Y134590D01*
Y134586D01*
Y134579D01*
Y134564D01*
X210194Y134546D01*
Y134521D01*
X210191Y134495D01*
X210176Y134433D01*
X210154Y134361D01*
X210125Y134284D01*
X210082Y134208D01*
X210052Y134171D01*
X210023Y134135D01*
X210020Y134131D01*
X210016Y134127D01*
X210005Y134117D01*
X209991Y134106D01*
X209972Y134091D01*
X209950Y134077D01*
X209921Y134058D01*
X209892Y134037D01*
X209856Y134018D01*
X209816Y134000D01*
X209772Y133978D01*
X209725Y133960D01*
X209670Y133946D01*
X209616Y133927D01*
X209554Y133916D01*
X209488Y133905D01*
X209495Y133902D01*
X209510Y133895D01*
X209532Y133880D01*
X209561Y133865D01*
X209627Y133825D01*
X209659Y133800D01*
X209688Y133778D01*
X209696Y133771D01*
X209714Y133753D01*
X209743Y133723D01*
X209779Y133687D01*
X209819Y133636D01*
X209867Y133581D01*
X209914Y133516D01*
X209965Y133443D01*
X210398Y132759D01*
X209983D01*
X209652Y133283D01*
Y133287D01*
X209645Y133294D01*
X209637Y133305D01*
X209627Y133319D01*
X209601Y133360D01*
X209568Y133410D01*
X209528Y133465D01*
X209488Y133523D01*
X209448Y133578D01*
X209412Y133629D01*
X209408Y133633D01*
X209397Y133647D01*
X209379Y133669D01*
X209353Y133694D01*
X209299Y133749D01*
X209270Y133774D01*
X209241Y133796D01*
X209237Y133800D01*
X209230Y133804D01*
X209215Y133811D01*
X209193Y133822D01*
X209172Y133833D01*
X209146Y133844D01*
X209088Y133862D01*
X209084D01*
X209077Y133865D01*
X209062D01*
X209044Y133869D01*
X209019Y133873D01*
X208990D01*
X208949Y133876D01*
X208520D01*
Y132759D01*
X208185D01*
Y135278D01*
X209353D01*
X209383Y135274D01*
D02*
G37*
G36*
X36456Y76161D02*
X34487D01*
X34491Y76157D01*
X34505Y76139D01*
X34527Y76117D01*
X34553Y76081D01*
X34585Y76041D01*
X34622Y75990D01*
X34662Y75932D01*
X34702Y75866D01*
Y75862D01*
X34705Y75859D01*
X34720Y75837D01*
X34738Y75800D01*
X34760Y75757D01*
X34786Y75706D01*
X34811Y75651D01*
X34837Y75597D01*
X34858Y75542D01*
X34560D01*
Y75546D01*
X34553Y75553D01*
X34549Y75568D01*
X34538Y75586D01*
X34527Y75608D01*
X34513Y75633D01*
X34476Y75695D01*
X34436Y75768D01*
X34385Y75841D01*
X34327Y75917D01*
X34265Y75993D01*
X34261Y75997D01*
X34258Y76001D01*
X34247Y76012D01*
X34236Y76026D01*
X34200Y76059D01*
X34156Y76103D01*
X34105Y76146D01*
X34047Y76194D01*
X33988Y76234D01*
X33926Y76270D01*
Y76470D01*
X36456D01*
Y76161D01*
D02*
G37*
G36*
X35736Y74883D02*
X35765D01*
X35834Y74876D01*
X35914Y74869D01*
X35998Y74854D01*
X36074Y74832D01*
X36147Y74807D01*
X36151D01*
X36154Y74803D01*
X36176Y74792D01*
X36205Y74774D01*
X36245Y74748D01*
X36285Y74712D01*
X36329Y74672D01*
X36373Y74621D01*
X36409Y74563D01*
X36413Y74556D01*
X36424Y74534D01*
X36438Y74501D01*
X36453Y74454D01*
X36471Y74395D01*
X36485Y74330D01*
X36496Y74257D01*
X36500Y74177D01*
Y74144D01*
X36496Y74122D01*
X36493Y74093D01*
X36489Y74064D01*
X36474Y73988D01*
X36453Y73908D01*
X36420Y73824D01*
X36398Y73780D01*
X36373Y73740D01*
X36344Y73704D01*
X36311Y73667D01*
X36307Y73664D01*
X36303Y73660D01*
X36289Y73653D01*
X36274Y73642D01*
X36256Y73627D01*
X36231Y73613D01*
X36202Y73598D01*
X36169Y73580D01*
X36132Y73566D01*
X36089Y73551D01*
X36045Y73536D01*
X35994Y73522D01*
X35939Y73514D01*
X35878Y73504D01*
X35816Y73500D01*
X35747D01*
X35703Y73802D01*
X35706D01*
X35714D01*
X35728D01*
X35750Y73806D01*
X35772Y73809D01*
X35798D01*
X35859Y73820D01*
X35925Y73831D01*
X35990Y73853D01*
X36049Y73875D01*
X36074Y73889D01*
X36096Y73908D01*
X36100Y73911D01*
X36111Y73926D01*
X36129Y73948D01*
X36147Y73977D01*
X36169Y74017D01*
X36183Y74060D01*
X36198Y74115D01*
X36202Y74173D01*
Y74195D01*
X36198Y74217D01*
X36194Y74250D01*
X36187Y74283D01*
X36180Y74319D01*
X36165Y74355D01*
X36147Y74392D01*
X36143Y74395D01*
X36136Y74406D01*
X36121Y74421D01*
X36107Y74443D01*
X36081Y74461D01*
X36056Y74483D01*
X36027Y74501D01*
X35990Y74515D01*
X35987D01*
X35972Y74523D01*
X35947Y74526D01*
X35914Y74534D01*
X35870Y74541D01*
X35816Y74545D01*
X35750Y74552D01*
X35674D01*
X33937D01*
Y74887D01*
X35656D01*
X35659D01*
X35670D01*
X35685D01*
X35706D01*
X35736Y74883D01*
D02*
G37*
G36*
X15811Y117103D02*
X15844Y117099D01*
X15884Y117095D01*
X15924Y117092D01*
X15972Y117081D01*
X16070Y117059D01*
X16179Y117026D01*
X16234Y117004D01*
X16285Y116979D01*
X16336Y116946D01*
X16387Y116913D01*
X16390Y116910D01*
X16398Y116906D01*
X16412Y116895D01*
X16430Y116877D01*
X16448Y116859D01*
X16474Y116833D01*
X16499Y116804D01*
X16529Y116775D01*
X16558Y116739D01*
X16587Y116695D01*
X16620Y116651D01*
X16649Y116604D01*
X16674Y116549D01*
X16703Y116495D01*
X16725Y116436D01*
X16747Y116371D01*
X16419Y116295D01*
Y116298D01*
X16416Y116305D01*
X16408Y116320D01*
X16401Y116338D01*
X16394Y116360D01*
X16383Y116389D01*
X16354Y116447D01*
X16317Y116513D01*
X16274Y116578D01*
X16219Y116640D01*
X16161Y116695D01*
X16154Y116702D01*
X16132Y116717D01*
X16095Y116735D01*
X16048Y116760D01*
X15986Y116782D01*
X15917Y116804D01*
X15833Y116819D01*
X15742Y116822D01*
X15713D01*
X15695Y116819D01*
X15669D01*
X15640Y116815D01*
X15571Y116804D01*
X15495Y116789D01*
X15415Y116764D01*
X15331Y116728D01*
X15255Y116680D01*
X15251D01*
X15247Y116673D01*
X15222Y116655D01*
X15189Y116626D01*
X15149Y116582D01*
X15102Y116527D01*
X15058Y116466D01*
X15018Y116389D01*
X14981Y116305D01*
Y116302D01*
X14978Y116295D01*
X14974Y116284D01*
X14971Y116265D01*
X14963Y116244D01*
X14956Y116218D01*
X14945Y116156D01*
X14931Y116083D01*
X14916Y116003D01*
X14909Y115916D01*
X14905Y115821D01*
Y115818D01*
Y115807D01*
Y115788D01*
Y115767D01*
X14909Y115741D01*
Y115708D01*
X14912Y115672D01*
X14916Y115632D01*
X14927Y115545D01*
X14945Y115450D01*
X14967Y115355D01*
X14996Y115261D01*
Y115257D01*
X15000Y115250D01*
X15007Y115239D01*
X15014Y115221D01*
X15036Y115177D01*
X15069Y115126D01*
X15109Y115068D01*
X15160Y115006D01*
X15218Y114951D01*
X15287Y114900D01*
X15291D01*
X15298Y114897D01*
X15309Y114889D01*
X15324Y114882D01*
X15342Y114875D01*
X15364Y114864D01*
X15415Y114842D01*
X15480Y114820D01*
X15553Y114802D01*
X15633Y114787D01*
X15717Y114784D01*
X15742D01*
X15764Y114787D01*
X15790D01*
X15815Y114791D01*
X15881Y114806D01*
X15957Y114824D01*
X16034Y114853D01*
X16114Y114893D01*
X16154Y114915D01*
X16190Y114944D01*
X16194Y114948D01*
X16197Y114951D01*
X16208Y114962D01*
X16223Y114973D01*
X16237Y114991D01*
X16255Y115013D01*
X16277Y115035D01*
X16296Y115064D01*
X16317Y115097D01*
X16343Y115133D01*
X16365Y115170D01*
X16387Y115213D01*
X16405Y115261D01*
X16423Y115312D01*
X16441Y115366D01*
X16456Y115425D01*
X16791Y115341D01*
Y115337D01*
X16787Y115323D01*
X16780Y115301D01*
X16769Y115272D01*
X16758Y115239D01*
X16743Y115199D01*
X16725Y115155D01*
X16703Y115108D01*
X16652Y115006D01*
X16587Y114904D01*
X16547Y114853D01*
X16507Y114802D01*
X16463Y114758D01*
X16412Y114715D01*
X16408Y114711D01*
X16401Y114704D01*
X16383Y114697D01*
X16365Y114682D01*
X16336Y114664D01*
X16307Y114646D01*
X16266Y114627D01*
X16226Y114609D01*
X16179Y114587D01*
X16128Y114569D01*
X16073Y114551D01*
X16015Y114533D01*
X15953Y114518D01*
X15888Y114511D01*
X15819Y114504D01*
X15746Y114500D01*
X15706D01*
X15677Y114504D01*
X15644D01*
X15604Y114507D01*
X15560Y114515D01*
X15509Y114522D01*
X15404Y114540D01*
X15295Y114569D01*
X15185Y114609D01*
X15134Y114635D01*
X15084Y114664D01*
X15080Y114667D01*
X15073Y114671D01*
X15058Y114682D01*
X15043Y114697D01*
X15022Y114711D01*
X14996Y114733D01*
X14967Y114758D01*
X14938Y114787D01*
X14909Y114820D01*
X14876Y114853D01*
X14810Y114937D01*
X14749Y115035D01*
X14694Y115144D01*
Y115148D01*
X14687Y115159D01*
X14683Y115177D01*
X14672Y115199D01*
X14665Y115228D01*
X14654Y115264D01*
X14639Y115304D01*
X14628Y115348D01*
X14617Y115395D01*
X14603Y115450D01*
X14585Y115563D01*
X14570Y115690D01*
X14563Y115821D01*
Y115825D01*
Y115840D01*
Y115861D01*
X14567Y115887D01*
Y115923D01*
X14570Y115960D01*
X14574Y116007D01*
X14581Y116054D01*
X14599Y116160D01*
X14625Y116276D01*
X14661Y116393D01*
X14712Y116506D01*
X14716Y116509D01*
X14719Y116520D01*
X14727Y116535D01*
X14741Y116553D01*
X14756Y116578D01*
X14774Y116607D01*
X14821Y116673D01*
X14883Y116746D01*
X14956Y116819D01*
X15040Y116891D01*
X15138Y116953D01*
X15142Y116957D01*
X15153Y116961D01*
X15167Y116968D01*
X15185Y116979D01*
X15214Y116990D01*
X15244Y117001D01*
X15280Y117015D01*
X15320Y117030D01*
X15364Y117044D01*
X15411Y117059D01*
X15513Y117081D01*
X15630Y117099D01*
X15750Y117106D01*
X15786D01*
X15811Y117103D01*
D02*
G37*
G36*
X17941Y117070D02*
X17988Y117062D01*
X18046Y117052D01*
X18112Y117033D01*
X18178Y117012D01*
X18243Y116982D01*
X18247D01*
X18250Y116979D01*
X18272Y116968D01*
X18305Y116946D01*
X18341Y116921D01*
X18385Y116884D01*
X18429Y116844D01*
X18472Y116797D01*
X18509Y116742D01*
X18512Y116735D01*
X18523Y116717D01*
X18538Y116684D01*
X18556Y116644D01*
X18574Y116597D01*
X18589Y116542D01*
X18600Y116480D01*
X18603Y116418D01*
Y116411D01*
Y116389D01*
X18600Y116360D01*
X18592Y116320D01*
X18582Y116273D01*
X18563Y116222D01*
X18541Y116171D01*
X18512Y116120D01*
X18509Y116112D01*
X18498Y116098D01*
X18476Y116072D01*
X18447Y116043D01*
X18410Y116010D01*
X18367Y115974D01*
X18316Y115941D01*
X18254Y115909D01*
X18258D01*
X18265Y115905D01*
X18276Y115901D01*
X18290Y115898D01*
X18330Y115883D01*
X18381Y115861D01*
X18440Y115832D01*
X18498Y115796D01*
X18552Y115749D01*
X18603Y115694D01*
X18607Y115687D01*
X18621Y115665D01*
X18643Y115628D01*
X18665Y115581D01*
X18687Y115523D01*
X18709Y115454D01*
X18723Y115374D01*
X18727Y115286D01*
Y115282D01*
Y115272D01*
Y115253D01*
X18723Y115232D01*
X18720Y115202D01*
X18712Y115170D01*
X18705Y115133D01*
X18698Y115093D01*
X18669Y115006D01*
X18647Y114959D01*
X18625Y114915D01*
X18596Y114868D01*
X18563Y114820D01*
X18527Y114773D01*
X18483Y114729D01*
X18480Y114726D01*
X18472Y114718D01*
X18458Y114707D01*
X18440Y114693D01*
X18418Y114675D01*
X18389Y114656D01*
X18356Y114635D01*
X18316Y114616D01*
X18276Y114595D01*
X18228Y114573D01*
X18181Y114555D01*
X18126Y114536D01*
X18068Y114522D01*
X18006Y114511D01*
X17944Y114504D01*
X17875Y114500D01*
X17843D01*
X17821Y114504D01*
X17792Y114507D01*
X17759Y114511D01*
X17722Y114518D01*
X17682Y114525D01*
X17595Y114547D01*
X17504Y114584D01*
X17457Y114605D01*
X17413Y114631D01*
X17369Y114664D01*
X17326Y114697D01*
X17322Y114700D01*
X17315Y114707D01*
X17304Y114718D01*
X17293Y114733D01*
X17275Y114751D01*
X17256Y114777D01*
X17235Y114802D01*
X17213Y114835D01*
X17191Y114871D01*
X17169Y114908D01*
X17129Y114995D01*
X17096Y115097D01*
X17086Y115152D01*
X17078Y115210D01*
X17388Y115250D01*
Y115246D01*
X17391Y115239D01*
X17395Y115224D01*
X17399Y115206D01*
X17402Y115184D01*
X17409Y115159D01*
X17428Y115104D01*
X17453Y115039D01*
X17486Y114977D01*
X17522Y114919D01*
X17566Y114868D01*
X17573Y114864D01*
X17588Y114849D01*
X17617Y114831D01*
X17653Y114813D01*
X17697Y114791D01*
X17752Y114773D01*
X17813Y114758D01*
X17879Y114755D01*
X17901D01*
X17915Y114758D01*
X17955Y114762D01*
X18006Y114773D01*
X18065Y114791D01*
X18126Y114817D01*
X18188Y114853D01*
X18247Y114904D01*
X18254Y114911D01*
X18272Y114933D01*
X18294Y114966D01*
X18323Y115009D01*
X18352Y115064D01*
X18374Y115126D01*
X18392Y115199D01*
X18399Y115279D01*
Y115282D01*
Y115290D01*
Y115301D01*
X18396Y115315D01*
X18392Y115355D01*
X18381Y115403D01*
X18367Y115461D01*
X18341Y115519D01*
X18305Y115577D01*
X18258Y115632D01*
X18250Y115639D01*
X18232Y115654D01*
X18203Y115676D01*
X18163Y115701D01*
X18112Y115727D01*
X18050Y115749D01*
X17981Y115763D01*
X17905Y115770D01*
X17872D01*
X17846Y115767D01*
X17813Y115763D01*
X17777Y115756D01*
X17733Y115749D01*
X17686Y115738D01*
X17722Y116010D01*
X17741D01*
X17755Y116007D01*
X17803D01*
X17843Y116014D01*
X17890Y116022D01*
X17944Y116032D01*
X18006Y116051D01*
X18065Y116076D01*
X18126Y116109D01*
X18130D01*
X18134Y116112D01*
X18152Y116127D01*
X18178Y116153D01*
X18207Y116185D01*
X18236Y116233D01*
X18261Y116287D01*
X18279Y116349D01*
X18287Y116385D01*
Y116426D01*
Y116429D01*
Y116433D01*
Y116455D01*
X18279Y116484D01*
X18272Y116524D01*
X18258Y116568D01*
X18239Y116615D01*
X18210Y116662D01*
X18170Y116706D01*
X18167Y116709D01*
X18148Y116724D01*
X18123Y116742D01*
X18090Y116764D01*
X18046Y116782D01*
X17996Y116800D01*
X17937Y116815D01*
X17872Y116819D01*
X17843D01*
X17810Y116811D01*
X17766Y116804D01*
X17719Y116789D01*
X17672Y116771D01*
X17620Y116742D01*
X17573Y116706D01*
X17570Y116702D01*
X17555Y116684D01*
X17533Y116658D01*
X17508Y116622D01*
X17482Y116575D01*
X17457Y116516D01*
X17435Y116447D01*
X17420Y116367D01*
X17111Y116422D01*
Y116426D01*
X17115Y116436D01*
X17118Y116451D01*
X17122Y116473D01*
X17129Y116498D01*
X17140Y116527D01*
X17162Y116597D01*
X17198Y116677D01*
X17242Y116757D01*
X17297Y116833D01*
X17366Y116902D01*
X17369Y116906D01*
X17377Y116910D01*
X17388Y116917D01*
X17402Y116928D01*
X17420Y116942D01*
X17446Y116957D01*
X17471Y116972D01*
X17504Y116990D01*
X17577Y117019D01*
X17661Y117048D01*
X17759Y117066D01*
X17810Y117073D01*
X17901D01*
X17941Y117070D01*
D02*
G37*
G36*
X20956Y75468D02*
X20953D01*
X20938D01*
X20916D01*
X20887Y75472D01*
X20854Y75475D01*
X20818Y75482D01*
X20782Y75490D01*
X20742Y75504D01*
X20738D01*
X20734Y75508D01*
X20712Y75515D01*
X20680Y75530D01*
X20636Y75552D01*
X20585Y75581D01*
X20527Y75617D01*
X20469Y75657D01*
X20407Y75708D01*
X20403D01*
X20399Y75715D01*
X20378Y75734D01*
X20345Y75766D01*
X20298Y75814D01*
X20243Y75868D01*
X20177Y75937D01*
X20105Y76021D01*
X20028Y76112D01*
X20024Y76116D01*
X20014Y76130D01*
X19995Y76152D01*
X19974Y76178D01*
X19944Y76210D01*
X19912Y76250D01*
X19875Y76291D01*
X19835Y76338D01*
X19748Y76429D01*
X19660Y76520D01*
X19617Y76564D01*
X19573Y76604D01*
X19533Y76640D01*
X19493Y76669D01*
X19489D01*
X19486Y76676D01*
X19475Y76684D01*
X19460Y76691D01*
X19420Y76716D01*
X19373Y76745D01*
X19315Y76771D01*
X19253Y76797D01*
X19184Y76811D01*
X19118Y76818D01*
X19115D01*
X19111D01*
X19089Y76815D01*
X19053Y76811D01*
X19013Y76800D01*
X18962Y76786D01*
X18911Y76760D01*
X18860Y76727D01*
X18809Y76684D01*
X18801Y76676D01*
X18787Y76658D01*
X18769Y76633D01*
X18743Y76593D01*
X18721Y76542D01*
X18699Y76483D01*
X18685Y76414D01*
X18681Y76338D01*
Y76316D01*
X18685Y76301D01*
X18689Y76258D01*
X18699Y76207D01*
X18714Y76152D01*
X18740Y76090D01*
X18772Y76032D01*
X18816Y75977D01*
X18823Y75970D01*
X18842Y75956D01*
X18871Y75934D01*
X18914Y75912D01*
X18965Y75886D01*
X19031Y75865D01*
X19104Y75850D01*
X19187Y75843D01*
X19155Y75526D01*
X19151D01*
X19140Y75530D01*
X19122D01*
X19096Y75533D01*
X19067Y75541D01*
X19034Y75548D01*
X18994Y75559D01*
X18954Y75570D01*
X18867Y75599D01*
X18780Y75643D01*
X18736Y75668D01*
X18692Y75701D01*
X18652Y75734D01*
X18616Y75770D01*
X18612Y75774D01*
X18609Y75781D01*
X18598Y75792D01*
X18587Y75810D01*
X18572Y75832D01*
X18558Y75857D01*
X18539Y75886D01*
X18521Y75923D01*
X18503Y75963D01*
X18485Y76007D01*
X18470Y76054D01*
X18456Y76105D01*
X18445Y76160D01*
X18434Y76218D01*
X18430Y76280D01*
X18427Y76345D01*
Y76381D01*
X18430Y76407D01*
X18434Y76436D01*
X18438Y76473D01*
X18445Y76512D01*
X18452Y76553D01*
X18477Y76647D01*
X18514Y76742D01*
X18536Y76789D01*
X18561Y76837D01*
X18594Y76880D01*
X18630Y76920D01*
X18634Y76924D01*
X18638Y76931D01*
X18652Y76938D01*
X18667Y76953D01*
X18685Y76971D01*
X18711Y76989D01*
X18736Y77008D01*
X18769Y77029D01*
X18838Y77066D01*
X18925Y77102D01*
X18969Y77117D01*
X19020Y77124D01*
X19071Y77131D01*
X19125Y77135D01*
X19133D01*
X19151D01*
X19180Y77131D01*
X19220Y77128D01*
X19264Y77120D01*
X19315Y77106D01*
X19369Y77091D01*
X19424Y77069D01*
X19431Y77066D01*
X19449Y77059D01*
X19478Y77044D01*
X19519Y77022D01*
X19562Y76993D01*
X19617Y76957D01*
X19671Y76913D01*
X19733Y76862D01*
X19741Y76855D01*
X19762Y76837D01*
X19781Y76818D01*
X19799Y76800D01*
X19821Y76778D01*
X19850Y76749D01*
X19879Y76720D01*
X19912Y76684D01*
X19948Y76647D01*
X19988Y76604D01*
X20028Y76556D01*
X20076Y76505D01*
X20123Y76447D01*
X20174Y76389D01*
X20177Y76385D01*
X20185Y76378D01*
X20196Y76363D01*
X20210Y76345D01*
X20232Y76323D01*
X20254Y76298D01*
X20301Y76240D01*
X20356Y76178D01*
X20410Y76119D01*
X20458Y76069D01*
X20476Y76047D01*
X20494Y76028D01*
X20498Y76025D01*
X20509Y76014D01*
X20523Y75999D01*
X20545Y75981D01*
X20571Y75963D01*
X20596Y75941D01*
X20658Y75897D01*
Y77139D01*
X20956D01*
Y75468D01*
D02*
G37*
G36*
X20177Y75224D02*
X20199Y75217D01*
X20228Y75206D01*
X20261Y75195D01*
X20301Y75180D01*
X20345Y75162D01*
X20392Y75140D01*
X20494Y75089D01*
X20596Y75024D01*
X20647Y74984D01*
X20698Y74944D01*
X20742Y74900D01*
X20785Y74849D01*
X20789Y74845D01*
X20796Y74838D01*
X20804Y74820D01*
X20818Y74802D01*
X20836Y74773D01*
X20854Y74743D01*
X20873Y74704D01*
X20891Y74663D01*
X20913Y74616D01*
X20931Y74565D01*
X20949Y74511D01*
X20967Y74452D01*
X20982Y74390D01*
X20989Y74325D01*
X20996Y74256D01*
X21000Y74183D01*
Y74143D01*
X20996Y74114D01*
Y74081D01*
X20993Y74041D01*
X20986Y73997D01*
X20978Y73946D01*
X20960Y73841D01*
X20931Y73732D01*
X20891Y73622D01*
X20865Y73571D01*
X20836Y73520D01*
X20833Y73517D01*
X20829Y73510D01*
X20818Y73495D01*
X20804Y73480D01*
X20789Y73459D01*
X20767Y73433D01*
X20742Y73404D01*
X20712Y73375D01*
X20680Y73346D01*
X20647Y73313D01*
X20563Y73247D01*
X20465Y73186D01*
X20356Y73131D01*
X20352D01*
X20341Y73124D01*
X20323Y73120D01*
X20301Y73109D01*
X20272Y73102D01*
X20236Y73091D01*
X20196Y73076D01*
X20152Y73066D01*
X20105Y73054D01*
X20050Y73040D01*
X19937Y73022D01*
X19810Y73007D01*
X19679Y73000D01*
X19675D01*
X19660D01*
X19639D01*
X19613Y73004D01*
X19577D01*
X19540Y73007D01*
X19493Y73011D01*
X19446Y73018D01*
X19340Y73036D01*
X19224Y73062D01*
X19107Y73098D01*
X18994Y73149D01*
X18991Y73153D01*
X18980Y73156D01*
X18965Y73164D01*
X18947Y73178D01*
X18922Y73193D01*
X18892Y73211D01*
X18827Y73258D01*
X18754Y73320D01*
X18681Y73393D01*
X18609Y73477D01*
X18547Y73575D01*
X18543Y73579D01*
X18539Y73590D01*
X18532Y73604D01*
X18521Y73622D01*
X18510Y73651D01*
X18499Y73681D01*
X18485Y73717D01*
X18470Y73757D01*
X18456Y73801D01*
X18441Y73848D01*
X18419Y73950D01*
X18401Y74067D01*
X18394Y74187D01*
Y74223D01*
X18397Y74248D01*
X18401Y74281D01*
X18405Y74321D01*
X18408Y74361D01*
X18419Y74409D01*
X18441Y74507D01*
X18474Y74616D01*
X18496Y74671D01*
X18521Y74722D01*
X18554Y74773D01*
X18587Y74824D01*
X18590Y74827D01*
X18594Y74835D01*
X18605Y74849D01*
X18623Y74867D01*
X18641Y74885D01*
X18667Y74911D01*
X18696Y74936D01*
X18725Y74966D01*
X18761Y74995D01*
X18805Y75024D01*
X18849Y75057D01*
X18896Y75086D01*
X18951Y75111D01*
X19005Y75140D01*
X19064Y75162D01*
X19129Y75184D01*
X19206Y74856D01*
X19202D01*
X19195Y74853D01*
X19180Y74845D01*
X19162Y74838D01*
X19140Y74831D01*
X19111Y74820D01*
X19053Y74791D01*
X18987Y74754D01*
X18922Y74711D01*
X18860Y74656D01*
X18805Y74598D01*
X18798Y74591D01*
X18783Y74569D01*
X18765Y74532D01*
X18740Y74485D01*
X18718Y74423D01*
X18696Y74354D01*
X18681Y74270D01*
X18678Y74179D01*
Y74150D01*
X18681Y74132D01*
Y74107D01*
X18685Y74077D01*
X18696Y74008D01*
X18711Y73932D01*
X18736Y73852D01*
X18772Y73768D01*
X18820Y73691D01*
Y73688D01*
X18827Y73684D01*
X18845Y73659D01*
X18874Y73626D01*
X18918Y73586D01*
X18973Y73539D01*
X19034Y73495D01*
X19111Y73455D01*
X19195Y73419D01*
X19198D01*
X19206Y73415D01*
X19216Y73411D01*
X19235Y73408D01*
X19256Y73400D01*
X19282Y73393D01*
X19344Y73382D01*
X19417Y73368D01*
X19497Y73353D01*
X19584Y73346D01*
X19679Y73342D01*
X19682D01*
X19693D01*
X19712D01*
X19733D01*
X19759Y73346D01*
X19792D01*
X19828Y73349D01*
X19868Y73353D01*
X19955Y73364D01*
X20050Y73382D01*
X20145Y73404D01*
X20239Y73433D01*
X20243D01*
X20250Y73437D01*
X20261Y73444D01*
X20279Y73451D01*
X20323Y73473D01*
X20374Y73506D01*
X20432Y73546D01*
X20494Y73597D01*
X20549Y73655D01*
X20600Y73724D01*
Y73728D01*
X20603Y73735D01*
X20611Y73746D01*
X20618Y73761D01*
X20625Y73779D01*
X20636Y73801D01*
X20658Y73852D01*
X20680Y73917D01*
X20698Y73990D01*
X20712Y74070D01*
X20716Y74154D01*
Y74179D01*
X20712Y74201D01*
Y74227D01*
X20709Y74252D01*
X20694Y74318D01*
X20676Y74394D01*
X20647Y74471D01*
X20607Y74551D01*
X20585Y74591D01*
X20556Y74627D01*
X20552Y74631D01*
X20549Y74634D01*
X20538Y74645D01*
X20527Y74660D01*
X20509Y74674D01*
X20487Y74693D01*
X20465Y74714D01*
X20436Y74733D01*
X20403Y74754D01*
X20367Y74780D01*
X20330Y74802D01*
X20287Y74824D01*
X20239Y74842D01*
X20188Y74860D01*
X20134Y74878D01*
X20076Y74893D01*
X20159Y75228D01*
X20163D01*
X20177Y75224D01*
D02*
G37*
G36*
X35956Y37224D02*
X34686Y36329D01*
X35083Y35918D01*
X35956D01*
Y35583D01*
X33437D01*
Y35918D01*
X34690D01*
X33437Y37163D01*
Y37617D01*
X34460Y36562D01*
X35956Y37665D01*
Y37224D01*
D02*
G37*
G36*
Y33624D02*
X33437D01*
Y33959D01*
X35658D01*
Y35201D01*
X35956D01*
Y33624D01*
D02*
G37*
G36*
X35177Y33224D02*
X35199Y33217D01*
X35228Y33206D01*
X35261Y33195D01*
X35301Y33180D01*
X35345Y33162D01*
X35392Y33140D01*
X35494Y33089D01*
X35596Y33024D01*
X35647Y32984D01*
X35698Y32944D01*
X35742Y32900D01*
X35785Y32849D01*
X35789Y32845D01*
X35796Y32838D01*
X35803Y32820D01*
X35818Y32802D01*
X35836Y32773D01*
X35854Y32743D01*
X35873Y32704D01*
X35891Y32663D01*
X35913Y32616D01*
X35931Y32565D01*
X35949Y32511D01*
X35967Y32452D01*
X35982Y32390D01*
X35989Y32325D01*
X35996Y32256D01*
X36000Y32183D01*
Y32143D01*
X35996Y32114D01*
Y32081D01*
X35993Y32041D01*
X35985Y31997D01*
X35978Y31946D01*
X35960Y31841D01*
X35931Y31732D01*
X35891Y31622D01*
X35865Y31571D01*
X35836Y31521D01*
X35833Y31517D01*
X35829Y31510D01*
X35818Y31495D01*
X35803Y31480D01*
X35789Y31459D01*
X35767Y31433D01*
X35742Y31404D01*
X35713Y31375D01*
X35680Y31346D01*
X35647Y31313D01*
X35563Y31247D01*
X35465Y31186D01*
X35356Y31131D01*
X35352D01*
X35341Y31124D01*
X35323Y31120D01*
X35301Y31109D01*
X35272Y31102D01*
X35236Y31091D01*
X35196Y31076D01*
X35152Y31065D01*
X35105Y31055D01*
X35050Y31040D01*
X34937Y31022D01*
X34810Y31007D01*
X34679Y31000D01*
X34675D01*
X34661D01*
X34639D01*
X34613Y31004D01*
X34577D01*
X34540Y31007D01*
X34493Y31011D01*
X34446Y31018D01*
X34340Y31036D01*
X34224Y31062D01*
X34107Y31098D01*
X33994Y31149D01*
X33991Y31153D01*
X33980Y31157D01*
X33965Y31164D01*
X33947Y31178D01*
X33922Y31193D01*
X33893Y31211D01*
X33827Y31258D01*
X33754Y31320D01*
X33681Y31393D01*
X33609Y31477D01*
X33547Y31575D01*
X33543Y31579D01*
X33539Y31590D01*
X33532Y31604D01*
X33521Y31622D01*
X33510Y31651D01*
X33499Y31681D01*
X33485Y31717D01*
X33470Y31757D01*
X33456Y31801D01*
X33441Y31848D01*
X33419Y31950D01*
X33401Y32067D01*
X33394Y32187D01*
Y32223D01*
X33397Y32248D01*
X33401Y32281D01*
X33405Y32321D01*
X33408Y32361D01*
X33419Y32409D01*
X33441Y32507D01*
X33474Y32616D01*
X33496Y32671D01*
X33521Y32722D01*
X33554Y32773D01*
X33587Y32824D01*
X33590Y32827D01*
X33594Y32835D01*
X33605Y32849D01*
X33623Y32867D01*
X33641Y32886D01*
X33667Y32911D01*
X33696Y32936D01*
X33725Y32966D01*
X33761Y32995D01*
X33805Y33024D01*
X33849Y33057D01*
X33896Y33086D01*
X33951Y33111D01*
X34005Y33140D01*
X34064Y33162D01*
X34129Y33184D01*
X34205Y32856D01*
X34202D01*
X34195Y32853D01*
X34180Y32845D01*
X34162Y32838D01*
X34140Y32831D01*
X34111Y32820D01*
X34053Y32791D01*
X33987Y32754D01*
X33922Y32711D01*
X33860Y32656D01*
X33805Y32598D01*
X33798Y32591D01*
X33783Y32569D01*
X33765Y32532D01*
X33740Y32485D01*
X33718Y32423D01*
X33696Y32354D01*
X33681Y32270D01*
X33678Y32179D01*
Y32150D01*
X33681Y32132D01*
Y32107D01*
X33685Y32077D01*
X33696Y32008D01*
X33711Y31932D01*
X33736Y31852D01*
X33772Y31768D01*
X33820Y31692D01*
Y31688D01*
X33827Y31684D01*
X33845Y31659D01*
X33874Y31626D01*
X33918Y31586D01*
X33973Y31539D01*
X34034Y31495D01*
X34111Y31455D01*
X34195Y31418D01*
X34198D01*
X34205Y31415D01*
X34216Y31411D01*
X34235Y31408D01*
X34257Y31400D01*
X34282Y31393D01*
X34344Y31382D01*
X34417Y31368D01*
X34497Y31353D01*
X34584Y31346D01*
X34679Y31342D01*
X34682D01*
X34693D01*
X34712D01*
X34733D01*
X34759Y31346D01*
X34792D01*
X34828Y31349D01*
X34868Y31353D01*
X34955Y31364D01*
X35050Y31382D01*
X35145Y31404D01*
X35239Y31433D01*
X35243D01*
X35250Y31437D01*
X35261Y31444D01*
X35279Y31451D01*
X35323Y31473D01*
X35374Y31506D01*
X35432Y31546D01*
X35494Y31597D01*
X35549Y31655D01*
X35600Y31724D01*
Y31728D01*
X35603Y31735D01*
X35611Y31746D01*
X35618Y31761D01*
X35625Y31779D01*
X35636Y31801D01*
X35658Y31852D01*
X35680Y31917D01*
X35698Y31990D01*
X35713Y32070D01*
X35716Y32154D01*
Y32179D01*
X35713Y32201D01*
Y32227D01*
X35709Y32252D01*
X35694Y32318D01*
X35676Y32394D01*
X35647Y32471D01*
X35607Y32551D01*
X35585Y32591D01*
X35556Y32627D01*
X35552Y32631D01*
X35549Y32634D01*
X35538Y32645D01*
X35527Y32660D01*
X35509Y32674D01*
X35487Y32693D01*
X35465Y32714D01*
X35436Y32733D01*
X35403Y32754D01*
X35367Y32780D01*
X35330Y32802D01*
X35287Y32824D01*
X35239Y32842D01*
X35188Y32860D01*
X35134Y32878D01*
X35076Y32893D01*
X35159Y33228D01*
X35163D01*
X35177Y33224D01*
D02*
G37*
G36*
X111218Y38954D02*
X111225Y38947D01*
X111240Y38932D01*
X111261Y38918D01*
X111287Y38896D01*
X111316Y38867D01*
X111352Y38838D01*
X111396Y38805D01*
X111440Y38772D01*
X111491Y38732D01*
X111549Y38692D01*
X111607Y38652D01*
X111673Y38609D01*
X111742Y38565D01*
X111818Y38521D01*
X111895Y38478D01*
X111898Y38474D01*
X111913Y38467D01*
X111935Y38456D01*
X111968Y38437D01*
X112008Y38419D01*
X112051Y38397D01*
X112102Y38372D01*
X112161Y38346D01*
X112226Y38317D01*
X112292Y38285D01*
X112364Y38255D01*
X112441Y38226D01*
X112597Y38168D01*
X112765Y38113D01*
X112768D01*
X112779Y38110D01*
X112797Y38106D01*
X112819Y38099D01*
X112848Y38092D01*
X112885Y38084D01*
X112925Y38073D01*
X112969Y38066D01*
X113020Y38055D01*
X113074Y38044D01*
X113191Y38026D01*
X113318Y38008D01*
X113456Y37997D01*
Y37680D01*
X113453D01*
X113442D01*
X113427D01*
X113405Y37684D01*
X113376D01*
X113340Y37688D01*
X113300Y37691D01*
X113256Y37695D01*
X113205Y37702D01*
X113154Y37709D01*
X113092Y37720D01*
X113031Y37731D01*
X112965Y37742D01*
X112892Y37757D01*
X112743Y37793D01*
X112739D01*
X112725Y37797D01*
X112703Y37804D01*
X112670Y37815D01*
X112634Y37826D01*
X112590Y37841D01*
X112539Y37855D01*
X112485Y37877D01*
X112423Y37899D01*
X112361Y37920D01*
X112222Y37975D01*
X112077Y38041D01*
X111931Y38113D01*
X111927Y38117D01*
X111913Y38124D01*
X111895Y38135D01*
X111866Y38150D01*
X111833Y38168D01*
X111793Y38194D01*
X111749Y38219D01*
X111702Y38248D01*
X111596Y38317D01*
X111487Y38390D01*
X111374Y38474D01*
X111269Y38561D01*
Y37327D01*
X110970D01*
Y38958D01*
X111214D01*
X111218Y38954D01*
D02*
G37*
G36*
X112736Y36883D02*
X112765D01*
X112834Y36876D01*
X112914Y36869D01*
X112998Y36854D01*
X113074Y36832D01*
X113147Y36807D01*
X113151D01*
X113154Y36803D01*
X113176Y36792D01*
X113205Y36774D01*
X113245Y36748D01*
X113285Y36712D01*
X113329Y36672D01*
X113373Y36621D01*
X113409Y36563D01*
X113413Y36555D01*
X113424Y36534D01*
X113438Y36501D01*
X113453Y36454D01*
X113471Y36395D01*
X113486Y36330D01*
X113496Y36257D01*
X113500Y36177D01*
Y36144D01*
X113496Y36122D01*
X113493Y36093D01*
X113489Y36064D01*
X113475Y35988D01*
X113453Y35908D01*
X113420Y35824D01*
X113398Y35780D01*
X113373Y35740D01*
X113344Y35704D01*
X113311Y35667D01*
X113307Y35664D01*
X113303Y35660D01*
X113289Y35653D01*
X113274Y35642D01*
X113256Y35627D01*
X113231Y35613D01*
X113201Y35598D01*
X113169Y35580D01*
X113132Y35566D01*
X113089Y35551D01*
X113045Y35536D01*
X112994Y35522D01*
X112940Y35515D01*
X112878Y35504D01*
X112816Y35500D01*
X112747D01*
X112703Y35802D01*
X112706D01*
X112714D01*
X112728D01*
X112750Y35806D01*
X112772Y35809D01*
X112797D01*
X112859Y35820D01*
X112925Y35831D01*
X112990Y35853D01*
X113049Y35875D01*
X113074Y35889D01*
X113096Y35908D01*
X113100Y35911D01*
X113110Y35926D01*
X113129Y35948D01*
X113147Y35977D01*
X113169Y36017D01*
X113183Y36061D01*
X113198Y36115D01*
X113201Y36173D01*
Y36195D01*
X113198Y36217D01*
X113194Y36250D01*
X113187Y36283D01*
X113180Y36319D01*
X113165Y36355D01*
X113147Y36392D01*
X113143Y36395D01*
X113136Y36406D01*
X113121Y36421D01*
X113107Y36443D01*
X113081Y36461D01*
X113056Y36483D01*
X113027Y36501D01*
X112990Y36516D01*
X112987D01*
X112972Y36523D01*
X112947Y36526D01*
X112914Y36534D01*
X112870Y36541D01*
X112816Y36545D01*
X112750Y36552D01*
X112674D01*
X110938D01*
Y36887D01*
X112655D01*
X112659D01*
X112670D01*
X112685D01*
X112706D01*
X112736Y36883D01*
D02*
G37*
G36*
X20956Y34867D02*
X18987D01*
X18991Y34863D01*
X19005Y34845D01*
X19027Y34823D01*
X19053Y34787D01*
X19085Y34747D01*
X19122Y34696D01*
X19162Y34638D01*
X19202Y34572D01*
Y34569D01*
X19206Y34565D01*
X19220Y34543D01*
X19238Y34507D01*
X19260Y34463D01*
X19286Y34412D01*
X19311Y34357D01*
X19336Y34303D01*
X19358Y34248D01*
X19060D01*
Y34252D01*
X19053Y34259D01*
X19049Y34274D01*
X19038Y34292D01*
X19027Y34314D01*
X19013Y34339D01*
X18976Y34401D01*
X18936Y34474D01*
X18885Y34547D01*
X18827Y34623D01*
X18765Y34699D01*
X18761Y34703D01*
X18758Y34707D01*
X18747Y34718D01*
X18736Y34732D01*
X18699Y34765D01*
X18656Y34809D01*
X18605Y34852D01*
X18547Y34900D01*
X18488Y34940D01*
X18427Y34976D01*
Y35176D01*
X20956D01*
Y34867D01*
D02*
G37*
G36*
X20177Y33724D02*
X20199Y33717D01*
X20228Y33706D01*
X20261Y33695D01*
X20301Y33680D01*
X20345Y33662D01*
X20392Y33640D01*
X20494Y33589D01*
X20596Y33524D01*
X20647Y33484D01*
X20698Y33444D01*
X20742Y33400D01*
X20785Y33349D01*
X20789Y33345D01*
X20796Y33338D01*
X20804Y33320D01*
X20818Y33302D01*
X20836Y33273D01*
X20854Y33244D01*
X20873Y33204D01*
X20891Y33163D01*
X20913Y33116D01*
X20931Y33065D01*
X20949Y33011D01*
X20967Y32952D01*
X20982Y32890D01*
X20989Y32825D01*
X20996Y32756D01*
X21000Y32683D01*
Y32643D01*
X20996Y32614D01*
Y32581D01*
X20993Y32541D01*
X20986Y32497D01*
X20978Y32446D01*
X20960Y32341D01*
X20931Y32232D01*
X20891Y32122D01*
X20865Y32071D01*
X20836Y32021D01*
X20833Y32017D01*
X20829Y32010D01*
X20818Y31995D01*
X20804Y31980D01*
X20789Y31959D01*
X20767Y31933D01*
X20742Y31904D01*
X20712Y31875D01*
X20680Y31846D01*
X20647Y31813D01*
X20563Y31747D01*
X20465Y31686D01*
X20356Y31631D01*
X20352D01*
X20341Y31624D01*
X20323Y31620D01*
X20301Y31609D01*
X20272Y31602D01*
X20236Y31591D01*
X20196Y31576D01*
X20152Y31565D01*
X20105Y31555D01*
X20050Y31540D01*
X19937Y31522D01*
X19810Y31507D01*
X19679Y31500D01*
X19675D01*
X19660D01*
X19639D01*
X19613Y31504D01*
X19577D01*
X19540Y31507D01*
X19493Y31511D01*
X19446Y31518D01*
X19340Y31536D01*
X19224Y31562D01*
X19107Y31598D01*
X18994Y31649D01*
X18991Y31653D01*
X18980Y31657D01*
X18965Y31664D01*
X18947Y31678D01*
X18922Y31693D01*
X18892Y31711D01*
X18827Y31758D01*
X18754Y31820D01*
X18681Y31893D01*
X18609Y31977D01*
X18547Y32075D01*
X18543Y32079D01*
X18539Y32090D01*
X18532Y32104D01*
X18521Y32122D01*
X18510Y32151D01*
X18499Y32181D01*
X18485Y32217D01*
X18470Y32257D01*
X18456Y32301D01*
X18441Y32348D01*
X18419Y32450D01*
X18401Y32566D01*
X18394Y32687D01*
Y32723D01*
X18397Y32748D01*
X18401Y32781D01*
X18405Y32821D01*
X18408Y32861D01*
X18419Y32909D01*
X18441Y33007D01*
X18474Y33116D01*
X18496Y33171D01*
X18521Y33222D01*
X18554Y33273D01*
X18587Y33324D01*
X18590Y33327D01*
X18594Y33334D01*
X18605Y33349D01*
X18623Y33367D01*
X18641Y33386D01*
X18667Y33411D01*
X18696Y33436D01*
X18725Y33466D01*
X18761Y33495D01*
X18805Y33524D01*
X18849Y33557D01*
X18896Y33586D01*
X18951Y33611D01*
X19005Y33640D01*
X19064Y33662D01*
X19129Y33684D01*
X19206Y33356D01*
X19202D01*
X19195Y33353D01*
X19180Y33345D01*
X19162Y33338D01*
X19140Y33331D01*
X19111Y33320D01*
X19053Y33291D01*
X18987Y33254D01*
X18922Y33211D01*
X18860Y33156D01*
X18805Y33098D01*
X18798Y33091D01*
X18783Y33069D01*
X18765Y33032D01*
X18740Y32985D01*
X18718Y32923D01*
X18696Y32854D01*
X18681Y32770D01*
X18678Y32679D01*
Y32650D01*
X18681Y32632D01*
Y32607D01*
X18685Y32577D01*
X18696Y32508D01*
X18711Y32432D01*
X18736Y32352D01*
X18772Y32268D01*
X18820Y32192D01*
Y32188D01*
X18827Y32184D01*
X18845Y32159D01*
X18874Y32126D01*
X18918Y32086D01*
X18973Y32039D01*
X19034Y31995D01*
X19111Y31955D01*
X19195Y31918D01*
X19198D01*
X19206Y31915D01*
X19216Y31911D01*
X19235Y31908D01*
X19256Y31900D01*
X19282Y31893D01*
X19344Y31882D01*
X19417Y31868D01*
X19497Y31853D01*
X19584Y31846D01*
X19679Y31842D01*
X19682D01*
X19693D01*
X19712D01*
X19733D01*
X19759Y31846D01*
X19792D01*
X19828Y31849D01*
X19868Y31853D01*
X19955Y31864D01*
X20050Y31882D01*
X20145Y31904D01*
X20239Y31933D01*
X20243D01*
X20250Y31937D01*
X20261Y31944D01*
X20279Y31951D01*
X20323Y31973D01*
X20374Y32006D01*
X20432Y32046D01*
X20494Y32097D01*
X20549Y32155D01*
X20600Y32224D01*
Y32228D01*
X20603Y32235D01*
X20611Y32246D01*
X20618Y32261D01*
X20625Y32279D01*
X20636Y32301D01*
X20658Y32352D01*
X20680Y32417D01*
X20698Y32490D01*
X20712Y32570D01*
X20716Y32654D01*
Y32679D01*
X20712Y32701D01*
Y32727D01*
X20709Y32752D01*
X20694Y32818D01*
X20676Y32894D01*
X20647Y32970D01*
X20607Y33051D01*
X20585Y33091D01*
X20556Y33127D01*
X20552Y33131D01*
X20549Y33134D01*
X20538Y33145D01*
X20527Y33160D01*
X20509Y33174D01*
X20487Y33193D01*
X20465Y33214D01*
X20436Y33233D01*
X20403Y33254D01*
X20367Y33280D01*
X20330Y33302D01*
X20287Y33324D01*
X20239Y33342D01*
X20188Y33360D01*
X20134Y33378D01*
X20076Y33393D01*
X20159Y33728D01*
X20163D01*
X20177Y33724D01*
D02*
G37*
G36*
X193797Y36698D02*
X193793D01*
X193786D01*
X193772D01*
X193750Y36694D01*
X193728Y36691D01*
X193702D01*
X193641Y36680D01*
X193575Y36669D01*
X193509Y36647D01*
X193451Y36625D01*
X193426Y36611D01*
X193404Y36592D01*
X193400Y36589D01*
X193389Y36574D01*
X193371Y36552D01*
X193353Y36523D01*
X193331Y36483D01*
X193317Y36439D01*
X193302Y36385D01*
X193298Y36327D01*
Y36305D01*
X193302Y36283D01*
X193306Y36250D01*
X193313Y36217D01*
X193320Y36181D01*
X193335Y36145D01*
X193353Y36108D01*
X193357Y36105D01*
X193364Y36094D01*
X193378Y36079D01*
X193393Y36057D01*
X193419Y36039D01*
X193444Y36017D01*
X193473Y35999D01*
X193509Y35985D01*
X193513D01*
X193528Y35977D01*
X193553Y35974D01*
X193586Y35966D01*
X193630Y35959D01*
X193684Y35955D01*
X193750Y35948D01*
X193826D01*
X195563D01*
Y35613D01*
X193844D01*
X193841D01*
X193830D01*
X193815D01*
X193793D01*
X193764Y35617D01*
X193735D01*
X193666Y35624D01*
X193586Y35631D01*
X193502Y35646D01*
X193426Y35668D01*
X193353Y35693D01*
X193349D01*
X193346Y35697D01*
X193324Y35708D01*
X193295Y35726D01*
X193255Y35752D01*
X193215Y35788D01*
X193171Y35828D01*
X193127Y35879D01*
X193091Y35937D01*
X193087Y35944D01*
X193076Y35966D01*
X193062Y35999D01*
X193047Y36046D01*
X193029Y36105D01*
X193015Y36170D01*
X193004Y36243D01*
X193000Y36323D01*
Y36356D01*
X193004Y36378D01*
X193007Y36407D01*
X193011Y36436D01*
X193025Y36512D01*
X193047Y36592D01*
X193080Y36676D01*
X193102Y36720D01*
X193127Y36760D01*
X193157Y36796D01*
X193189Y36833D01*
X193193Y36836D01*
X193196Y36840D01*
X193211Y36847D01*
X193226Y36858D01*
X193244Y36873D01*
X193269Y36887D01*
X193298Y36902D01*
X193331Y36920D01*
X193368Y36935D01*
X193411Y36949D01*
X193455Y36964D01*
X193506Y36978D01*
X193561Y36985D01*
X193622Y36996D01*
X193684Y37000D01*
X193753D01*
X193797Y36698D01*
D02*
G37*
G36*
X194289Y35206D02*
X194340D01*
X194398Y35202D01*
X194467Y35195D01*
X194543Y35187D01*
X194627Y35176D01*
X194711Y35162D01*
X194802Y35144D01*
X194889Y35122D01*
X194976Y35096D01*
X195060Y35063D01*
X195140Y35027D01*
X195217Y34987D01*
X195282Y34940D01*
X195286Y34936D01*
X195293Y34929D01*
X195308Y34914D01*
X195329Y34896D01*
X195351Y34874D01*
X195373Y34845D01*
X195402Y34809D01*
X195428Y34772D01*
X195453Y34729D01*
X195482Y34681D01*
X195504Y34627D01*
X195530Y34572D01*
X195548Y34510D01*
X195563Y34445D01*
X195570Y34376D01*
X195573Y34303D01*
Y34274D01*
X195570Y34252D01*
Y34226D01*
X195566Y34197D01*
X195552Y34128D01*
X195533Y34052D01*
X195504Y33972D01*
X195461Y33891D01*
X195435Y33851D01*
X195406Y33815D01*
X195402Y33811D01*
X195399Y33808D01*
X195388Y33797D01*
X195377Y33786D01*
X195359Y33768D01*
X195337Y33753D01*
X195286Y33713D01*
X195220Y33673D01*
X195140Y33637D01*
X195049Y33604D01*
X194947Y33582D01*
X194922Y33891D01*
X194925D01*
X194929Y33895D01*
X194951Y33899D01*
X194984Y33910D01*
X195024Y33924D01*
X195068Y33939D01*
X195111Y33961D01*
X195151Y33986D01*
X195184Y34012D01*
X195191Y34019D01*
X195206Y34033D01*
X195228Y34059D01*
X195253Y34095D01*
X195275Y34143D01*
X195297Y34194D01*
X195311Y34255D01*
X195319Y34321D01*
Y34347D01*
X195315Y34376D01*
X195308Y34408D01*
X195297Y34452D01*
X195282Y34496D01*
X195264Y34539D01*
X195235Y34583D01*
X195231Y34590D01*
X195217Y34609D01*
X195191Y34634D01*
X195155Y34667D01*
X195111Y34703D01*
X195060Y34743D01*
X194995Y34780D01*
X194922Y34816D01*
X194918D01*
X194911Y34820D01*
X194900Y34823D01*
X194886Y34831D01*
X194864Y34834D01*
X194838Y34841D01*
X194809Y34849D01*
X194773Y34856D01*
X194733Y34867D01*
X194689Y34874D01*
X194642Y34881D01*
X194591Y34885D01*
X194532Y34892D01*
X194474Y34896D01*
X194409Y34900D01*
X194343D01*
X194347Y34896D01*
X194369Y34881D01*
X194398Y34856D01*
X194434Y34823D01*
X194478Y34787D01*
X194518Y34740D01*
X194558Y34689D01*
X194594Y34630D01*
Y34627D01*
X194598Y34623D01*
X194609Y34601D01*
X194620Y34569D01*
X194638Y34525D01*
X194652Y34474D01*
X194663Y34416D01*
X194674Y34354D01*
X194678Y34288D01*
Y34259D01*
X194674Y34237D01*
X194671Y34208D01*
X194667Y34179D01*
X194660Y34143D01*
X194649Y34106D01*
X194623Y34023D01*
X194605Y33979D01*
X194580Y33935D01*
X194554Y33891D01*
X194525Y33844D01*
X194489Y33801D01*
X194449Y33760D01*
X194445Y33757D01*
X194438Y33749D01*
X194427Y33739D01*
X194409Y33728D01*
X194383Y33709D01*
X194358Y33691D01*
X194325Y33673D01*
X194289Y33651D01*
X194248Y33629D01*
X194205Y33611D01*
X194154Y33593D01*
X194103Y33575D01*
X194048Y33564D01*
X193986Y33553D01*
X193924Y33546D01*
X193859Y33542D01*
X193855D01*
X193848D01*
X193837D01*
X193819D01*
X193797Y33546D01*
X193775D01*
X193717Y33557D01*
X193648Y33568D01*
X193575Y33586D01*
X193495Y33611D01*
X193419Y33648D01*
X193415D01*
X193411Y33651D01*
X193400Y33658D01*
X193386Y33666D01*
X193349Y33688D01*
X193302Y33720D01*
X193251Y33760D01*
X193200Y33808D01*
X193149Y33866D01*
X193105Y33928D01*
Y33931D01*
X193102Y33935D01*
X193095Y33946D01*
X193091Y33961D01*
X193073Y33997D01*
X193054Y34044D01*
X193033Y34106D01*
X193018Y34175D01*
X193004Y34252D01*
X193000Y34336D01*
Y34354D01*
X193004Y34372D01*
Y34401D01*
X193007Y34434D01*
X193015Y34470D01*
X193025Y34514D01*
X193036Y34558D01*
X193051Y34609D01*
X193069Y34659D01*
X193091Y34710D01*
X193120Y34765D01*
X193153Y34816D01*
X193189Y34867D01*
X193233Y34918D01*
X193284Y34965D01*
X193288Y34969D01*
X193298Y34976D01*
X193313Y34987D01*
X193339Y35002D01*
X193371Y35023D01*
X193408Y35042D01*
X193455Y35063D01*
X193506Y35085D01*
X193568Y35111D01*
X193637Y35133D01*
X193713Y35151D01*
X193797Y35169D01*
X193892Y35187D01*
X193994Y35198D01*
X194103Y35206D01*
X194219Y35209D01*
X194223D01*
X194227D01*
X194238D01*
X194252D01*
X194289Y35206D01*
D02*
G37*
%LPC*%
G36*
X209313Y113541D02*
X208520D01*
Y112708D01*
X209270D01*
X209313Y112711D01*
X209364Y112715D01*
X209423Y112718D01*
X209481Y112726D01*
X209539Y112737D01*
X209590Y112751D01*
X209597Y112755D01*
X209612Y112762D01*
X209634Y112773D01*
X209663Y112788D01*
X209696Y112810D01*
X209728Y112835D01*
X209761Y112868D01*
X209787Y112904D01*
X209790Y112908D01*
X209798Y112922D01*
X209808Y112944D01*
X209823Y112973D01*
X209834Y113006D01*
X209845Y113042D01*
X209852Y113086D01*
X209856Y113130D01*
Y113134D01*
Y113137D01*
X209852Y113159D01*
X209848Y113192D01*
X209841Y113235D01*
X209823Y113279D01*
X209801Y113330D01*
X209768Y113377D01*
X209725Y113425D01*
X209717Y113428D01*
X209699Y113443D01*
X209670Y113461D01*
X209623Y113483D01*
X209568Y113505D01*
X209495Y113523D01*
X209412Y113538D01*
X209313Y113541D01*
D02*
G37*
G36*
X209628Y70498D02*
X208835D01*
Y69664D01*
X209585D01*
X209628Y69668D01*
X209679Y69671D01*
X209738Y69675D01*
X209796Y69682D01*
X209854Y69693D01*
X209905Y69708D01*
X209912Y69711D01*
X209927Y69718D01*
X209949Y69729D01*
X209978Y69744D01*
X210011Y69766D01*
X210043Y69791D01*
X210076Y69824D01*
X210102Y69861D01*
X210105Y69864D01*
X210113Y69879D01*
X210123Y69901D01*
X210138Y69930D01*
X210149Y69962D01*
X210160Y69999D01*
X210167Y70043D01*
X210171Y70086D01*
Y70090D01*
Y70093D01*
X210167Y70115D01*
X210163Y70148D01*
X210156Y70192D01*
X210138Y70235D01*
X210116Y70286D01*
X210083Y70334D01*
X210040Y70381D01*
X210032Y70385D01*
X210014Y70399D01*
X209985Y70417D01*
X209938Y70439D01*
X209883Y70461D01*
X209810Y70479D01*
X209727Y70494D01*
X209628Y70498D01*
D02*
G37*
G36*
X209313Y91997D02*
X208520D01*
Y91164D01*
X209270D01*
X209313Y91168D01*
X209364Y91171D01*
X209423Y91175D01*
X209481Y91182D01*
X209539Y91193D01*
X209590Y91208D01*
X209597Y91211D01*
X209612Y91219D01*
X209634Y91229D01*
X209663Y91244D01*
X209696Y91266D01*
X209728Y91291D01*
X209761Y91324D01*
X209787Y91360D01*
X209790Y91364D01*
X209798Y91379D01*
X209808Y91400D01*
X209823Y91430D01*
X209834Y91462D01*
X209845Y91499D01*
X209852Y91543D01*
X209856Y91586D01*
Y91590D01*
Y91593D01*
X209852Y91615D01*
X209848Y91648D01*
X209841Y91692D01*
X209823Y91735D01*
X209801Y91786D01*
X209768Y91834D01*
X209725Y91881D01*
X209717Y91885D01*
X209699Y91899D01*
X209670Y91917D01*
X209623Y91939D01*
X209568Y91961D01*
X209495Y91979D01*
X209412Y91994D01*
X209313Y91997D01*
D02*
G37*
G36*
X211585Y134775D02*
X210791Y133647D01*
X211585D01*
Y134775D01*
D02*
G37*
G36*
X209313Y134997D02*
X208520D01*
Y134164D01*
X209270D01*
X209313Y134168D01*
X209364Y134171D01*
X209423Y134175D01*
X209481Y134182D01*
X209539Y134193D01*
X209590Y134208D01*
X209597Y134211D01*
X209612Y134219D01*
X209634Y134229D01*
X209663Y134244D01*
X209696Y134266D01*
X209728Y134291D01*
X209761Y134324D01*
X209787Y134361D01*
X209790Y134364D01*
X209798Y134379D01*
X209808Y134400D01*
X209823Y134430D01*
X209834Y134462D01*
X209845Y134499D01*
X209852Y134543D01*
X209856Y134586D01*
Y134590D01*
Y134593D01*
X209852Y134615D01*
X209848Y134648D01*
X209841Y134692D01*
X209823Y134735D01*
X209801Y134786D01*
X209768Y134834D01*
X209725Y134881D01*
X209717Y134885D01*
X209699Y134899D01*
X209670Y134917D01*
X209623Y134939D01*
X209568Y134961D01*
X209495Y134979D01*
X209412Y134994D01*
X209313Y134997D01*
D02*
G37*
G36*
X193859Y34852D02*
X193852D01*
X193833D01*
X193801Y34849D01*
X193761Y34845D01*
X193713Y34838D01*
X193662Y34823D01*
X193608Y34809D01*
X193553Y34787D01*
X193546Y34783D01*
X193528Y34772D01*
X193502Y34758D01*
X193470Y34736D01*
X193437Y34710D01*
X193397Y34678D01*
X193364Y34641D01*
X193331Y34598D01*
X193327Y34590D01*
X193320Y34576D01*
X193306Y34550D01*
X193295Y34517D01*
X193280Y34481D01*
X193266Y34438D01*
X193258Y34390D01*
X193255Y34339D01*
Y34321D01*
X193258Y34306D01*
X193262Y34270D01*
X193273Y34223D01*
X193295Y34172D01*
X193320Y34113D01*
X193360Y34055D01*
X193382Y34026D01*
X193411Y34001D01*
X193415D01*
X193419Y33993D01*
X193440Y33979D01*
X193477Y33957D01*
X193524Y33928D01*
X193586Y33902D01*
X193659Y33880D01*
X193743Y33866D01*
X193841Y33859D01*
X193844D01*
X193852D01*
X193866D01*
X193885Y33862D01*
X193906D01*
X193932Y33866D01*
X193990Y33877D01*
X194055Y33891D01*
X194125Y33917D01*
X194190Y33953D01*
X194252Y34001D01*
X194259Y34008D01*
X194278Y34026D01*
X194299Y34055D01*
X194328Y34095D01*
X194358Y34146D01*
X194379Y34205D01*
X194398Y34274D01*
X194405Y34350D01*
Y34372D01*
X194401Y34387D01*
X194398Y34423D01*
X194387Y34474D01*
X194369Y34528D01*
X194340Y34590D01*
X194303Y34649D01*
X194252Y34707D01*
X194245Y34714D01*
X194227Y34729D01*
X194194Y34754D01*
X194147Y34780D01*
X194092Y34805D01*
X194023Y34831D01*
X193946Y34845D01*
X193859Y34852D01*
D02*
G37*
%LPD*%
D10*
X185646Y106685D02*
Y117315D01*
Y106685D02*
X230724D01*
Y117315D01*
X185646D02*
X230724D01*
X185961Y63685D02*
Y74315D01*
Y63685D02*
X231039D01*
Y74315D01*
X185961D02*
X231039D01*
X185646Y85185D02*
Y95815D01*
Y85185D02*
X230724D01*
Y95815D01*
X185646D02*
X230724D01*
X185646Y128185D02*
Y138815D01*
Y128185D02*
X230724D01*
Y138815D01*
X185646D02*
X230724D01*
X30909Y62122D02*
X42091D01*
Y84878D01*
X30909D02*
X42091D01*
X30909Y62122D02*
Y84878D01*
X15685Y60402D02*
X26315D01*
Y85598D01*
X15685D02*
X26315D01*
X15685Y60402D02*
Y85598D01*
X30685Y18402D02*
X41315D01*
Y43598D01*
X30685D02*
X41315D01*
X30685Y18402D02*
Y43598D01*
X107713Y4614D02*
X119287D01*
Y66386D01*
X107713D02*
X119287D01*
X107713Y4614D02*
Y66386D01*
X15685Y18902D02*
X26315D01*
Y44098D01*
X15685D02*
X26315D01*
X15685Y18902D02*
Y44098D01*
X187409Y48378D02*
X198591D01*
X187409Y25622D02*
Y48378D01*
Y25622D02*
X198591D01*
Y48378D01*
M02*
